<?xml version="1.0" encoding="UTF-8"?>
<svg width="66px" height="47px" viewBox="0 0 66 47" version="1.1" xmlns="http://www.w3.org/2000/svg" xmlns:xlink="http://www.w3.org/1999/xlink">
    <title>Shape</title>
    <g id="Individual-steps" stroke="none" stroke-width="1" fill="none" fill-rule="evenodd">
        <g id="Step-3----Reason-to-Release" transform="translate(-72.000000, -496.000000)" fill="#243060" fill-rule="nonzero">
            <g id="Step-1" transform="translate(16.000000, 16.000000)">
                <g id="Homeowner" transform="translate(16.000000, 32.000000)">
                    <g id="Car" transform="translate(0.000000, 424.000000)">
                        <path d="M105.653756,36.6360254 C105.653756,35.6056458 105.244034,34.617839 104.515645,33.8895336 C103.787256,33.1619616 102.799449,32.7527639 101.769991,32.7527639 L96.9357134,32.7527639 C96.2875255,32.7527639 95.7629286,33.2781779 95.7629286,33.9255487 L95.7629286,35.732589 C95.5280448,34.9583796 95.223603,34.0663198 94.8831461,33.1398791 C93.428023,29.2917737 91.7855124,26.7103773 89.9906238,25.4436683 L89.9898055,25.4428499 C89.8449468,25.3364577 89.6755376,25.2677105 89.4971172,25.243977 C84.1497446,24.5442491 78.7686405,24.1293108 73.3762227,24 L72.0855874,24 L72.0864058,24 C66.6807888,24.1554977 61.288371,24.5982613 55.9303133,25.3258124 C55.7519013,25.3495459 55.5824816,25.418293 55.437625,25.5255024 C53.6428621,26.7924 52.0003725,29.3736078 50.5451027,33.2217132 C50.2046459,34.148971 49.9002041,35.0402137 49.6653203,35.8144231 L49.6645019,33.8903495 C49.6645019,33.57935 49.5409234,33.2806279 49.3215938,33.0613108 C49.1014386,32.8411557 48.8027166,32.7175856 48.491738,32.7175856 L43.692658,32.7175856 C42.3496447,32.7912416 41.1391268,33.5499136 40.4885923,34.726763 C39.8371359,35.9036333 39.8371359,37.3326722 40.4885923,38.5095006 C41.1392315,39.686371 42.3496447,40.4458517 43.692658,40.5195161 L44.4079527,40.5195161 C43.763054,40.9770063 43.2343507,41.4230362 42.7187628,41.8101514 L42.7195812,41.8101514 C41.5279821,42.7865188 40.8380594,44.2474035 40.8421658,45.7875256 L40.8421658,68.0439767 L40.8421658,68.0431583 C40.8487131,69.6415038 42.1417892,70.9346323 43.7401347,70.9411272 L50.0173213,70.9411272 C51.6173009,70.9411272 52.914452,69.6439551 52.914452,68.0431583 L52.914452,64.8055706 L92.5247752,64.8055706 L92.5247752,68.1020312 C92.5247752,69.7028279 93.8219473,71 95.4227441,71 L101.699931,71 C103.297459,70.9934528 104.591405,69.6995595 104.597899,68.1020312 L104.597899,45.8225338 C104.601173,44.282286 103.912083,42.8214851 102.720484,41.8451596 C102.239256,41.4580444 101.676193,41.0120145 101.031294,40.5545243 L101.746589,40.5545243 C102.783505,40.5512506 103.77787,40.1371346 104.509632,39.4030258 C105.242107,38.6680999 105.653756,37.6729183 105.653756,36.6360019 L105.653756,36.6360254 Z M99.9628883,47.2777642 C99.5823308,48.6764239 98.8465878,49.9538599 97.8277523,50.9850776 C97.6387013,51.175767 97.3899143,51.29526 97.123918,51.3255345 C96.971695,51.3255345 94.0966803,51.6307933 90.2485749,51.6307933 C89.180546,51.6307933 88.0430429,51.6307933 86.8693572,51.5604099 L86.8693572,51.5595915 C85.9167274,51.5227635 85.1040517,50.8582085 84.8781769,49.9326058 C84.6523021,49.006165 85.0672278,48.0429131 85.895462,47.5707779 C89.2352914,45.5665031 92.9338053,44.231577 96.7835868,43.6399153 C97.7452046,43.5163368 98.7052092,43.882153 99.3410988,44.6138105 C99.9770094,45.3438339 100.209421,46.3414668 99.9630978,47.2777546 L99.9628883,47.2777642 Z M60.5767429,49.929347 C60.359039,50.8336843 59.5807442,51.4933116 58.6526692,51.5596012 C57.4790672,51.5596012 56.3063452,51.6299846 55.2734515,51.6299846 C51.4253461,51.6299846 48.550214,51.3484425 48.3981084,51.3247257 L48.3981084,51.3255441 C48.1313159,51.2952633 47.8833376,51.1757766 47.6942741,50.9850872 C46.6745377,49.9538905 45.9396117,48.6762659 45.5591381,47.2777739 C45.3119769,46.341507 45.545225,45.3438741 46.1811371,44.6138298 C46.8170477,43.8821723 47.7770313,43.5163435 48.7386491,43.6399346 C52.5884306,44.2316382 56.2867349,45.5664596 59.6267739,47.5707972 C60.424721,48.0643025 60.8093639,49.0193836 60.5769524,49.9294824 L60.5767429,49.929347 Z M56.5402862,27.5199523 C61.9090291,26.7801238 67.3146461,26.3414478 72.7315768,26.2056003 C78.1485074,26.3414562 83.5541244,26.7801238 88.9228673,27.5199523 C91.2691912,29.3973677 93.1114295,34.5599718 93.9674952,37.6100463 L51.4952393,37.6100463 C52.351284,34.5591337 54.1820201,29.3498294 56.5398672,27.5199523 L56.5402862,27.5199523 Z M72.2151299,62.5293938 L54.6161288,62.5293938 L54.6161288,60.9220393 C54.6194024,59.6444985 55.1284483,58.4194194 56.0319684,57.5157945 C56.9354886,56.6121696 58.1606095,56.1032233 59.4382132,56.0999549 L85.9770878,56.0999549 C87.2554457,56.1032285 88.4797077,56.6122744 89.3841706,57.5157945 C90.2876908,58.4193147 90.7967419,59.6444356 90.7991932,60.9220393 L90.7991932,62.5293938 L72.2151299,62.5293938 Z" id="Shape"></path>
                    </g>
                </g>
            </g>
        </g>
    </g>
</svg>