<?xml version="1.0" encoding="UTF-8"?>
<svg width="50px" height="47px" viewBox="0 0 50 47" version="1.1" xmlns="http://www.w3.org/2000/svg" xmlns:xlink="http://www.w3.org/1999/xlink">
    <title>Shape</title>
    <g id="Individual-steps" stroke="none" stroke-width="1" fill="none" fill-rule="evenodd">
        <g id="Step-3----Reason-to-Release" transform="translate(-244.000000, -186.000000)" fill="#243060" fill-rule="nonzero">
            <g id="Step-1" transform="translate(16.000000, 16.000000)">
                <g id="Homeowner" transform="translate(16.000000, 32.000000)">
                    <g id="Friends-&amp;-Family" transform="translate(164.044444, 114.000000)">
                        <path d="M66.4448376,24 C61.6230003,24 57.6865637,28.0451808 57.6865637,33.0383063 C57.6865637,40.8283066 70.2647089,49.2652996 71.7091272,50.1906999 C72.0819181,50.4448897 72.5244696,50.5606435 72.9670409,50.5606435 C73.3863389,50.5606435 73.8288805,50.4448897 74.2016416,50.1906999 C75.6459607,49.265841 88.2242051,40.8289957 88.2242051,33.0383063 C88.2242051,28.0451808 84.2873717,24 79.4659312,24 C76.8804621,24 74.55104,25.1559628 72.9672393,26.9818565 C71.359828,25.1555691 69.0304059,24 66.4449368,24 L66.4448376,24 Z M49.7080375,40.6946158 C48.6625207,40.6946158 47.7018238,41.3660528 48.0161038,42.4196998 L49.9300573,48.8372527 L51.1514637,52.9335274 C52.3728702,57.0298022 52.3728702,57.0298022 54.3938653,59.0352628 L58.4356572,63.0461841 C60.4565532,65.0516448 60.4565532,65.0516448 60.4565532,68.0258224 L60.4565532,71 L71.4880994,71 L71.4880994,64.8136003 C71.4880994,61.2733534 71.525689,59.3140643 70.8010286,57.4658232 C70.0763691,55.6176806 68.7421373,54.4801274 66.7247135,52.6804206 L62.5782608,48.9813789 L62.5774857,48.9813789 C62.2554578,48.6860384 61.8384911,48.5129885 61.4006221,48.4929939 C60.8832902,48.4691511 60.3795096,48.6602748 60.0101711,49.02061 C59.6408623,49.3809451 59.4397449,49.8774027 59.4548538,50.3911869 C59.4703545,50.9049613 59.7005437,51.3891426 60.090378,51.7271106 L63.8209652,55.0547124 C63.8810306,55.0877846 63.9364492,55.1277786 63.9860515,55.1743056 C64.3146665,55.4838717 64.3278409,55.998414 64.0162781,56.3245585 C63.8666975,56.4810693 63.6605405,56.5722114 63.4431436,56.5779804 C63.2257468,56.5833641 63.015324,56.5033764 62.8576086,56.3549392 L62.671987,56.1834251 L59.7474368,53.4795825 C56.8228865,50.77574 56.8228865,50.77574 55.2607124,48.0718974 L53.6986376,45.3680548 L51.5905408,41.7197132 C51.1774431,41.0052057 50.4229032,40.6937002 49.7076384,40.6952754 L49.7080375,40.6946158 Z M96.2022353,40.69435 C95.4868812,40.69435 94.7324206,41.0045658 94.3193329,41.7190537 L92.2112361,45.3673952 L90.6491612,48.0712378 C89.0870863,50.7750804 89.0870863,50.7750804 86.1624369,53.4789229 L83.2378867,56.1827655 L83.052265,56.3542796 L83.05304,56.3546641 C82.8953246,56.5031023 82.684515,56.5834743 82.4671181,56.5777053 C82.2497212,56.5719369 82.0435643,56.4807962 81.8939836,56.3242834 C81.5824218,55.9985622 81.5959831,55.483636 81.9242103,55.1744243 C81.9742004,55.1278924 82.0296151,55.0875145 82.0892966,55.0548311 L85.8195862,51.7272293 L85.8199737,51.7268448 C86.2098178,51.3888177 86.4400021,50.9046561 86.4554979,50.3913149 C86.4706107,49.8775405 86.2694893,49.3806596 85.9001805,49.0207379 C85.5308718,48.6604028 85.0271011,48.4688941 84.5097295,48.492738 C84.0718307,48.5131194 83.6548641,48.6861663 83.3328659,48.9815069 L79.1864132,52.6801548 C77.1689894,54.4798615 75.8347874,55.617021 75.1100981,57.4655574 C74.3854387,59.3137 74.4230273,61.2730876 74.4230273,64.8133345 L74.4230273,70.9997342 L85.4545735,70.9997342 L85.4545735,68.0255566 C85.4545735,65.051379 85.4545735,65.051379 87.4754695,63.0459183 L91.5172614,59.034997 C93.5381573,57.0295364 93.5381573,57.0295364 94.759663,52.9332616 L95.9810694,48.8369869 L97.8950229,42.419434 C98.2093029,41.3657575 97.2482588,40.6962205 96.2030892,40.69435 L96.2022353,40.69435 Z" id="Shape"></path>
                    </g>
                </g>
            </g>
        </g>
    </g>
</svg>