<?xml version="1.0" encoding="UTF-8"?>
<svg width="52px" height="47px" viewBox="0 0 52 47" version="1.1" xmlns="http://www.w3.org/2000/svg" xmlns:xlink="http://www.w3.org/1999/xlink">
    <title>Path</title>
    <g id="Symbols" stroke="none" stroke-width="1" fill="none" fill-rule="evenodd">
        <g id="Option/Icon/Unselected" transform="translate(-48.000000, -24.000000)" fill="#243060" fill-rule="nonzero">
            <g id="Friends-&amp;-Family-Copy" transform="translate(-0.027164, 0.000000)">
                <path d="M98.6530049,46.859442 L77.3586956,25.5529379 C76.3654829,24.5589324 75.0180899,24 73.6136451,24 C72.2092004,24 70.8618684,24.5589324 69.8685946,25.5529379 L48.5742854,46.859442 C48.0399663,47.3929684 47.8803759,48.1964287 48.1693744,48.8935495 C48.458373,49.5914224 49.1395592,50.0463527 49.8946058,50.0463527 L52.7400799,50.0463527 C53.248993,50.0463527 53.661851,50.4583977 53.661851,50.9681237 L53.661851,65.6965013 C53.661851,67.1025721 54.2207834,68.452343 55.2155815,69.4462265 C56.2103796,70.4410246 57.559236,71 58.9661197,71 L66.3759377,71 L66.3751436,71 C66.8142003,71.003133 67.2357776,70.8300538 67.5454058,70.5204134 C67.8558267,70.2099924 68.0289129,69.7883948 68.0257422,69.3493585 L68.0257422,62.2818104 C68.0035109,60.8582806 68.5092492,59.4767826 69.4437233,58.4034291 C70.37899,57.3292219 71.677827,56.639296 73.0910114,56.4654172 C74.6653919,56.3113938 76.2309922,56.8290485 77.403734,57.891325 C78.5763742,58.9528291 79.2464631,60.4605849 79.2480484,62.0428718 L79.2480484,69.3272857 C79.2448727,69.7655294 79.4179517,70.187127 79.7283848,70.4975479 C80.0388057,70.8079688 80.4604033,70.9802623 80.898647,70.9778843 L88.308465,70.9778843 C89.7073814,70.9715328 91.0468274,70.4134032 92.0360362,69.4241538 C93.0252856,68.4349044 93.5834254,67.0947267 93.5897667,65.6965826 L93.5897667,50.968205 C93.5897667,50.4584993 94.0026044,50.046434 94.5115377,50.046434 L97.3570119,50.046434 C98.1080748,50.0377008 98.7805417,49.5788007 99.0639712,48.8833058 C99.3474008,48.1878109 99.1854445,47.3898993 98.6543042,46.8595639 L98.6530049,46.859442 Z" id="Path"></path>
            </g>
        </g>
    </g>
</svg>