<svg width="88" height="88" viewBox="0 0 88 88" fill="none" xmlns="http://www.w3.org/2000/svg">
<path fill-rule="evenodd" clip-rule="evenodd" d="M25.0059 32.2892C25.0059 21.799 33.5098 13.295 44 13.295C54.4902 13.295 62.9942 21.799 62.9942 32.2892C62.9942 38.912 59.6048 44.743 54.4659 48.1424C54.3378 48.2017 54.2202 48.2782 54.1157 48.3686C51.1868 50.2151 47.7182 51.2834 44 51.2834C33.5098 51.2834 25.0059 42.7794 25.0059 32.2892ZM53.9052 51.9321C50.9283 53.4361 47.5631 54.2834 44 54.2834C40.4383 54.2834 37.0742 53.4368 34.0982 51.9338L31.258 73.3177L43.2283 66.1356C43.7033 65.8505 44.2968 65.8505 44.7718 66.1356L56.7426 73.318L53.9052 51.9321ZM31.2961 50.2456C25.6747 46.2614 22.0059 39.7038 22.0059 32.2892C22.0059 20.1422 31.853 10.295 44 10.295C56.1471 10.295 65.9942 20.1422 65.9942 32.2892C65.9942 39.7023 62.3268 46.2587 56.7074 50.2432L60.1257 76.0077C60.2015 76.5787 59.9436 77.1426 59.4622 77.4588C58.9808 77.775 58.3609 77.7876 57.867 77.4913L44 69.1711L30.1331 77.4913C29.6392 77.7876 29.0192 77.775 28.5378 77.4587C28.0564 77.1425 27.7985 76.5785 27.8744 76.0075L31.2961 50.2456Z" fill="#7c83a0"/>
</svg>
