<svg width="40" height="40" viewBox="0 0 40 40" fill="none" xmlns="http://www.w3.org/2000/svg">
<path d="M23.4502 10.519V16.5298H29.461" stroke="#243060" stroke-width="2" stroke-linecap="round" stroke-linejoin="round"/>
<path d="M30.4628 9.51709L23.4502 16.5297" stroke="#243060" stroke-width="2" stroke-linecap="round" stroke-linejoin="round"/>
<path d="M29.4611 25.466V28.4714C29.4622 28.7504 29.4051 29.0266 29.2933 29.2822C29.1815 29.5378 29.0176 29.7673 28.812 29.9559C28.6064 30.1445 28.3637 30.2881 28.0994 30.3775C27.8351 30.4669 27.555 30.5001 27.2772 30.475C24.1945 30.14 21.2333 29.0866 18.6316 27.3995C16.2111 25.8614 14.1589 23.8092 12.6208 21.3887C10.9278 18.7752 9.87414 15.7996 9.5453 12.7031C9.52027 12.426 9.55319 12.1468 9.64198 11.8832C9.73076 11.6196 9.87346 11.3774 10.061 11.1719C10.2485 10.9665 10.4768 10.8024 10.7312 10.69C10.9857 10.5776 11.2607 10.5194 11.5389 10.5191H14.5443C15.0305 10.5144 15.5018 10.6865 15.8704 11.0035C16.2391 11.3206 16.4798 11.7608 16.5479 12.2422C16.6747 13.204 16.91 14.1484 17.2491 15.0573C17.3839 15.4159 17.4131 15.8056 17.3332 16.1802C17.2533 16.5548 17.0677 16.8987 16.7983 17.1711L15.526 18.4434C16.9522 20.9514 19.0288 23.0281 21.5368 24.4542L22.8091 23.1819C23.0815 22.9125 23.4254 22.7269 23.8 22.647C24.1747 22.5671 24.5644 22.5963 24.9229 22.7311C25.8318 23.0702 26.7762 23.3055 27.738 23.4323C28.2246 23.501 28.6691 23.7461 28.9868 24.1211C29.3045 24.496 29.4733 24.9747 29.4611 25.466Z" stroke="#243060" stroke-width="2" stroke-linecap="round" stroke-linejoin="round"/>
</svg>
