<svg width="88" height="88" viewBox="0 0 88 88" fill="none" xmlns="http://www.w3.org/2000/svg">
<path fill-rule="evenodd" clip-rule="evenodd" d="M44 16.75C28.9502 16.75 16.75 28.9502 16.75 44C16.75 59.0498 28.9502 71.25 44 71.25C59.0498 71.25 71.25 59.0498 71.25 44C71.25 28.9502 59.0498 16.75 44 16.75ZM13.75 44C13.75 27.2934 27.2934 13.75 44 13.75C60.7066 13.75 74.25 27.2934 74.25 44C74.25 60.7066 60.7066 74.25 44 74.25C27.2934 74.25 13.75 60.7066 13.75 44ZM43.4505 19.5686C43.6332 19.5645 43.8164 19.5625 44 19.5625C44.1836 19.5625 44.3668 19.5645 44.5495 19.5686C45.3777 19.5869 46.0343 20.2731 46.016 21.1013C45.9977 21.9295 45.3115 22.5861 44.4833 22.5678C44.3226 22.5643 44.1615 22.5625 44 22.5625C43.8385 22.5625 43.6774 22.5643 43.5167 22.5678C42.6885 22.5861 42.0023 21.9295 41.984 21.1013C41.9657 20.2731 42.6223 19.5869 43.4505 19.5686ZM38.8376 21.5951C39.0756 22.3886 38.6252 23.2248 37.8317 23.4628C37.5239 23.5551 37.2189 23.6542 36.917 23.7598C36.1351 24.0334 35.2794 23.6213 35.0058 22.8394C34.7322 22.0575 35.1443 21.2018 35.9262 20.9281C36.2707 20.8076 36.6186 20.6946 36.9699 20.5892C37.7635 20.3512 38.5996 20.8016 38.8376 21.5951ZM49.1624 21.5951C49.4004 20.8016 50.2365 20.3512 51.0301 20.5892C51.3814 20.6946 51.7293 20.8076 52.0738 20.9281C52.8557 21.2018 53.2678 22.0575 52.9942 22.8394C52.7206 23.6213 51.8649 24.0334 51.083 23.7598C50.7811 23.6542 50.4762 23.5551 50.1683 23.4628C49.3748 23.2248 48.9244 22.3886 49.1624 21.5951ZM32.1687 24.2882C32.6411 24.9687 32.4723 25.9034 31.7918 26.3757C31.5281 26.5588 31.2687 26.7476 31.0137 26.942C30.355 27.4443 29.4137 27.3175 28.9114 26.6588C28.4091 26 28.5359 25.0588 29.1946 24.5565C29.4851 24.335 29.7807 24.1198 30.0812 23.9112C30.7617 23.4389 31.6964 23.6076 32.1687 24.2882ZM55.8313 24.2882C56.3036 23.6076 57.2383 23.4389 57.9188 23.9112C58.2193 24.1198 58.5149 24.335 58.8054 24.5565C59.4641 25.0588 59.591 26 59.0886 26.6588C58.5863 27.3175 57.645 27.4443 56.9863 26.942C56.7313 26.7476 56.4719 26.5588 56.2082 26.3757C55.5277 25.9034 55.3589 24.9687 55.8313 24.2882ZM26.6588 28.9114C27.3175 29.4137 27.4443 30.355 26.942 31.0137C26.7476 31.2687 26.5588 31.5281 26.3757 31.7918C25.9034 32.4723 24.9687 32.6411 24.2882 32.1687C23.6076 31.6964 23.4389 30.7617 23.9112 30.0812C24.1198 29.7807 24.335 29.4851 24.5565 29.1946C25.0588 28.5359 26 28.4091 26.6588 28.9114ZM61.3412 28.9114C62 28.4091 62.9412 28.5359 63.4435 29.1946C63.665 29.4851 63.8802 29.7807 64.0888 30.0812C64.5611 30.7617 64.3924 31.6964 63.7118 32.1687C63.0313 32.6411 62.0966 32.4723 61.6243 31.7918C61.4412 31.5281 61.2524 31.2687 61.058 31.0137C60.5557 30.355 60.6825 29.4137 61.3412 28.9114ZM22.8394 35.0058C23.6213 35.2794 24.0334 36.1351 23.7598 36.917C23.6542 37.2189 23.5551 37.5239 23.4628 37.8317C23.2248 38.6252 22.3886 39.0756 21.5951 38.8376C20.8016 38.5996 20.3512 37.7635 20.5892 36.9699C20.6946 36.6186 20.8076 36.2707 20.9281 35.9262C21.2018 35.1443 22.0575 34.7322 22.8394 35.0058ZM65.1606 35.0058C65.9426 34.7322 66.7982 35.1443 67.0719 35.9262C67.1924 36.2707 67.3054 36.6186 67.4108 36.9699C67.6488 37.7635 67.1984 38.5996 66.4049 38.8376C65.6114 39.0756 64.7752 38.6252 64.5372 37.8317C64.4449 37.5239 64.3458 37.2189 64.2402 36.917C63.9666 36.1351 64.3787 35.2794 65.1606 35.0058ZM21.1013 41.984C21.9295 42.0023 22.5861 42.6885 22.5678 43.5167C22.5643 43.6774 22.5625 43.8385 22.5625 44C22.5625 44.1615 22.5643 44.3226 22.5678 44.4833C22.5861 45.3115 21.9295 45.9977 21.1013 46.016C20.2731 46.0343 19.5869 45.3777 19.5686 44.5495C19.5645 44.3668 19.5625 44.1836 19.5625 44C19.5625 43.8164 19.5645 43.6332 19.5686 43.4505C19.5869 42.6223 20.2731 41.9657 21.1013 41.984ZM66.8987 41.984C67.7269 41.9657 68.4131 42.6223 68.4314 43.4505C68.4355 43.6332 68.4375 43.8164 68.4375 44C68.4375 44.1836 68.4355 44.3668 68.4314 44.5495C68.4131 45.3777 67.7269 46.0343 66.8987 46.016C66.0705 45.9977 65.4139 45.3115 65.4322 44.4833C65.4357 44.3226 65.4375 44.1615 65.4375 44C65.4375 43.8385 65.4357 43.6774 65.4322 43.5167C65.4139 42.6885 66.0705 42.0023 66.8987 41.984ZM21.5951 49.1624C22.3886 48.9244 23.2248 49.3748 23.4628 50.1683C23.5551 50.4762 23.6542 50.7811 23.7598 51.083C24.0334 51.8649 23.6213 52.7206 22.8394 52.9942C22.0575 53.2678 21.2018 52.8557 20.9281 52.0738C20.8076 51.7293 20.6946 51.3814 20.5892 51.0301C20.3512 50.2365 20.8016 49.4004 21.5951 49.1624ZM66.4049 49.1624C67.1984 49.4004 67.6488 50.2365 67.4108 51.0301C67.3054 51.3814 67.1924 51.7293 67.0719 52.0738C66.7982 52.8557 65.9425 53.2678 65.1606 52.9942C64.3787 52.7206 63.9666 51.8649 64.2402 51.083C64.3458 50.7811 64.4449 50.4762 64.5372 50.1683C64.7752 49.3748 65.6114 48.9244 66.4049 49.1624ZM24.2882 55.8313C24.9687 55.3589 25.9034 55.5277 26.3757 56.2082C26.5588 56.4719 26.7476 56.7313 26.942 56.9863C27.4443 57.645 27.3175 58.5863 26.6588 59.0886C26 59.5909 25.0588 59.4641 24.5565 58.8054C24.335 58.5149 24.1198 58.2193 23.9112 57.9188C23.4389 57.2383 23.6076 56.3036 24.2882 55.8313ZM63.7118 55.8313C64.3924 56.3036 64.5611 57.2383 64.0888 57.9188C63.8802 58.2193 63.665 58.5149 63.4435 58.8054C62.9412 59.4641 62 59.591 61.3412 59.0886C60.6825 58.5863 60.5557 57.645 61.058 56.9863C61.2524 56.7313 61.4412 56.4719 61.6243 56.2082C62.0966 55.5277 63.0313 55.3589 63.7118 55.8313ZM28.9114 61.3412C29.4137 60.6825 30.355 60.5557 31.0137 61.058C31.2687 61.2524 31.5281 61.4412 31.7918 61.6243C32.4723 62.0966 32.6411 63.0313 32.1687 63.7118C31.6964 64.3924 30.7617 64.5611 30.0812 64.0888C29.7807 63.8802 29.4851 63.665 29.1946 63.4435C28.5359 62.9412 28.4091 62 28.9114 61.3412ZM59.0886 61.3412C59.5909 62 59.4641 62.9412 58.8054 63.4435C58.5149 63.665 58.2193 63.8802 57.9188 64.0888C57.2383 64.5611 56.3036 64.3924 55.8313 63.7118C55.3589 63.0313 55.5277 62.0966 56.2082 61.6243C56.4719 61.4412 56.7313 61.2524 56.9863 61.058C57.645 60.5557 58.5863 60.6825 59.0886 61.3412ZM35.0058 65.1606C35.2794 64.3787 36.1351 63.9666 36.917 64.2402C37.2189 64.3458 37.5239 64.4449 37.8317 64.5372C38.6252 64.7752 39.0756 65.6114 38.8376 66.4049C38.5996 67.1984 37.7635 67.6488 36.9699 67.4108C36.6186 67.3054 36.2707 67.1924 35.9262 67.0719C35.1443 66.7982 34.7322 65.9425 35.0058 65.1606ZM52.9942 65.1606C53.2678 65.9426 52.8557 66.7982 52.0738 67.0719C51.7293 67.1924 51.3814 67.3054 51.0301 67.4108C50.2365 67.6488 49.4004 67.1984 49.1624 66.4049C48.9244 65.6114 49.3748 64.7752 50.1683 64.5372C50.4762 64.4449 50.7811 64.3458 51.083 64.2402C51.8649 63.9666 52.7206 64.3787 52.9942 65.1606ZM41.984 66.8987C42.0023 66.0705 42.6885 65.4139 43.5167 65.4322C43.6774 65.4357 43.8385 65.4375 44 65.4375C44.1615 65.4375 44.3226 65.4357 44.4833 65.4322C45.3115 65.4139 45.9977 66.0705 46.016 66.8987C46.0343 67.7269 45.3777 68.4131 44.5495 68.4314C44.3668 68.4355 44.1836 68.4375 44 68.4375C43.8164 68.4375 43.6332 68.4355 43.4505 68.4314C42.6223 68.4131 41.9657 67.7269 41.984 66.8987ZM49.8876 52.476C49.7836 52.892 49.6536 52.996 49.2116 52.996H38.0836C37.7456 52.996 37.6676 52.918 37.6676 52.606V51.436C37.6676 51.15 37.6936 51.02 37.9276 50.916C38.5256 50.63 39.2016 50.162 39.7996 49.564C40.6576 48.706 41.1776 47.77 41.1776 46.678C41.1776 46.496 41.1776 46.288 41.1516 46.106H38.2916C38.0056 46.106 37.9276 45.976 37.9276 45.742V44.442C37.9276 44.208 38.0316 44.104 38.2656 44.104H40.6576C40.5938 43.909 40.5274 43.7118 40.4603 43.5128C40.0625 42.3325 39.6436 41.0897 39.6436 39.866C39.6436 36.486 43.1276 35.004 46.0136 35.004C47.0276 35.004 48.0416 35.134 48.9516 35.368C49.1336 35.42 49.2896 35.628 49.2896 35.836V39.84C49.2896 40.074 49.1596 40.204 48.9256 40.204H48.0676C47.8856 40.204 47.7296 40.1 47.6776 39.866L47.3916 38.41C47.2876 37.942 46.8976 37.292 45.7796 37.292C44.3496 37.292 43.6996 38.306 43.6996 39.684C43.6996 40.6712 44.0341 41.6955 44.3696 42.7227C44.5201 43.1836 44.6708 43.6451 44.7916 44.104H48.1456C48.4316 44.104 48.5616 44.156 48.5616 44.468V45.664C48.5616 46.002 48.4836 46.106 48.1716 46.106H45.0776C45.0776 46.366 45.0516 46.6 44.9996 46.834C44.8176 47.692 44.2976 48.342 43.5436 48.992L42.1656 50.162H49.8096C50.2256 50.162 50.4076 50.292 50.3036 50.708L49.8876 52.476Z" fill="#7c83a0"/>
</svg>
