<svg width="62" height="62" viewBox="0 0 62 62" fill="none" xmlns="http://www.w3.org/2000/svg">
<path fill-rule="evenodd" clip-rule="evenodd" d="M31 3.75C15.9502 3.75 3.75 15.9502 3.75 31C3.75 46.0498 15.9502 58.25 31 58.25C46.0498 58.25 58.25 46.0498 58.25 31C58.25 15.9502 46.0498 3.75 31 3.75ZM0.75 31C0.75 14.2934 14.2934 0.75 31 0.75C47.7066 0.75 61.25 14.2934 61.25 31C61.25 47.7066 47.7066 61.25 31 61.25C14.2934 61.25 0.75 47.7066 0.75 31ZM30.4505 6.56856C30.6332 6.56453 30.8164 6.5625 31 6.5625C31.1836 6.5625 31.3668 6.56453 31.5495 6.56856C32.3777 6.58686 33.0343 7.2731 33.016 8.10132C32.9977 8.92955 32.3115 9.58613 31.4833 9.56783C31.3226 9.56428 31.1615 9.5625 31 9.5625C30.8385 9.5625 30.6774 9.56428 30.5167 9.56783C29.6885 9.58613 29.0023 8.92955 28.984 8.10132C28.9657 7.2731 29.6223 6.58686 30.4505 6.56856ZM25.8376 8.59511C26.0756 9.38863 25.6252 10.2248 24.8317 10.4628C24.5239 10.5551 24.2189 10.6542 23.917 10.7598C23.1351 11.0334 22.2794 10.6213 22.0058 9.83939C21.7322 9.05745 22.1443 8.20176 22.9262 7.92814C23.2707 7.80761 23.6186 7.69457 23.9699 7.58921C24.7635 7.35124 25.5996 7.8016 25.8376 8.59511ZM36.1624 8.59511C36.4004 7.8016 37.2365 7.35124 38.0301 7.58921C38.3814 7.69457 38.7293 7.80761 39.0738 7.92814C39.8557 8.20176 40.2678 9.05745 39.9942 9.83939C39.7206 10.6213 38.8649 11.0334 38.083 10.7598C37.7811 10.6542 37.4762 10.5551 37.1683 10.4628C36.3748 10.2248 35.9244 9.38863 36.1624 8.59511ZM19.1687 11.2882C19.6411 11.9687 19.4723 12.9034 18.7918 13.3757C18.5281 13.5588 18.2687 13.7476 18.0137 13.942C17.355 14.4443 16.4137 14.3175 15.9114 13.6588C15.4091 13 15.5359 12.0588 16.1946 11.5565C16.4851 11.335 16.7807 11.1198 17.0812 10.9112C17.7617 10.4389 18.6964 10.6076 19.1687 11.2882ZM42.8313 11.2882C43.3036 10.6076 44.2383 10.4389 44.9188 10.9112C45.2193 11.1198 45.5149 11.335 45.8054 11.5565C46.4641 12.0588 46.591 13 46.0886 13.6588C45.5863 14.3175 44.645 14.4443 43.9863 13.942C43.7313 13.7476 43.4719 13.5588 43.2082 13.3757C42.5277 12.9034 42.3589 11.9687 42.8313 11.2882ZM13.6588 15.9114C14.3175 16.4137 14.4443 17.355 13.942 18.0137C13.7476 18.2687 13.5588 18.5281 13.3757 18.7918C12.9034 19.4723 11.9687 19.6411 11.2882 19.1687C10.6076 18.6964 10.4389 17.7617 10.9112 17.0812C11.1198 16.7807 11.335 16.4851 11.5565 16.1946C12.0588 15.5359 13 15.4091 13.6588 15.9114ZM48.3412 15.9114C49 15.4091 49.9412 15.5359 50.4435 16.1946C50.665 16.4851 50.8802 16.7807 51.0888 17.0812C51.5611 17.7617 51.3924 18.6964 50.7118 19.1687C50.0313 19.6411 49.0966 19.4723 48.6243 18.7918C48.4412 18.5281 48.2524 18.2687 48.058 18.0137C47.5557 17.355 47.6825 16.4137 48.3412 15.9114ZM9.83939 22.0058C10.6213 22.2794 11.0334 23.1351 10.7598 23.917C10.6542 24.2189 10.5551 24.5239 10.4628 24.8317C10.2248 25.6252 9.38863 26.0756 8.59511 25.8376C7.8016 25.5996 7.35124 24.7635 7.58921 23.9699C7.69457 23.6186 7.80761 23.2707 7.92814 22.9262C8.20176 22.1443 9.05745 21.7322 9.83939 22.0058ZM52.1606 22.0058C52.9426 21.7322 53.7982 22.1443 54.0719 22.9262C54.1924 23.2707 54.3054 23.6186 54.4108 23.9699C54.6488 24.7635 54.1984 25.5996 53.4049 25.8376C52.6114 26.0756 51.7752 25.6252 51.5372 24.8317C51.4449 24.5239 51.3458 24.2189 51.2402 23.917C50.9666 23.1351 51.3787 22.2794 52.1606 22.0058ZM8.10132 28.984C8.92955 29.0023 9.58613 29.6885 9.56783 30.5167C9.56428 30.6774 9.5625 30.8385 9.5625 31C9.5625 31.1615 9.56428 31.3226 9.56783 31.4833C9.58613 32.3115 8.92955 32.9977 8.10132 33.016C7.2731 33.0343 6.58686 32.3777 6.56856 31.5495C6.56453 31.3668 6.5625 31.1836 6.5625 31C6.5625 30.8164 6.56453 30.6332 6.56856 30.4505C6.58686 29.6223 7.2731 28.9657 8.10132 28.984ZM53.8987 28.984C54.7269 28.9657 55.4131 29.6223 55.4314 30.4505C55.4355 30.6332 55.4375 30.8164 55.4375 31C55.4375 31.1836 55.4355 31.3668 55.4314 31.5495C55.4131 32.3777 54.7269 33.0343 53.8987 33.016C53.0705 32.9977 52.4139 32.3115 52.4322 31.4833C52.4357 31.3226 52.4375 31.1615 52.4375 31C52.4375 30.8385 52.4357 30.6774 52.4322 30.5167C52.4139 29.6885 53.0705 29.0023 53.8987 28.984ZM8.59511 36.1624C9.38863 35.9244 10.2248 36.3748 10.4628 37.1683C10.5551 37.4762 10.6542 37.7811 10.7598 38.083C11.0334 38.8649 10.6213 39.7206 9.83939 39.9942C9.05745 40.2678 8.20176 39.8557 7.92814 39.0738C7.80761 38.7293 7.69457 38.3814 7.58921 38.0301C7.35124 37.2365 7.8016 36.4004 8.59511 36.1624ZM53.4049 36.1624C54.1984 36.4004 54.6488 37.2365 54.4108 38.0301C54.3054 38.3814 54.1924 38.7293 54.0719 39.0738C53.7982 39.8557 52.9425 40.2678 52.1606 39.9942C51.3787 39.7206 50.9666 38.8649 51.2402 38.083C51.3458 37.7811 51.4449 37.4762 51.5372 37.1683C51.7752 36.3748 52.6114 35.9244 53.4049 36.1624ZM11.2882 42.8313C11.9687 42.3589 12.9034 42.5277 13.3757 43.2082C13.5588 43.4719 13.7476 43.7313 13.942 43.9863C14.4443 44.645 14.3175 45.5863 13.6588 46.0886C13 46.5909 12.0588 46.4641 11.5565 45.8054C11.335 45.5149 11.1198 45.2193 10.9112 44.9188C10.4389 44.2383 10.6076 43.3036 11.2882 42.8313ZM50.7118 42.8313C51.3924 43.3036 51.5611 44.2383 51.0888 44.9188C50.8802 45.2193 50.665 45.5149 50.4435 45.8054C49.9412 46.4641 49 46.591 48.3412 46.0886C47.6825 45.5863 47.5557 44.645 48.058 43.9863C48.2524 43.7313 48.4412 43.4719 48.6243 43.2082C49.0966 42.5277 50.0313 42.3589 50.7118 42.8313ZM15.9114 48.3412C16.4137 47.6825 17.355 47.5557 18.0137 48.058C18.2687 48.2524 18.5281 48.4412 18.7918 48.6243C19.4723 49.0966 19.6411 50.0313 19.1687 50.7118C18.6964 51.3924 17.7617 51.5611 17.0812 51.0888C16.7807 50.8802 16.4851 50.665 16.1946 50.4435C15.5359 49.9412 15.4091 49 15.9114 48.3412ZM46.0886 48.3412C46.5909 49 46.4641 49.9412 45.8054 50.4435C45.5149 50.665 45.2193 50.8802 44.9188 51.0888C44.2383 51.5611 43.3036 51.3924 42.8313 50.7118C42.3589 50.0313 42.5277 49.0966 43.2082 48.6243C43.4719 48.4412 43.7313 48.2524 43.9863 48.058C44.645 47.5557 45.5863 47.6825 46.0886 48.3412ZM22.0058 52.1606C22.2794 51.3787 23.1351 50.9666 23.917 51.2402C24.2189 51.3458 24.5239 51.4449 24.8317 51.5372C25.6252 51.7752 26.0756 52.6114 25.8376 53.4049C25.5996 54.1984 24.7635 54.6488 23.9699 54.4108C23.6186 54.3054 23.2707 54.1924 22.9262 54.0719C22.1443 53.7982 21.7322 52.9425 22.0058 52.1606ZM39.9942 52.1606C40.2678 52.9426 39.8557 53.7982 39.0738 54.0719C38.7293 54.1924 38.3814 54.3054 38.0301 54.4108C37.2365 54.6488 36.4004 54.1984 36.1624 53.4049C35.9244 52.6114 36.3748 51.7752 37.1683 51.5372C37.4762 51.4449 37.7811 51.3458 38.083 51.2402C38.8649 50.9666 39.7206 51.3787 39.9942 52.1606ZM28.984 53.8987C29.0023 53.0705 29.6885 52.4139 30.5167 52.4322C30.6774 52.4357 30.8385 52.4375 31 52.4375C31.1615 52.4375 31.3226 52.4357 31.4833 52.4322C32.3115 52.4139 32.9977 53.0705 33.016 53.8987C33.0343 54.7269 32.3777 55.4131 31.5495 55.4314C31.3668 55.4355 31.1836 55.4375 31 55.4375C30.8164 55.4375 30.6332 55.4355 30.4505 55.4314C29.6223 55.4131 28.9657 54.7269 28.984 53.8987ZM36.8876 39.476C36.7836 39.892 36.6536 39.996 36.2116 39.996H25.0836C24.7456 39.996 24.6676 39.918 24.6676 39.606V38.436C24.6676 38.15 24.6936 38.02 24.9276 37.916C25.5256 37.63 26.2016 37.162 26.7996 36.564C27.6576 35.706 28.1776 34.77 28.1776 33.678C28.1776 33.496 28.1776 33.288 28.1516 33.106H25.2916C25.0056 33.106 24.9276 32.976 24.9276 32.742V31.442C24.9276 31.208 25.0316 31.104 25.2656 31.104H27.6576C27.5938 30.909 27.5274 30.7118 27.4603 30.5128C27.0625 29.3325 26.6436 28.0897 26.6436 26.866C26.6436 23.486 30.1276 22.004 33.0136 22.004C34.0276 22.004 35.0416 22.134 35.9516 22.368C36.1336 22.42 36.2896 22.628 36.2896 22.836V26.84C36.2896 27.074 36.1596 27.204 35.9256 27.204H35.0676C34.8856 27.204 34.7296 27.1 34.6776 26.866L34.3916 25.41C34.2876 24.942 33.8976 24.292 32.7796 24.292C31.3496 24.292 30.6996 25.306 30.6996 26.684C30.6996 27.6712 31.0341 28.6955 31.3696 29.7227C31.5201 30.1836 31.6708 30.6451 31.7916 31.104H35.1456C35.4316 31.104 35.5616 31.156 35.5616 31.468V32.664C35.5616 33.002 35.4836 33.106 35.1716 33.106H32.0776C32.0776 33.366 32.0516 33.6 31.9996 33.834C31.8176 34.692 31.2976 35.342 30.5436 35.992L29.1656 37.162H36.8096C37.2256 37.162 37.4076 37.292 37.3036 37.708L36.8876 39.476Z" fill="#9298B0"/>
</svg>
