<svg width="78" height="60" viewBox="0 0 78 60" fill="none" xmlns="http://www.w3.org/2000/svg">
<path fill-rule="evenodd" clip-rule="evenodd" d="M27.1795 3.59448C20.547 3.59448 15.1703 8.97116 15.1703 15.6036C15.1703 22.2361 20.547 27.6128 27.1795 27.6128C33.8119 27.6128 39.1886 22.2361 39.1886 15.6036C39.1886 8.97116 33.8119 3.59448 27.1795 3.59448ZM12.1703 15.6036C12.1703 7.31431 18.8901 0.594482 27.1795 0.594482C35.4688 0.594482 42.1886 7.31431 42.1886 15.6036C42.1886 23.893 35.4688 30.6128 27.1795 30.6128C18.8901 30.6128 12.1703 23.893 12.1703 15.6036ZM4.74611 40.5379C7.56088 37.7232 11.3785 36.1418 15.3592 36.1418H39.0002C42.9809 36.1418 46.7985 37.7232 49.6133 40.5379C52.428 43.3527 54.0093 47.1703 54.0093 51.151V57.9056C54.0093 58.734 53.3378 59.4056 52.5093 59.4056C51.6809 59.4056 51.0093 58.734 51.0093 57.9056V51.151C51.0093 47.966 49.7441 44.9114 47.4919 42.6592C45.2398 40.4071 42.1852 39.1418 39.0002 39.1418H15.3592C12.1742 39.1418 9.11959 40.4071 6.86743 42.6592C4.61528 44.9114 3.35004 47.966 3.35004 51.151V57.9056C3.35004 58.734 2.67846 59.4056 1.85004 59.4056C1.02161 59.4056 0.350037 58.734 0.350037 57.9056V51.151C0.350037 47.1703 1.93135 43.3527 4.74611 40.5379ZM77.2107 23.4188C77.7965 22.833 77.7965 21.8833 77.2107 21.2975C76.6249 20.7117 75.6751 20.7117 75.0894 21.2975L62.6409 33.746L56.947 28.0521C56.3612 27.4663 55.4114 27.4663 54.8256 28.0521C54.2398 28.6379 54.2398 29.5876 54.8256 30.1734L61.5802 36.928C62.166 37.5137 63.1157 37.5137 63.7015 36.928L77.2107 23.4188Z" fill="#9298B0"/>
</svg>
