<svg width="88" height="88" viewBox="0 0 88 88" fill="none" xmlns="http://www.w3.org/2000/svg">
<path fill-rule="evenodd" clip-rule="evenodd" d="M32.1795 17.5945C25.547 17.5945 20.1703 22.9712 20.1703 29.6036C20.1703 36.2361 25.547 41.6128 32.1795 41.6128C38.8119 41.6128 44.1886 36.2361 44.1886 29.6036C44.1886 22.9712 38.8119 17.5945 32.1795 17.5945ZM17.1703 29.6036C17.1703 21.3143 23.8901 14.5945 32.1795 14.5945C40.4688 14.5945 47.1886 21.3143 47.1886 29.6036C47.1886 37.893 40.4688 44.6128 32.1795 44.6128C23.8901 44.6128 17.1703 37.893 17.1703 29.6036ZM9.74611 54.5379C12.5609 51.7232 16.3785 50.1418 20.3592 50.1418H44.0002C47.9809 50.1418 51.7985 51.7232 54.6133 54.5379C57.428 57.3527 59.0093 61.1703 59.0093 65.151V71.9056C59.0093 72.734 58.3378 73.4056 57.5093 73.4056C56.6809 73.4056 56.0093 72.734 56.0093 71.9056V65.151C56.0093 61.966 54.7441 58.9114 52.4919 56.6592C50.2398 54.4071 47.1852 53.1418 44.0002 53.1418H20.3592C17.1742 53.1418 14.1196 54.4071 11.8674 56.6592C9.61528 58.9114 8.35004 61.966 8.35004 65.151V71.9056C8.35004 72.734 7.67846 73.4056 6.85004 73.4056C6.02161 73.4056 5.35004 72.734 5.35004 71.9056V65.151C5.35004 61.1703 6.93135 57.3527 9.74611 54.5379ZM82.2107 37.4188C82.7965 36.833 82.7965 35.8833 82.2107 35.2975C81.6249 34.7117 80.6751 34.7117 80.0894 35.2975L67.6409 47.746L61.947 42.0521C61.3612 41.4663 60.4114 41.4663 59.8256 42.0521C59.2398 42.6379 59.2398 43.5876 59.8256 44.1734L66.5802 50.928C67.166 51.5137 68.1157 51.5137 68.7015 50.928L82.2107 37.4188Z" fill="#7c83a0"/>
</svg>
