<svg width="88" height="88" viewBox="0 0 88 88" fill="none" xmlns="http://www.w3.org/2000/svg">
<path fill-rule="evenodd" clip-rule="evenodd" d="M26.6001 13.5C24.664 13.5 22.8072 14.2691 21.4382 15.6381C20.0692 17.0071 19.3 18.8639 19.3 20.8V67.2002C19.3 69.1363 20.0692 70.993 21.4382 72.3621C22.8072 73.7311 24.664 74.5002 26.6001 74.5002H61.4002C63.3363 74.5002 65.1931 73.7311 66.5621 72.3621C67.9311 70.993 68.7002 69.1363 68.7002 67.2002V35.3001C68.7002 35.2479 68.6975 35.1961 68.6921 35.1447C68.6641 34.8724 68.5633 34.6217 68.4094 34.4125C68.3646 34.3515 68.315 34.2936 68.2609 34.2394L58.1108 24.0894L47.9608 13.9393C47.9144 13.8929 47.8652 13.8498 47.8137 13.8103C47.5636 13.6179 47.2512 13.5027 46.912 13.5C46.908 13.5 46.9041 13.5 46.9001 13.5H46.9H26.6001ZM45.4 16.5H26.6001C25.4596 16.5 24.3659 16.953 23.5595 17.7594C22.7531 18.5659 22.3 19.6596 22.3 20.8V67.2002C22.3 68.3406 22.7531 69.4343 23.5595 70.2407C24.3659 71.0472 25.4596 71.5002 26.6001 71.5002H61.4002C62.5406 71.5002 63.6343 71.0472 64.4408 70.2407C65.2472 69.4343 65.7002 68.3406 65.7002 67.2002V36.8001H46.9C46.0716 36.8001 45.4 36.1285 45.4 35.3001V16.5ZM63.5789 33.8001L55.9895 26.2107L48.4 18.6212V33.8001H63.5789Z" fill="#7c83a0"/>
</svg>
