<svg width="88" height="88" viewBox="0 0 88 88" fill="none" xmlns="http://www.w3.org/2000/svg">
<path fill-rule="evenodd" clip-rule="evenodd" d="M71.3107 16.6894C71.6452 17.0239 71.7887 17.4772 71.7411 17.9135C71.7277 18.037 71.6989 18.1592 71.6548 18.2769L53.2908 70.7456C53.0876 71.3261 52.5507 71.7237 51.9362 71.7488C51.3216 71.7739 50.7541 71.4213 50.5043 70.8592L40.2386 47.7614L17.1408 37.4958C16.5788 37.246 16.2262 36.6784 16.2513 36.0639C16.2763 35.4494 16.674 34.9124 17.2545 34.7093L69.7231 16.3452C69.8406 16.3013 69.9624 16.2725 70.0856 16.259C70.1764 16.249 70.2674 16.2474 70.3576 16.2539C70.7048 16.2787 71.0451 16.4239 71.3107 16.6894ZM64.5415 21.3372L21.8166 36.2909L41.0428 44.8359L64.5415 21.3372ZM43.1641 46.9572L66.6628 23.4586L51.7091 66.1834L43.1641 46.9572Z" fill="#7c83a0"/>
</svg>
