<svg width="152" height="152" viewBox="0 0 152 152" fill="none" xmlns="http://www.w3.org/2000/svg">
<path d="M54.5381 42.0011C52.7409 39.5485 51.6837 36.525 51.6837 33.2689C51.6837 25.1076 58.3016 18.4897 66.4629 18.4897C70.3533 18.4897 73.9053 19.9909 76.5482 22.4647" stroke="#7c83a0" stroke-width="4" stroke-linecap="round" stroke-linejoin="round"/>
<path d="M88.0087 52.5305C88.0087 54.4757 87.6281 56.3363 86.9515 58.0278" stroke="#7c83a0" stroke-width="4" stroke-linecap="round" stroke-linejoin="round"/>
<path d="M61.3047 61.2839C59.5075 58.8312 58.4292 55.8077 58.4292 52.5305C58.4292 45.3841 63.5036 39.4217 70.2272 38.0474" stroke="#7c83a0" stroke-width="4" stroke-linecap="round" stroke-linejoin="round"/>
<path d="M90.6526 52.5305C98.8149 52.5305 105.432 45.9137 105.432 37.7513C105.432 29.589 98.8149 22.9722 90.6526 22.9722C82.4903 22.9722 75.8734 29.589 75.8734 37.7513C75.8734 45.9137 82.4903 52.5305 90.6526 52.5305Z" stroke="#7c83a0" stroke-width="4" stroke-linecap="round" stroke-linejoin="round"/>
<path d="M121.247 99.7225L76 54.5181L30.7533 99.7225" stroke="#7c83a0" stroke-width="4" stroke-linecap="round" stroke-linejoin="round"/>
<path d="M107.158 85.5264V133.511H44.8405V85.5264" stroke="#7c83a0" stroke-width="4" stroke-linecap="round" stroke-linejoin="round"/>
<path d="M64.0014 116.392C63.7577 116.392 63.514 116.148 63.514 115.904V114.442C63.514 114.3 63.6562 114.056 63.7983 114.016C64.7121 113.569 65.8289 112.757 66.9051 111.884C68.9965 110.178 70.9256 107.66 70.9256 105.223C70.9256 104.492 70.7834 103.721 70.6413 102.888H64.4278C64.042 102.888 63.7577 102.604 63.7577 102.218V100.817C63.7577 100.431 64.042 100.147 64.4278 100.147H69.9306C69.0981 97.3856 68.0422 94.5225 68.0422 91.9437C68.0219 86.2784 73.4231 82.7859 78.5198 82.7859C80.4692 82.7859 82.3982 83.1311 84.0632 83.659C84.4084 83.7606 84.6927 84.1464 84.6927 84.5322V90.502C84.6927 90.9284 84.449 91.1721 84.0226 91.1721H82.8652C82.52 91.1721 82.2357 90.969 82.1342 90.5426L81.6469 88.3496C81.3626 86.9891 80.1849 86.0145 78.0528 86.0145C74.4587 86.0145 72.4282 88.2481 72.4282 91.3548C72.4282 93.8727 73.7886 97.081 74.6618 100.086H81.2205C81.6063 100.086 81.8905 100.37 81.8905 100.756V102.157C81.8905 102.543 81.6063 102.827 81.2205 102.827H75.2506C75.2912 103.254 75.3522 103.701 75.3522 104.086C75.3115 107.193 73.8495 109.183 71.9002 110.99L70.2961 112.493H84.9567C85.3019 112.493 85.4846 112.777 85.4034 113.122L84.3881 115.985C84.3475 116.188 84.1445 116.331 83.9414 116.331H64.0014V116.392Z" fill="#7c83a0"/>
<path d="M99.3217 77.8178V61.5586" stroke="#7c83a0" stroke-width="4" stroke-linecap="round" stroke-linejoin="round"/>
</svg>
