<svg width="88" height="88" viewBox="0 0 88 88" fill="none" xmlns="http://www.w3.org/2000/svg">
<path fill-rule="evenodd" clip-rule="evenodd" d="M67.621 16.9419C68.1412 16.2971 68.0402 15.3527 67.3954 14.8326C66.7506 14.3124 65.8063 14.4135 65.2861 15.0582L50.0125 33.9912L35.5625 30.4175C35.0739 30.2967 34.5573 30.429 34.1868 30.7697L17.6518 45.9819C17.0422 46.5428 17.0026 47.4918 17.5635 48.1014C18.1244 48.7111 19.0733 48.7506 19.683 48.1897L35.6248 33.5233L50.2199 37.1328C50.7857 37.2728 51.3814 37.0722 51.7474 36.6185L67.621 16.9419ZM69.3323 31.0076C70.1608 31.0076 70.8323 31.6792 70.8323 32.5076V72C70.8323 72.8285 70.1608 73.5 69.3323 73.5C68.5039 73.5 67.8323 72.8285 67.8323 72V32.5076C67.8323 31.6792 68.5039 31.0076 69.3323 31.0076ZM64.5081 42.6251C64.5081 41.7966 63.8366 41.1251 63.0081 41.1251C62.1797 41.1251 61.5081 41.7966 61.5081 42.6251L61.5081 72C61.5081 72.8284 62.1797 73.5 63.0081 73.5C63.8366 73.5 64.5081 72.8284 64.5081 72L64.5081 42.6251ZM51.8597 43.992C51.8597 43.1636 51.1881 42.492 50.3597 42.492C49.5313 42.492 48.8597 43.1636 48.8597 43.992L48.8597 72C48.8597 72.8284 49.5313 73.5 50.3597 73.5C51.1881 73.5 51.8597 72.8284 51.8597 72V43.992ZM44.0355 44.5001C44.8639 44.5001 45.5355 45.1716 45.5355 46.0001L45.5355 72C45.5355 72.8284 44.8639 73.5 44.0355 73.5C43.207 73.5 42.5355 72.8284 42.5355 72L42.5355 46.0001C42.5355 45.1716 43.207 44.5001 44.0355 44.5001ZM39.2113 49.7343C39.2113 48.9059 38.5397 48.2343 37.7113 48.2343C36.8828 48.2343 36.2113 48.9059 36.2113 49.7343V72.0001C36.2113 72.8285 36.8828 73.5001 37.7113 73.5001C38.5397 73.5001 39.2113 72.8285 39.2113 72.0001V49.7343ZM31.387 52C32.2155 52 32.887 52.6716 32.887 53.5L32.887 72.0001C32.887 72.8285 32.2155 73.5001 31.387 73.5001C30.5586 73.5001 29.887 72.8285 29.887 72.0001L29.887 53.5C29.887 52.6716 30.5586 52 31.387 52ZM20.2386 55.4765C20.2386 54.6481 19.567 53.9765 18.7386 53.9765C17.9102 53.9765 17.2386 54.6481 17.2386 55.4765L17.2386 72C17.2386 72.8285 17.9102 73.5 18.7386 73.5C19.567 73.5 20.2386 72.8285 20.2386 72L20.2386 55.4765ZM26.5628 55.4765C26.5628 54.6481 25.8912 53.9765 25.0628 53.9765C24.2344 53.9765 23.5628 54.6481 23.5628 55.4765L23.5628 72C23.5628 72.8285 24.2344 73.5 25.0628 73.5C25.8912 73.5 26.5628 72.8285 26.5628 72L26.5628 55.4765ZM56.6839 45.9373C57.5123 45.9373 58.1839 46.6089 58.1839 47.4373V72C58.1839 72.8284 57.5123 73.5 56.6839 73.5C55.8555 73.5 55.1839 72.8284 55.1839 72V47.4373C55.1839 46.6089 55.8555 45.9373 56.6839 45.9373Z" fill="#7c83a0"/>
</svg>
