<svg width="75" height="66" viewBox="0 0 75 66" fill="none" xmlns="http://www.w3.org/2000/svg">
<path fill-rule="evenodd" clip-rule="evenodd" d="M38.5049 0.628314C37.9192 0.0431879 36.9703 0.0431879 36.3846 0.628314L12.1329 24.8574C11.862 24.9991 11.6398 25.2211 11.4979 25.4918L0.63756 36.342C0.0515004 36.9275 0.0510571 37.8772 0.63657 38.4633C1.22208 39.0494 2.17183 39.0498 2.75789 38.4643L11.3272 29.903V64.0972C11.3272 64.9256 11.9988 65.5972 12.8272 65.5972H62.0607C62.8891 65.5972 63.5607 64.9256 63.5607 64.0972V29.9014L72.1316 38.4643C72.7177 39.0498 73.6674 39.0494 74.2529 38.4633C74.8384 37.8772 74.838 36.9275 74.2519 36.342L63.3883 25.4885C63.2469 25.2204 63.0266 25.0003 62.7584 24.8591L57.37 19.4758V7.25195C57.37 6.42352 56.6984 5.75195 55.87 5.75195C55.0415 5.75195 54.37 6.42352 54.37 7.25195V16.4786L38.5049 0.628314ZM54.8079 21.1567L54.8117 21.1606L60.5607 26.9042V62.5972H14.3272V26.9058L37.4447 3.8098L54.8079 21.1567ZM41.4459 25.657C42.5407 24.5394 44.0577 23.9827 45.6374 24.0325L43.2055 26.5142L43.2055 26.5142L43.1977 26.5223C42.1354 27.6227 42.3074 29.2928 43.3149 30.267L43.3187 30.2706L46.1447 33.0243L46.1509 33.0303C47.1134 33.9574 48.8091 34.1835 49.9127 33.0458L49.9174 33.041L52.2695 30.6403C52.3118 32.1045 51.8268 33.5123 50.8451 34.5894C50.8065 34.6213 50.7694 34.6554 50.7337 34.6916C49.2557 36.1915 47.0497 36.6803 44.9177 36.0477C44.889 36.0392 44.8601 36.0315 44.831 36.0247L44.337 35.9098C43.8265 35.7909 43.291 35.9472 42.9245 36.322L33.7362 45.718C33.3659 46.0966 33.2228 46.6424 33.3596 47.1541L33.4254 47.4005C33.4318 47.4245 33.4388 47.4483 33.4464 47.4719C34.1249 49.5837 33.7043 51.7731 32.2706 53.2414C31.2284 54.3054 29.7891 54.8467 28.2702 54.8216L30.5896 52.4536C31.7085 51.3289 31.4324 49.6281 30.4684 48.6959L30.4647 48.6924L27.6387 45.9387L27.6325 45.9327C26.6713 45.007 25.0064 44.7841 23.9023 45.8854L23.8902 45.8977L21.4905 48.3472C21.3953 46.7832 21.9068 45.2805 22.983 44.1901L22.9885 44.1845C24.4205 42.7183 26.6004 42.2445 28.7504 42.8825C28.7715 42.8888 28.7928 42.8946 28.8142 42.8999L28.9459 42.9328C29.4629 43.0617 30.0095 42.9067 30.3819 42.5255L39.8172 32.8667C40.1997 32.4751 40.3385 31.9061 40.1793 31.3823C39.5456 29.2975 39.9967 27.1279 41.4429 25.66L41.4459 25.657ZM44.4683 39.0341C47.362 39.7571 50.4838 39.1019 52.7148 36.9513C52.772 36.9074 52.8265 36.8591 52.8778 36.8063C55.4431 34.1667 55.8928 30.3141 54.4795 27.0502C54.281 26.5918 53.8674 26.2623 53.3763 26.1713C52.8852 26.0803 52.381 26.2397 52.0315 26.5964L48.034 30.6766L45.6261 28.3304L49.646 24.228C49.9929 23.874 50.1426 23.3715 50.0458 22.8853C49.9491 22.3992 49.6184 21.9923 49.1624 21.7981C45.8546 20.3894 41.9156 20.8918 39.3043 23.5561C37.2215 25.6713 36.5282 28.6065 37.0857 31.3697L28.8382 39.8125C25.9975 39.214 22.9747 39.9072 20.8452 42.0854C18.2383 44.7289 17.8629 48.6536 19.3489 51.9072C19.5542 52.3567 19.9678 52.6763 20.4546 52.7615C20.9414 52.8468 21.439 52.6867 21.7848 52.3337L25.7495 48.2866L28.1657 50.6409L24.2359 54.6531C23.8871 55.0092 23.738 55.5153 23.838 56.0036C23.938 56.492 24.274 56.8987 24.7347 57.0891C27.996 58.4366 31.8496 57.9595 34.4149 55.3395L34.4162 55.3382C36.5726 53.1304 37.1863 50.0417 36.4851 47.1978L44.4683 39.0341Z" fill="#7C83A0"/>
</svg>
