<svg width="88" height="88" viewBox="0 0 88 88" fill="none" xmlns="http://www.w3.org/2000/svg">
<path fill-rule="evenodd" clip-rule="evenodd" d="M72 44C72 59.464 59.464 72 44 72C28.536 72 16 59.464 16 44C16 28.536 28.536 16 44 16C59.464 16 72 28.536 72 44ZM75 44C75 61.1208 61.1208 75 44 75C26.8792 75 13 61.1208 13 44C13 26.8792 26.8792 13 44 13C61.1208 13 75 26.8792 75 44ZM58.4783 36.0349C58.4824 36.4526 58.3348 36.8571 58.0636 37.173C57.7937 37.4875 57.4199 37.6928 57.0117 37.752C55.3605 37.9709 53.7392 38.3759 52.1788 38.9593L52.1754 38.9606C51.8695 39.0758 51.5372 39.1007 51.2177 39.0324C50.8994 38.9644 50.6067 38.8066 50.3743 38.5772L48.3384 36.5373C47.8606 36.0586 47.1217 35.9588 46.5341 36.2936C42.2792 38.7178 38.7565 42.2476 36.3375 46.5103C36.0047 47.0966 36.1041 47.833 36.5804 48.3102L38.6138 50.3476L38.6163 50.3502C38.8452 50.5831 39.0033 50.8771 39.0716 51.1977C39.1401 51.5195 39.115 51.8541 38.9996 52.162L38.9983 52.1654C38.4162 53.7285 38.0121 55.3525 37.7938 57.0064C37.7339 57.4223 37.5243 57.8013 37.2052 58.0721C36.8848 58.3441 36.4763 58.4883 36.0575 58.4779C36.0451 58.4776 36.0327 58.4774 36.0202 58.4774H31.203L31.1969 58.4774C30.959 58.4784 30.7234 58.4296 30.5053 58.334C30.2871 58.2384 30.091 58.0981 29.9297 57.922C29.7684 57.7458 29.6455 57.5376 29.5689 57.3107C29.4935 57.0875 29.4648 56.8511 29.4844 56.6162C29.9978 51.9035 31.6062 47.377 34.1804 43.3997L34.1804 43.3997L34.1879 43.388C36.5354 39.6863 39.6674 36.5481 43.3613 34.1962L43.3614 34.1963L43.3724 34.1891C47.3599 31.6008 51.8992 29.9892 56.623 29.4845C56.8559 29.4648 57.0905 29.4931 57.3122 29.568C57.537 29.6439 57.7439 29.7659 57.9195 29.9265C58.0951 30.0871 58.2356 30.2828 58.3319 30.5012C58.4281 30.7194 58.4779 30.9553 58.4782 31.194V36.0201L58.4783 36.0349ZM60.34 39.1269C61.0834 38.2609 61.4875 37.1546 61.4782 36.0135V31.1933V31.1919C61.4776 30.5373 61.341 29.89 61.077 29.291C60.8129 28.6921 60.4272 28.1546 59.9443 27.7128C59.4613 27.2711 58.8916 26.9348 58.2714 26.7255C57.6512 26.5162 56.9943 26.4385 56.3424 26.4976L56.319 26.4999C51.123 27.0527 46.1301 28.8237 41.7445 31.6692C37.6832 34.2562 34.2397 37.7066 31.6581 41.7755C28.8286 46.1493 27.0621 51.1267 26.5002 56.3082L26.4975 56.3351C26.4385 56.989 26.5165 57.6481 26.7264 58.2701C26.9364 58.8922 27.2738 59.4637 27.7171 59.9479C28.1605 60.4321 28.7001 60.8184 29.3014 61.0819C29.9018 61.3449 30.5505 61.4796 31.206 61.4774H36.0033C37.1523 61.501 38.2703 61.1032 39.1468 60.3591C40.0284 59.6107 40.6041 58.5642 40.7653 57.4191L40.7654 57.4191L40.7671 57.4058C40.9556 55.9736 41.3051 54.5675 41.809 53.2141C42.1251 52.3706 42.1934 51.4542 42.0058 50.5731C41.8182 49.6915 41.3822 48.8819 40.749 48.2403L40.7431 48.2344L39.5292 47.0181C41.446 43.9804 44.013 41.4079 47.0436 39.4869L48.2542 40.6999L48.2602 40.7058C48.9005 41.3402 49.7093 41.7778 50.5908 41.9662C51.4717 42.1544 52.388 42.0858 53.2311 41.7687C54.5813 41.264 55.9842 40.9139 57.4128 40.7251L57.4129 40.7252L57.4267 40.7232C58.5595 40.5628 59.5949 39.9951 60.34 39.1269Z" fill="#7c83a0"/>
</svg>
