<svg width="24" height="24" viewBox="0 0 24 24" fill="none" xmlns="http://www.w3.org/2000/svg">
<path d="M17.2117 20.996C17.6537 20.996 17.7837 20.892 17.8877 20.476L18.3037 18.708C18.4077 18.292 18.2257 18.162 17.8097 18.162H10.1657L11.5437 16.992C12.2977 16.342 12.8177 15.692 12.9997 14.834C13.0517 14.6 13.0777 14.366 13.0777 14.106H16.1717C16.4837 14.106 16.5617 14.002 16.5617 13.664V12.468C16.5617 12.156 16.4317 12.104 16.1457 12.104H12.7917C12.4017 10.622 11.6997 9.11403 11.6997 7.68403C11.6997 6.30603 12.3497 5.29203 13.7797 5.29203C14.8977 5.29203 15.2877 5.94203 15.3917 6.41003L15.6777 7.86603C15.7297 8.10003 15.8857 8.20403 16.0677 8.20403H16.9257C17.1597 8.20403 17.2897 8.07403 17.2897 7.84003V3.83603C17.2897 3.62803 17.1337 3.42003 16.9517 3.36803C16.0417 3.13403 15.0277 3.00403 14.0137 3.00403C11.1277 3.00403 7.64366 4.48603 7.64366 7.86603C7.64366 9.29603 8.21566 10.752 8.65766 12.104H6.26566C6.03166 12.104 5.92766 12.208 5.92766 12.442V13.742C5.92766 13.976 6.00566 14.106 6.29166 14.106H9.15166C9.17766 14.288 9.17766 14.496 9.17766 14.678C9.17766 15.77 8.65766 16.706 7.79966 17.564C7.20166 18.162 6.52566 18.63 5.92766 18.916C5.69366 19.02 5.66766 19.15 5.66766 19.436V20.606C5.66766 20.918 5.74566 20.996 6.08366 20.996H17.2117Z" fill="#243060"/>
</svg>
