<svg width="88" height="88" viewBox="0 0 88 88" fill="none" xmlns="http://www.w3.org/2000/svg">
<path fill-rule="evenodd" clip-rule="evenodd" d="M34.5212 28.8178C38.291 28.8157 41.36 25.7454 41.36 21.9752C41.36 18.2037 38.2889 15.1249 34.5174 15.1249C30.7459 15.1249 27.6748 18.196 27.6748 21.9675C27.6748 25.7377 30.7438 28.8157 34.5212 28.8178ZM34.5251 18.2883C36.5571 18.2883 38.2119 19.9432 38.2119 21.9752C38.2119 24.0072 36.5571 25.662 34.5251 25.662C32.4931 25.662 30.8383 24.0072 30.8383 21.9752C30.8383 19.9432 32.4931 18.2883 34.5251 18.2883ZM53.475 28.8178C57.2465 28.8178 60.3176 25.7467 60.3253 21.9752C60.3253 18.196 57.2542 15.1249 53.475 15.1249C49.6958 15.1249 46.6247 18.196 46.6247 21.9675C46.6247 25.739 49.6958 28.8178 53.475 28.8178ZM53.475 18.2883C55.507 18.2883 57.1618 19.9432 57.1618 21.9752C57.1618 24.0072 55.507 25.662 53.475 25.662C51.443 25.662 49.7881 24.0072 49.7881 21.9752C49.7881 19.9432 51.443 18.2883 53.475 18.2883ZM28.1982 31.9735H59.7942L59.7865 31.9658C64.1429 31.9658 67.6835 35.5064 67.6835 39.8629V49.3455C67.6835 51.9625 65.5592 54.0869 62.9422 54.0869C62.388 54.0869 61.8569 53.9945 61.3643 53.8175V72.8751H45.5702V41.4562H42.4067V72.8751H26.6126V53.8175C26.12 53.9868 25.5889 54.0869 25.0347 54.0869C23.7724 54.0869 22.5794 53.5866 21.6865 52.6937C20.7937 51.8009 20.3011 50.6078 20.3011 49.3455V39.8706C20.3011 35.5141 23.8417 31.9735 28.1982 31.9735ZM62.9499 50.9234C63.8197 50.9234 64.5278 50.2153 64.5278 49.3455L64.5355 49.3609V39.8783C64.5355 37.269 62.4034 35.137 59.7942 35.137H28.1982C25.5812 35.137 23.4568 37.2613 23.4568 39.8783V49.3532C23.4568 49.7766 23.6185 50.1691 23.9187 50.4693C24.2188 50.7695 24.6114 50.9311 25.0347 50.9311C25.9045 50.9311 26.6126 50.223 26.6126 49.3532V38.2927H29.7683V49.3532V69.7117H32.9318V49.3455H36.0875V69.7117H39.251V38.2927H48.7259V69.704H51.8894V49.3455H55.0451V69.704H58.2086V38.285H61.372V49.3455C61.372 50.2153 62.0802 50.9234 62.9499 50.9234Z" fill="#7c83a0"/>
</svg>
