<svg width="24" height="24" viewBox="0 0 24 24" fill="none" xmlns="http://www.w3.org/2000/svg">
<path d="M9.53045 16.9443L8.03968 16.9443C7.90129 16.9449 7.7643 16.9165 7.6375 16.8609C7.51069 16.8054 7.39687 16.7239 7.30331 16.6217C7.20975 16.5196 7.13852 16.3989 7.09418 16.2676C7.04985 16.1362 7.03338 15.997 7.04584 15.8589C7.21199 14.3268 7.7345 12.855 8.57139 11.5619C9.33433 10.3589 10.3523 9.33895 11.5529 8.57449C12.8493 7.73301 14.3253 7.20935 15.8612 7.04591C15.9987 7.03347 16.1372 7.04983 16.2679 7.09396C16.3987 7.13809 16.5188 7.20901 16.6207 7.30222C16.7226 7.39542 16.804 7.50887 16.8598 7.63533C16.9155 7.76179 16.9444 7.8985 16.9445 8.03675L16.9445 9.53048C16.9469 9.77212 16.8615 10.0064 16.7043 10.1896C16.547 10.3728 16.3286 10.4925 16.0898 10.5263C15.6127 10.5893 15.1443 10.7063 14.6935 10.8748C14.5156 10.9418 14.3223 10.9563 14.1365 10.9166C13.9507 10.8769 13.7801 10.7846 13.645 10.6508L13.0139 10.0184C11.7698 10.7272 10.7397 11.7593 10.0323 13.0059L10.6634 13.6382C10.797 13.7736 10.8891 13.9445 10.9287 14.1307C10.9684 14.3169 10.9539 14.5106 10.887 14.6888C10.7188 15.1406 10.6021 15.6099 10.5392 16.0879C10.5051 16.3298 10.3836 16.5507 10.1976 16.7086C10.0116 16.8665 9.77415 16.9504 9.53045 16.9443Z" fill="#243060"/>
<rect x="3.40002" y="3.40002" width="17.2" height="17.2" rx="8.6" stroke="#243060" stroke-width="2"/>
</svg>
