<svg width="20" height="20" viewBox="0 0 20 20" fill="none" xmlns="http://www.w3.org/2000/svg">
<path d="M7.53045 14.9443L6.03968 14.9443C5.90129 14.9449 5.7643 14.9165 5.6375 14.8609C5.51069 14.8054 5.39687 14.7239 5.30331 14.6217C5.20975 14.5196 5.13852 14.3989 5.09418 14.2676C5.04985 14.1362 5.03338 13.997 5.04584 13.8589C5.21199 12.3268 5.7345 10.855 6.57139 9.56195C7.33433 8.35891 8.35227 7.33895 9.55292 6.57449C10.8493 5.73301 12.3253 5.20935 13.8612 5.04591C13.9987 5.03347 14.1372 5.04983 14.2679 5.09396C14.3987 5.13809 14.5188 5.20901 14.6207 5.30222C14.7226 5.39542 14.804 5.50887 14.8598 5.63533C14.9155 5.76179 14.9444 5.8985 14.9445 6.03675L14.9445 7.53048C14.9469 7.77212 14.8615 8.00637 14.7043 8.18959C14.547 8.37281 14.3286 8.49248 14.0898 8.5263C13.6127 8.58934 13.1443 8.70626 12.6935 8.87483C12.5156 8.94182 12.3223 8.95632 12.1365 8.91661C11.9507 8.8769 11.7801 8.78464 11.645 8.65077L11.0139 8.01843C9.76981 8.72723 8.73974 9.75934 8.03234 11.0059L8.66343 11.6382C8.79704 11.7736 8.88911 11.9445 8.92874 12.1307C8.96837 12.3169 8.9539 12.5106 8.88705 12.6888C8.71881 13.1406 8.60212 13.6099 8.5392 14.0879C8.50515 14.3298 8.38356 14.5507 8.19757 14.7086C8.01158 14.8665 7.77415 14.9504 7.53045 14.9443Z" fill="#243060"/>
<rect x="1.40002" y="1.40002" width="17.2" height="17.2" rx="8.6" stroke="#243060" stroke-width="2"/>
</svg>
