<?xml version="1.0" encoding="UTF-8"?>
<svg width="94px" height="94px" viewBox="0 0 94 94" version="1.1" xmlns="http://www.w3.org/2000/svg" xmlns:xlink="http://www.w3.org/1999/xlink">
    <title>rising-graph--blue</title>
    <g id="Individual-steps" stroke="none" stroke-width="1" fill="none" fill-rule="evenodd">
        <g id="rising-graph--blue">
            <path d="M5.6881926,56.5791667 L17.8118074,56.5791667 C18.2575668,56.5791667 18.4192099,56.6255795 18.5821729,56.712733 C18.7451358,56.7998866 18.8730301,56.9277809 18.9601836,57.0907438 C19.0473372,57.2537068 19.09375,57.4153499 19.09375,57.8611093 L19.09375,83.0305574 C19.09375,83.4763168 19.0473372,83.6379599 18.9601836,83.8009229 C18.8730301,83.9638858 18.7451358,84.0917801 18.5821729,84.1789336 C18.4192099,84.2660872 18.2575668,84.3125 17.8118074,84.3125 L5.6881926,84.3125 C5.24243323,84.3125 5.08079011,84.2660872 4.91782715,84.1789336 C4.75486419,84.0917801 4.6269699,83.9638858 4.53981635,83.8009229 C4.45266281,83.6379599 4.40625,83.4763168 4.40625,83.0305574 L4.40625,57.8611093 C4.40625,57.4153499 4.45266281,57.2537068 4.53981635,57.0907438 C4.6269699,56.9277809 4.75486419,56.7998866 4.91782715,56.712733 C5.08079011,56.6255795 5.24243323,56.5791667 5.6881926,56.5791667 Z" id="Rectangle" fill="#243060"></path>
            <path d="M30.4701352,40.9791667 L40.0298648,40.9791667 C40.9213835,40.9791667 41.2446698,41.0719923 41.5705957,41.2462994 C41.8965216,41.4206065 42.1523102,41.676395 42.3266173,42.002321 C42.5009244,42.3282469 42.59375,42.6515331 42.59375,43.5430519 L42.59375,81.7486148 C42.59375,82.6401335 42.5009244,82.9634198 42.3266173,83.2893457 C42.1523102,83.6152716 41.8965216,83.8710602 41.5705957,84.0453673 C41.2446698,84.2196744 40.9213835,84.3125 40.0298648,84.3125 L30.4701352,84.3125 C29.5786165,84.3125 29.2553302,84.2196744 28.9294043,84.0453673 C28.6034784,83.8710602 28.3476898,83.6152716 28.1733827,83.2893457 C27.9990756,82.9634198 27.90625,82.6401335 27.90625,81.7486148 L27.90625,43.5430519 C27.90625,42.6515331 27.9990756,42.3282469 28.1733827,42.002321 C28.3476898,41.676395 28.6034784,41.4206065 28.9294043,41.2462994 C29.2553302,41.0719923 29.5786165,40.9791667 30.4701352,40.9791667 Z" id="Rectangle-Copy-4" fill="#243060"></path>
            <path d="M46.5092038,44 L47.4907962,44 C48.3166973,44 48.6509198,44.0928256 48.9768457,44.2671327 C49.3027716,44.4414398 49.5585602,44.6972284 49.7328673,45.0231543 C49.9071744,45.3490802 50,45.6833027 50,46.5092038 L50,135.490796 C50,136.316697 49.9071744,136.65092 49.7328673,136.976846 C49.5585602,137.302772 49.3027716,137.55856 48.9768457,137.732867 C48.6509198,137.907174 48.3166973,138 47.4907962,138 L46.5092038,138 C45.6833027,138 45.3490802,137.907174 45.0231543,137.732867 C44.6972284,137.55856 44.4414398,137.302772 44.2671327,136.976846 C44.0928256,136.65092 44,136.316697 44,135.490796 L44,46.5092038 C44,45.6833027 44.0928256,45.3490802 44.2671327,45.0231543 C44.4414398,44.6972284 44.6972284,44.4414398 45.0231543,44.2671327 C45.3490802,44.0928256 45.6833027,44 46.5092038,44 Z" id="Rectangle-Copy-4" fill="#243060" transform="translate(47.000000, 91.000000) rotate(90.000000) translate(-47.000000, -91.000000) "></path>
            <path d="M53.9701352,53.1125 L63.5298648,53.1125 C64.4213835,53.1125 64.7446698,53.2053256 65.0705957,53.3796327 C65.3965216,53.5539398 65.6523102,53.8097284 65.8266173,54.1356543 C66.0009244,54.4615802 66.09375,54.7848665 66.09375,55.6763852 L66.09375,81.7486148 C66.09375,82.6401335 66.0009244,82.9634198 65.8266173,83.2893457 C65.6523102,83.6152716 65.3965216,83.8710602 65.0705957,84.0453673 C64.7446698,84.2196744 64.4213835,84.3125 63.5298648,84.3125 L53.9701352,84.3125 C53.0786165,84.3125 52.7553302,84.2196744 52.4294043,84.0453673 C52.1034784,83.8710602 51.8476898,83.6152716 51.6733827,83.2893457 C51.4990756,82.9634198 51.40625,82.6401335 51.40625,81.7486148 L51.40625,55.6763852 C51.40625,54.7848665 51.4990756,54.4615802 51.6733827,54.1356543 C51.8476898,53.8097284 52.1034784,53.5539398 52.4294043,53.3796327 C52.7553302,53.2053256 53.0786165,53.1125 53.9701352,53.1125 Z" id="Rectangle-Copy-5" fill="#243060"></path>
            <path d="M77.4701352,32.3125 L87.0298648,32.3125 C87.9213835,32.3125 88.2446698,32.4053256 88.5705957,32.5796327 C88.8965216,32.7539398 89.1523102,33.0097284 89.3266173,33.3356543 C89.5009244,33.6615802 89.59375,33.9848665 89.59375,34.8763852 L89.59375,81.7486148 C89.59375,82.6401335 89.5009244,82.9634198 89.3266173,83.2893457 C89.1523102,83.6152716 88.8965216,83.8710602 88.5705957,84.0453673 C88.2446698,84.2196744 87.9213835,84.3125 87.0298648,84.3125 L77.4701352,84.3125 C76.5786165,84.3125 76.2553302,84.2196744 75.9294043,84.0453673 C75.6034784,83.8710602 75.3476898,83.6152716 75.1733827,83.2893457 C74.9990756,82.9634198 74.90625,82.6401335 74.90625,81.7486148 L74.90625,34.8763852 C74.90625,33.9848665 74.9990756,33.6615802 75.1733827,33.3356543 C75.3476898,33.0097284 75.6034784,32.7539398 75.9294043,32.5796327 C76.2553302,32.4053256 76.5786165,32.3125 77.4701352,32.3125 Z" id="Rectangle-Copy-6" fill="#243060"></path>
            <g id="Group-3" transform="translate(7.343750, 0.000000)">
                <path d="M0,39.65625 L27.90625,10.28125 L51.40625,35.25 L67.5625,16.15625" id="Path-2" stroke="#243060" stroke-width="4"></path>
                <path d="M81.829913,3.97624363 L75.9201003,20.5237193 C75.5485933,21.5639386 74.404163,22.1060372 73.3639436,21.7345303 C73.0850709,21.6349329 72.8317945,21.4746516 72.6224029,21.26526 L61.98474,10.6275971 C61.2036914,9.84654854 61.2036914,8.58021858 61.98474,7.79916999 C62.1941316,7.5897784 62.447408,7.42949716 62.7262807,7.32989973 L79.2737564,1.42008701 C80.3139758,1.04858008 81.4584061,1.59067865 81.829913,2.63089804 C81.9852679,3.06589177 81.9852679,3.5412499 81.829913,3.97624363 Z" id="Triangle" fill="#243060"></path>
            </g>
        </g>
    </g>
</svg>