<svg width="88" height="88" viewBox="0 0 88 88" fill="none" xmlns="http://www.w3.org/2000/svg">
<path fill-rule="evenodd" clip-rule="evenodd" d="M16.75 44C16.75 28.9502 28.9502 16.75 44 16.75C59.0498 16.75 71.25 28.9502 71.25 44C71.25 59.0498 59.0498 71.25 44 71.25C28.9502 71.25 16.75 59.0498 16.75 44ZM44 13.75C27.2934 13.75 13.75 27.2934 13.75 44C13.75 60.7066 27.2934 74.25 44 74.25C60.7066 74.25 74.25 60.7066 74.25 44C74.25 27.2934 60.7066 13.75 44 13.75ZM45.5 26.75C45.5 25.9216 44.8284 25.25 44 25.25C43.1716 25.25 42.5 25.9216 42.5 26.75V44C42.5 44.5682 42.821 45.0876 43.3292 45.3416L54.8292 51.0916C55.5701 51.4621 56.4712 51.1618 56.8416 50.4208C57.2121 49.6799 56.9118 48.7788 56.1708 48.4084L45.5 43.0729V26.75Z" fill="#7c83a0"/>
</svg>
