<svg width="40" height="40" viewBox="0 0 40 40" fill="none" xmlns="http://www.w3.org/2000/svg">
<rect width="40" height="40" rx="20" fill="#243060"/>
<path fill-rule="evenodd" clip-rule="evenodd" d="M16.9502 26.6662C22.271 26.7138 26.6235 22.498 26.6719 17.25C26.6727 17.1924 26.6727 17.1349 26.6719 17.0782V16.6213C27.3185 16.1356 27.8819 15.5497 28.3385 14.8865C27.7177 15.1527 27.0635 15.3368 26.3935 15.4346C27.0827 15.0073 27.6044 14.3638 27.8752 13.6077C27.206 13.9751 26.4902 14.2512 25.746 14.4295C25.1119 13.7253 24.2002 13.3267 23.246 13.3341C21.3652 13.3628 19.8485 14.8585 19.8194 16.7133C19.7985 16.9599 19.8302 17.2089 19.9127 17.4431C17.156 17.3124 14.5902 16.014 12.8752 13.8814C12.5702 14.4106 12.411 15.0089 12.4127 15.6171C12.4369 16.7355 12.9835 17.78 13.8935 18.4482C13.3377 18.4367 12.7935 18.2797 12.3194 17.9921C12.3177 19.6061 13.4877 20.99 15.0977 21.2793C14.7969 21.359 14.4835 21.3902 14.1719 21.3705C13.9519 21.3853 13.731 21.354 13.5244 21.2793C13.9877 22.6656 15.2844 23.6156 16.7644 23.6534C15.5469 24.5911 14.0502 25.1048 12.5052 25.1138C12.2244 25.1286 11.9427 25.0982 11.6719 25.0226C13.2044 26.1197 15.0569 26.6966 16.9502 26.6662" fill="white"/>
</svg>
