<svg width="88" height="88" viewBox="0 0 88 88" fill="none" xmlns="http://www.w3.org/2000/svg">
<path fill-rule="evenodd" clip-rule="evenodd" d="M39.4375 12.0625C35.8476 12.0625 32.9375 14.9726 32.9375 18.5625V26.5625H19.4375C14.1908 26.5625 9.9375 30.8158 9.9375 36.0625V66.4375C9.9375 71.6842 14.1908 75.9375 19.4375 75.9375H68.5625C73.8092 75.9375 78.0625 71.6842 78.0625 66.4375V36.0625C78.0625 30.8158 73.8092 26.5625 68.5625 26.5625H55.0625V18.5625C55.0625 14.9726 52.1524 12.0625 48.5625 12.0625H39.4375ZM52.0625 26.5625V18.5625C52.0625 16.6295 50.4955 15.0625 48.5625 15.0625H39.4375C37.5045 15.0625 35.9375 16.6295 35.9375 18.5625V26.5625H52.0625ZM25.1974 29.5625H21.5526L21.5526 72.9375H25.1974L25.1974 29.5625ZM28.1974 29.5625L28.1974 72.9375H59.8026L59.8026 29.5625H55.0625H53.5625H34.4375H32.9375H28.1974ZM66.4474 72.9375H62.8026L62.8026 29.5625H66.4474L66.4474 72.9375ZM69.4474 72.8778C72.6186 72.4461 75.0625 69.7272 75.0625 66.4375V36.0625C75.0625 32.7728 72.6186 30.0539 69.4474 29.6222L69.4474 72.8778ZM12.9375 36.0625C12.9375 32.7728 15.3814 30.0539 18.5526 29.6222L18.5526 72.8778C15.3814 72.4461 12.9375 69.7272 12.9375 66.4375V36.0625ZM54.3403 58.3732L39.6591 55.1339L38.0702 62.3349L52.7515 65.5742L54.3403 58.3732ZM40.09 53.1809L38.137 52.75L37.706 54.703L36.1172 61.904L35.6863 63.8571L37.6393 64.288L52.3206 67.5273L54.2736 67.9582L54.7045 66.0052L56.2934 58.8042L56.7243 56.8511L54.7713 56.4202L40.09 53.1809ZM47.2559 41.7054L53.6864 40.0122L55.5642 47.1433L49.1337 48.8366L47.2559 41.7054ZM44.8126 40.2806L46.7466 39.7714L53.1771 38.0781L55.1112 37.5688L55.6205 39.5029L57.4982 46.634L58.0075 48.5681L56.0734 49.0774L49.6429 50.7706L47.7089 51.2799L47.1996 49.3458L45.3218 42.2147L44.8126 40.2806Z" fill="#7c83a0"/>
</svg>
