<?xml version="1.0" encoding="UTF-8"?>
<svg width="56px" height="47px" viewBox="0 0 56 47" version="1.1" xmlns="http://www.w3.org/2000/svg" xmlns:xlink="http://www.w3.org/1999/xlink">
    <title>Group 2</title>
    <g id="Individual-steps" stroke="none" stroke-width="1" fill="none" fill-rule="evenodd">
        <g id="Step-3----Reason-to-Release" transform="translate(-242.000000, -341.000000)" fill="#243060" fill-rule="nonzero">
            <g id="Step-1" transform="translate(16.000000, 16.000000)">
                <g id="Homeowner" transform="translate(16.000000, 32.000000)">
                    <g id="Holiday" transform="translate(164.000000, 269.000000)">
                        <g id="Group-2" transform="translate(46.000000, 24.000000)">
                            <path d="M9.97346296e-05,14.1038637 L9.97346296e-05,41.3789731 C9.97346296e-05,44.4944143 2.50623503,46.9999992 5.62112584,46.9999992 L8.46004015,46.9999992 L8.45961017,8.48217706 L5.62069586,8.48217706 C2.50613529,8.48217706 0,10.9883124 0,14.1032032 L9.97346296e-05,14.1038637 Z" id="Path"></path>
                            <path d="M40.4366577,8.03392163 L40.4366577,4.40978976 C40.4366577,1.96816274 38.4801637,0 36.0380963,0 L18.5801328,0 C16.1385058,0 14.1703431,1.9681525 14.1703431,4.41021986 L14.1703431,8.03435173 C14.1703431,8.18184009 14.1789434,8.33965418 14.1931334,8.48327865 L10.8945151,8.48327865 L10.8945151,47 L44.4190009,47 L44.4190009,8.48327865 L40.4129933,8.48327865 C40.427184,8.33965418 40.436214,8.18184009 40.436214,8.03435173 L40.4366577,8.03392163 Z M18.2099258,4.80245359 C18.2099258,4.43608844 18.2899073,4.31955524 18.5805952,4.31955524 L36.0385586,4.31955524 C36.3283835,4.31955524 36.397185,4.43565912 36.397185,4.80245359 L36.397185,8.48206697 L18.2104762,8.48249707 L18.2099258,4.80245359 Z M17.0089271,14.7317735 C18.6214137,14.7317735 19.92611,16.0360295 19.92611,17.6489564 C19.92611,19.261443 18.6210835,20.5661393 17.0089271,20.5661393 C15.3967708,20.5661393 14.0917443,19.2618833 14.0917443,17.6489564 C14.0921743,16.0364698 15.3972111,14.7317735 17.0089271,14.7317735 L17.0089271,14.7317735 Z M12.3080796,26.78139 C12.3080796,25.1692337 13.6243345,23.8642071 15.2364908,23.8642071 C16.8489774,23.8642071 18.1536737,25.1692337 18.1536737,26.78139 C18.1536737,28.3935464 16.8486472,29.7101315 15.2364908,29.7101315 C13.6247748,29.7101315 12.3080796,28.3934363 12.3080796,26.78139 L12.3080796,26.78139 Z M29.216732,39.9868714 L27.0176164,43.8014458 C26.8537808,44.0856785 26.4942959,44.178566 26.2100632,44.0147304 L14.9222167,37.4957624 C14.637984,37.3319268 14.5450965,36.9715832 14.7089321,36.6882091 L16.9080476,32.8736347 C17.0108194,32.6960388 17.1897044,32.5954236 17.378903,32.5820926 C17.4928602,32.5734925 17.6093934,32.5988625 17.7156009,32.6603545 L29.0023466,39.1788822 C29.2874379,39.3431471 29.3798961,39.7026321 29.2160605,39.9868648 L29.216732,39.9868714 Z M37.0708891,38.5953202 C34.4766879,38.5953202 32.3696012,36.4877931 32.3696012,33.8940323 C32.3696012,31.2998311 34.4766879,29.1927444 37.0708891,29.1927444 C39.6643197,29.1927444 41.760178,31.2998311 41.760178,33.8940323 C41.760178,36.4877931 39.6643197,38.5953202 37.0708891,38.5953202 Z M41.1542846,15.8754193 C41.3189789,16.159652 41.2144865,16.519148 40.9306853,16.6834019 L29.6428388,23.1907012 C29.3586062,23.3553954 28.9991102,23.2616526 28.8348562,22.9774166 L26.6357407,19.1628422 C26.4719051,18.8781802 26.5647893,18.5191135 26.8490253,18.3548596 L38.1368718,11.8475603 C38.2082536,11.8062794 38.2848005,11.7783284 38.3613407,11.7692983 C38.5901029,11.740918 38.8210227,11.8484201 38.9444361,12.0616991 L41.1542846,15.8754193 Z" id="Shape"></path>
                            <path d="M49.8387931,8.48305772 L46.831783,8.48305772 L46.831783,46.9997791 L49.8387931,46.9997791 C52.953794,46.9997791 55.4818357,44.4936438 55.4818357,41.378753 L55.4818357,14.1036435 C55.4818357,10.9886426 52.9529133,8.48261739 49.8387931,8.48261739 L49.8387931,8.48305772 Z" id="Path"></path>
                        </g>
                    </g>
                </g>
            </g>
        </g>
    </g>
</svg>