<svg xmlns="http://www.w3.org/2000/svg" viewBox="0 0 1008 480">
  <path fill="#9C0067" d="M 205.00,480.00 C 205.00,480.00 206.96,466.00 206.96,466.00 206.96,466.00 206.96,446.00 206.96,446.00 206.97,424.51 197.78,398.07 188.25,379.00 170.87,344.25 146.78,313.60 124.42,282.00 93.98,238.98 60.07,184.02 43.33,134.00 30.61,95.95 19.63,44.51 57.00,16.24 62.14,12.35 69.89,8.48 76.00,6.34 84.16,3.50 93.36,2.01 102.00,2.00 102.00,2.00 1008.00,2.00 1008.00,2.00 1008.00,2.00 1008.00,480.00 1008.00,480.00 1008.00,480.00 205.00,480.00 205.00,480.00 Z" />
</svg>
