<svg xmlns="http://www.w3.org/2000/svg" viewBox="0 0 1008 480">
  <path fill="#9C0067" d="M 0.00,2.00 C 0.00,2.00 754.00,2.00 754.00,2.00 754.00,2.00 906.00,2.00 906.00,2.00 934.08,2.04 960.70,16.14 971.55,43.00 974.96,51.44 975.47,57.16 976.09,66.00 976.33,69.44 977.07,71.40 976.82,75.00 976.05,85.78 974.91,96.42 972.58,107.00 959.77,164.97 917.72,233.75 883.58,282.00 861.22,313.60 837.13,344.25 819.75,379.00 810.22,398.07 801.03,424.51 801.00,446.00 801.00,446.00 801.00,463.00 801.00,463.00 801.00,463.00 803.00,480.00 803.00,480.00 803.00,480.00 0.00,480.00 0.00,480.00 0.00,480.00 0.00,2.00 0.00,2.00 Z" />
</svg>
