<svg xmlns="http://www.w3.org/2000/svg" viewBox="4.586 -0.101 1191 481.1">
  <path fill="none" stroke="#d3d6df" stroke-width="3" d="M153.746 0H645.853c-82.952 63.003-179.655 99.053-277.056 125.827-14.427 3.969-29.242 7.253-44.068 10.539l-.045.01c-29.291 6.493-58.615 12.998-85.185 25.31l-.032.032c-31.551 13.265-59.756 41.455-58.956 74.914.601 26.404 19.249 49.688 41.816 64.186l-.805 1.253.806-1.252c45.709 29.444 105.797 42.341 158.983 51.237 59.647 10.041 120.275 13.323 180.76 14.965 92.798 2.53 185.748-2.46 278.18-10.804 107.298-10.474 217.169-22.437 311.699-77.806 15.24-8.977 29.46-19.682 40.95-33.599l2.45 1.706c-25.01 43.165-73.82 76.617-127.48 102.848-53.71 26.253-112.514 45.39-157.752 59.791l-.02.007-.02.006c-205.928 59.288-459.571 95.136-672.555 54.224l-.03-.006-.03-.007c-44.68-10.482-86.235-22.916-127.463-50.784C41.242 366.084-4.142 284.488 6.136 200.083 16.826 111.964 86.767 41.223 153.72-.001Z"/>
</svg>
