<svg width="48" height="58" viewBox="0 0 48 58" fill="none" xmlns="http://www.w3.org/2000/svg">
<path fill-rule="evenodd" clip-rule="evenodd" d="M14.5212 13.8178C18.291 13.8157 21.36 10.7454 21.36 6.97517C21.36 3.20366 18.2889 0.124878 14.5174 0.124878C10.7459 0.124878 7.6748 3.19596 7.6748 6.96747C7.6748 10.7377 10.7438 13.8157 14.5212 13.8178ZM14.5251 3.28833C16.5571 3.28833 18.2119 4.94317 18.2119 6.97517C18.2119 9.00716 16.5571 10.662 14.5251 10.662C12.4931 10.662 10.8383 9.00716 10.8383 6.97517C10.8383 4.94317 12.4931 3.28833 14.5251 3.28833ZM33.475 13.8178C37.2465 13.8178 40.3176 10.7467 40.3253 6.97517C40.3253 3.19596 37.2542 0.124878 33.475 0.124878C29.6958 0.124878 26.6247 3.19596 26.6247 6.96747C26.6247 10.739 29.6958 13.8178 33.475 13.8178ZM33.475 3.28833C35.507 3.28833 37.1618 4.94317 37.1618 6.97517C37.1618 9.00716 35.507 10.662 33.475 10.662C31.443 10.662 29.7881 9.00716 29.7881 6.97517C29.7881 4.94317 31.443 3.28833 33.475 3.28833ZM8.19816 16.9735H39.7942L39.7865 16.9658C44.1429 16.9658 47.6835 20.5064 47.6835 24.8629V34.3455C47.6835 36.9625 45.5592 39.0869 42.9422 39.0869C42.388 39.0869 41.8569 38.9945 41.3643 38.8175V57.8751H25.5702V26.4562H22.4067V57.8751H6.61259V38.8175C6.11998 38.9868 5.58889 39.0869 5.03471 39.0869C3.77241 39.0869 2.57938 38.5866 1.68654 37.6937C0.793691 36.8009 0.301086 35.6078 0.301086 34.3455V24.8706C0.301086 20.5141 3.84169 16.9735 8.19816 16.9735ZM42.9499 35.9234C43.8197 35.9234 44.5278 35.2153 44.5278 34.3455L44.5355 34.3609V24.8783C44.5355 22.269 42.4034 20.137 39.7942 20.137H8.19816C5.5812 20.137 3.45684 22.2613 3.45684 24.8783V34.3532C3.45684 34.7766 3.61847 35.1691 3.91865 35.4693C4.21884 35.7695 4.61138 35.9311 5.03471 35.9311C5.90447 35.9311 6.61259 35.223 6.61259 34.3532V23.2927H9.76834V34.3532V54.7117H12.9318V34.3455H16.0875V54.7117H19.251V23.2927H28.7259V54.704H31.8894V34.3455H35.0451V54.704H38.2086V23.285H41.372V34.3455C41.372 35.2153 42.0802 35.9234 42.9499 35.9234Z" fill="#243060"/>
</svg>
