<svg xmlns="http://www.w3.org/2000/svg" id="Layer_1" data-name="Layer 1" viewBox="0 0 88.51 78.39">
  <defs>
    <style>
      .cls-1{fill:#fff}.cls-2{fill:#282d5b}
    </style>
  </defs>
  <path d="M46.31 63.49c-11.18 0-23.07-3.33-23.07-9.52v-9.83c0-.81.66-1.47 1.47-1.47h43.03c.08-.01.16-.02.25-.02.81 0 1.47.68 1.47 1.49v.03c0 .54-.08 9.81-.08 9.81 0 6.17-11.89 9.5-23.07 9.5Z" class="cls-1"/>
  <path d="M67.99 44.13v.02-.02m0 .02c0 .5-.08 9.83-.08 9.83 0 4.44-9.67 8.05-21.6 8.05s-21.6-3.6-21.6-8.05v-9.83h43.28m0-2.96c-.12 0-.23 0-.35.02H24.71c-1.62 0-2.94 1.32-2.94 2.94v9.83c0 2.45 1.43 5.91 8.24 8.44 4.4 1.64 10.19 2.54 16.3 2.54s11.9-.9 16.3-2.54c6.81-2.54 8.24-5.99 8.24-8.44.03-3.19.07-9.37.08-9.78.01-.77-.28-1.54-.81-2.1-.56-.58-1.33-.91-2.13-.91Z" class="cls-2"/>
  <ellipse cx="46.31" cy="43.81" class="cls-1" rx="23.07" ry="9.52"/>
  <path d="M46.31 35.77c11.93 0 21.6 3.6 21.6 8.05s-9.67 8.05-21.6 8.05-21.6-3.6-21.6-8.05 9.67-8.05 21.6-8.05m0-2.94c-6.11 0-11.9.9-16.3 2.54-6.81 2.54-8.24 5.99-8.24 8.44s1.43 5.91 8.24 8.44c4.4 1.64 10.19 2.54 16.3 2.54s11.9-.9 16.3-2.54c6.81-2.54 8.24-5.99 8.24-8.44s-1.43-5.91-8.24-8.44c-4.4-1.64-10.19-2.54-16.3-2.54Z" class="cls-2"/>
  <path d="M39.45 43.48c-11.18 0-23.07-3.33-23.07-9.52v-9.8c0-.81.66-1.47 1.47-1.47h43.03c.08-.01.16-.02.25-.02.81 0 1.46.67 1.47 1.48v.04c0 .54-.08 9.78-.08 9.78 0 6.17-11.89 9.5-23.07 9.5Z" class="cls-1"/>
  <path d="M61.13 24.14v.02-.02m0 .02c0 .5-.08 9.8-.08 9.8 0 4.44-9.67 8.05-21.6 8.05s-21.6-3.6-21.6-8.05v-9.8h43.28m0-2.96c-.12 0-.24 0-.35.02H17.85c-1.62 0-2.94 1.32-2.94 2.94v9.8c0 2.45 1.43 5.91 8.24 8.44 4.4 1.64 10.19 2.54 16.3 2.54s11.9-.9 16.3-2.54c6.81-2.54 8.24-5.99 8.24-8.44.03-3.18.07-9.33.08-9.75.01-.77-.28-1.54-.81-2.1-.55-.58-1.32-.91-2.13-.91Z" class="cls-2"/>
  <ellipse cx="39.45" cy="23.8" class="cls-1" rx="23.07" ry="9.52"/>
  <path d="M39.45 15.75c11.93 0 21.6 3.6 21.6 8.05s-9.67 8.05-21.6 8.05-21.6-3.6-21.6-8.05 9.67-8.05 21.6-8.05m0-2.94c-6.11 0-11.9.9-16.3 2.54-6.81 2.54-8.24 5.99-8.24 8.44s1.43 5.91 8.24 8.44c4.4 1.64 10.19 2.54 16.3 2.54s11.9-.9 16.3-2.54c6.81-2.54 8.24-5.99 8.24-8.44s-1.43-5.91-8.24-8.44c-4.4-1.64-10.19-2.54-16.3-2.54Z" class="cls-2"/>
</svg>
