<svg xmlns="http://www.w3.org/2000/svg" data-name="Layer 1" viewBox="0 0 88.51 78.39">
  <path d="M73.73 17.27h-6.62c.02-.73.04-1.47.04-2.21 0-.84-.68-1.51-1.51-1.51h-32.4c-.83 0-1.51.68-1.51 1.51 0 .74.01 1.48.04 2.21h-6.62c-.84 0-1.51.68-1.51 1.51 0 6.78 1.77 13.17 4.99 18 3.18 4.78 7.41 7.52 11.99 7.79 1.04 1.13 2.13 2.05 3.28 2.75v6.72h-2.54c-3.07 0-5.56 2.5-5.56 5.56v2.54h-.11c-.83 0-1.51.68-1.51 1.51s.68 1.51 1.51 1.51h27.54c.83 0 1.51-.68 1.51-1.51s-.68-1.51-1.51-1.51h-.11V59.6c0-3.07-2.5-5.56-5.56-5.56h-2.54v-6.72c1.14-.7 2.24-1.62 3.28-2.75 4.57-.27 8.81-3.01 11.99-7.79 3.22-4.83 4.99-11.23 4.99-18 0-.84-.68-1.51-1.51-1.51M31.16 35.11c-2.65-3.99-4.21-9.2-4.45-14.82h5.25c.55 6.9 2.17 13.28 4.7 18.35.4.81.83 1.57 1.26 2.29-2.52-.95-4.84-2.94-6.76-5.82m28.95 24.5v2.54H38.83v-2.54c0-1.4 1.14-2.54 2.54-2.54h16.2c1.4 0 2.54 1.14 2.54 2.54m-8.1-5.56h-5.08v-5.41c.83.22 1.68.33 2.54.33s1.71-.11 2.54-.33v5.41Zm.94-9.01c-.07.03-.13.06-.2.1-1.07.53-2.17.81-3.28.81s-2.21-.28-3.28-.81c-.06-.04-.13-.07-.2-.1-1.19-.63-2.33-1.57-3.42-2.82-.06-.08-.12-.16-.19-.22-1.08-1.28-2.09-2.85-3.02-4.7-2.78-5.56-4.39-12.87-4.57-20.72h29.34c-.18 7.85-1.79 15.16-4.57 20.72-.93 1.85-1.94 3.42-3.02 4.7-.07.07-.14.14-.19.23-1.09 1.24-2.23 2.19-3.42 2.82m14.83-9.93C65.84 38 63.51 39.99 61 40.94c.44-.72.86-1.48 1.26-2.29 2.53-5.07 4.15-11.45 4.7-18.35h5.25c-.24 5.62-1.8 10.83-4.45 14.82" style="fill:#282d5b"/>
</svg>
