<svg xmlns="http://www.w3.org/2000/svg" id="Layer_1" data-name="Layer 1" viewBox="0 0 88.51 78.39"><defs><style>.cls-1{fill:none;stroke:#282d5b;stroke-linecap:round;stroke-linejoin:round;stroke-width:3.08px}</style></defs><path d="M30 19.49a8.764 8.764 0 0 1-1.7-5.19 8.79 8.79 0 0 1 8.79-8.79c2.31 0 4.42.89 6 2.36M49.9 25.75c0 1.16-.23 2.26-.63 3.27M34.02 30.95a8.78 8.78 0 0 1-1.71-5.2c0-4.25 3.02-7.79 7.01-8.61" class="cls-1"/><path d="M51.47 25.75c4.85 0 8.79-3.93 8.79-8.79s-3.93-8.79-8.79-8.79-8.79 3.93-8.79 8.79 3.93 8.79 8.79 8.79ZM69.66 53.81l-26.9-26.87-26.9 26.87" class="cls-1"/><path d="M61.28 45.37V73.9H24.23V45.37" class="cls-1"/><path d="M44.26 43.74c-3.03 0-6.24 2.08-6.23 5.44 0 1.53.63 3.24 1.12 4.88h-3.27c-.23 0-.4.17-.4.4v.83c0 .23.17.4.4.4h3.69c.08.49.17.95.17 1.39 0 1.45-1.15 2.95-2.39 3.96-.64.52-1.3 1-1.85 1.27-.08.02-.17.17-.17.25v.87c0 .14.14.29.29.29v-.04h11.85c.12 0 .24-.08.27-.21l.6-1.7c.05-.21-.06-.37-.27-.37h-8.72l.95-.89c1.16-1.07 2.03-2.26 2.05-4.1 0-.23-.04-.49-.06-.75h3.55c.23 0 .4-.17.4-.4v-.83c0-.23-.17-.4-.4-.4h-3.9c-.52-1.79-1.33-3.69-1.33-5.19 0-1.85 1.21-3.17 3.34-3.17 1.27 0 1.97.58 2.14 1.39l.29 1.3c.06.25.23.37.43.37h.69c.25 0 .4-.14.4-.4v-3.55c0-.23-.17-.46-.37-.52-.99-.31-2.14-.52-3.3-.52Z" style="fill:#282d5b"/><path d="M56.62 40.78v-9.67" class="cls-1"/></svg>