<svg xmlns="http://www.w3.org/2000/svg" data-name="Layer 1" viewBox="0 0 88.51 78.39">
  <path d="M59.19 36.63c1.12 0 2.03.91 2.03 2.03 0 1.12-.91 2.03-2.03 2.03-1.12 0-2.03-.91-2.03-2.03 0-1.12.91-2.03 2.03-2.03Zm-45.21 2.36c.31-.06.59-.1.8-.1.14 0 .25.02.32.05.13.11.2.34.15.52-.08.29-.46.39-.67.42-.13 0-.22-.09-.3-.19a1.79 1.79 0 0 1-.3-.71Zm6.1 3.74c0-8.9 6.65-16.85 16.26-19.58l.12.12c.18.21.36.4.56.59.07.07.15.13.22.2.18.16.36.32.55.47.08.06.17.12.25.19.06.04.12.09.18.13-1.9.45-3.73 1.13-5.42 2.05a1.218 1.218 0 0 0 .59 2.29c.2 0 .4-.05.58-.15 2.89-1.56 6.22-2.38 9.63-2.38s6.42.75 9.2 2.16c.6.31 1.34.07 1.64-.54.31-.6.07-1.34-.53-1.64-1.45-.74-3-1.3-4.6-1.71.1-.06.19-.14.28-.21.05-.04.1-.08.16-.12.22-.17.43-.34.63-.52.05-.05.11-.09.16-.14.2-.19.4-.39.58-.6l.09-.09c3.04.92 5.88 2.4 8.26 4.31l.68.55.74-.46c1.44-.91 3.02-1.26 4.22-.97l-2.72 3.65.58.74c1.88 2.39 3.14 5.05 3.75 7.91l.21.97h3.32c.74 0 1.35.6 1.35 1.35v10.91c0 .74-.6 1.35-1.35 1.35h-6.61l-.37.49c-1.61 2.15-3.66 4-6.08 5.51l-.73.45.22 1.02v5.29c0 .22-.1.35-.13.38l-4.58-.02s-.06-.14-.06-.36v-4.25l-1.53.4c-4.13 1.08-8.41 1.17-12.79.16l-1.5-.35v4.17c0 .22-.09.35-.13.38l-4.54-.02s-.11-.17-.11-.36l.06-6.13-.65-.38c-6.63-3.83-10.59-10.26-10.59-17.2Zm31.07-25.88c0 1.51-.46 2.92-1.25 4.08l-.07.09c-.04.05-.08.1-.12.16-.15.21-.32.41-.49.6-.02.02-.04.04-.06.07-.78.83-1.73 1.46-2.77 1.86l-.09.03c-.22.08-.45.15-.68.21-.05.01-.1.03-.15.04-.22.05-.44.09-.66.12-.06 0-.12.02-.17.03-.27.03-.55.05-.83.05s-.56-.02-.83-.05c-.07 0-.13-.02-.2-.03-.21-.03-.42-.07-.63-.12-.07-.02-.13-.03-.2-.05-.21-.06-.42-.12-.63-.2-.05-.02-.1-.04-.16-.06a5.37 5.37 0 0 1-.69-.31c-.02 0-.03-.02-.05-.03-.5-.26-.96-.58-1.39-.94-.04-.03-.07-.07-.11-.1a7.12 7.12 0 0 1-.48-.47c-.04-.05-.09-.09-.13-.14-.16-.18-.31-.36-.45-.56-.03-.05-.07-.09-.1-.14l-.04-.06a7.328 7.328 0 0 1-1.24-4.08c0-4.04 3.29-7.34 7.34-7.34s7.34 3.29 7.34 7.34ZM10.83 39.87c.25.23.63.21.86-.04.14-.15.58-.35 1.1-.52.1.43.28.82.53 1.14.33.43.77.66 1.23.66.07 0 .14 0 .21-.02.87-.13 1.48-.6 1.67-1.3a1.78 1.78 0 0 0-.57-1.81c-.37-.31-1.05-.35-1.8-.24.14-.3.35-.46.68-.5 1.09-.14 2.45.5 3.4 1.09-.32 1.43-.5 2.9-.5 4.4 0 7.59 4.16 14.62 11.18 18.94v4.77c0 1.55 1.12 2.8 2.5 2.8h4.65c1.38 0 2.5-1.26 2.5-2.8V65.3c3.73.68 7.36.61 10.93-.13v1.13c0 1.55 1.12 2.8 2.5 2.8h4.65c1.38 0 2.5-1.26 2.5-2.8v-5.1c2.22-1.47 4.15-3.22 5.73-5.21h5.4c2.09 0 3.79-1.7 3.79-3.79V41.29c0-2.09-1.7-3.79-3.79-3.79h-1.36c-.67-2.57-1.82-4.99-3.42-7.2l3.23-4.32-.98-.73c-1.92-1.44-4.76-1.46-7.36-.1-2.29-1.72-4.93-3.05-7.74-3.98.64-1.3 1.02-2.76 1.02-4.32 0-5.39-4.39-9.78-9.78-9.78s-9.78 4.39-9.78 9.78c0 1.5.35 2.91.95 4.18-8.25 2.58-14.43 8.7-16.55 16.08-1.05-.6-2.51-1.23-3.85-1.07-.78.09-1.37.55-1.68 1.29-.09.23-.16.48-.19.74-.89.28-1.67.66-1.93.95-.23.25-.21.63.04.86Z" style="fill:#282d5b;stroke:#282d5b;stroke-miterlimit:10;stroke-width:.36px"/>
</svg>
