<svg xmlns="http://www.w3.org/2000/svg" id="Layer_1" data-name="Layer 1" viewBox="0 0 88.51 78.39">
  <defs>
    <style>
      .cls-1{fill:#282d5b}
    </style>
  </defs>
  <path d="m72.33 33.29-4.3 3.93-13.48-14.77c-.26-.29-.4-.66-.38-1.06.02-.39.18-.75.47-1.02l3.22-2.93c.29-.26.66-.4 1.06-.38.39.02.75.19 1.02.48l12.49 13.68a1.477 1.477 0 0 1-.1 2.08M59.21 45.27 43.75 28.33a1.43 1.43 0 0 0-.89-.46l-8.25-1.1h-.13c-.69-.03-1.31.43-1.48 1.11l-.81 3.26a3.816 3.816 0 0 1-6.97 1.05c-.52-.87-.68-1.9-.43-2.89l.82-3.26c1.21-4.86 6.15-7.83 11.01-6.62h.04l14.06 3.19 15.15 16.6-6.65 6.08ZM33.32 62.24c-.43.39-1.1.36-1.49-.07l-.72-.78c-.39-.43-.36-1.1.07-1.5l2.25-2.05 2.14 2.35-2.25 2.05ZM27 56.89c-.19-.21-.29-.48-.28-.76.01-.28.14-.54.34-.73l2.25-2.05 2.14 2.34-2.25 2.05c-.43.39-1.1.36-1.49-.07l-.72-.78Zm-4.11-4.5c-.39-.43-.36-1.1.07-1.5l2.25-2.05 2.14 2.34-2.25 2.05c-.43.39-1.1.37-1.49-.07l-.72-.78Zm-4.11-4.51c-.39-.43-.36-1.1.07-1.49l2.25-2.05 2.14 2.35-2.25 2.05c-.43.39-1.1.36-1.49-.07l-.72-.79Zm55.8-18.62L62.09 15.57c-.8-.87-1.87-1.37-3.04-1.43-1.17-.05-2.3.36-3.16 1.14l-3.22 2.93c-.5.45-.86.99-1.1 1.58L37.3 16.56c-6.41-1.58-12.92 2.34-14.52 8.75l-.81 3.26a6.73 6.73 0 0 0 4.9 8.16c3.6.9 7.27-1.3 8.17-4.9l.5-2 6.42.86 19 20.82c.59.65.55 1.65-.1 2.24-.65.59-1.65.54-2.24-.1l-7.81-8.55c-.54-.6-1.47-.64-2.07-.09-.59.54-.63 1.47-.09 2.06l7.81 8.56c.29.31.43.72.42 1.14a1.593 1.593 0 0 1-2.76 1l-7.81-8.55c-.54-.6-1.47-.64-2.06-.09-.6.54-.64 1.47-.09 2.06l7.8 8.55c.59.65.55 1.65-.1 2.24-.31.29-.72.43-1.14.41-.42-.02-.82-.2-1.1-.52l-7.81-8.55c-.54-.6-1.47-.64-2.07-.09-.59.54-.64 1.47-.09 2.06l7.81 8.56c.59.65.55 1.65-.1 2.24-.65.59-1.65.54-2.24-.1L13.82 31.7c-.54-.59-1.46-.64-2.06-.09-.6.54-.64 1.47-.09 2.07l7.62 8.35-2.4 2.19c-.79.72-1.25 1.69-1.29 2.76a3.96 3.96 0 0 0 1.04 2.87l.71.78c.63.69 1.46 1.12 2.36 1.25.05.92.41 1.78 1.04 2.47l.71.78c.65.7 1.48 1.12 2.36 1.25a4 4 0 0 0 1.03 2.47l.72.78c.63.69 1.45 1.13 2.36 1.25.05.92.41 1.78 1.04 2.47l.71.78c.74.81 1.74 1.25 2.76 1.29 1.02.05 2.05-.29 2.86-1.03l2.4-2.19 5.25 5.75c.81.89 1.92 1.41 3.12 1.46 1.21.06 2.36-.36 3.25-1.17a4.45 4.45 0 0 0 1.44-2.94c1.13 0 2.21-.4 3.06-1.17.87-.8 1.35-1.85 1.44-2.94 1.09 0 2.19-.38 3.06-1.17.87-.79 1.35-1.85 1.44-2.94 1.09 0 2.19-.38 3.06-1.17a4.507 4.507 0 0 0 .29-6.37l-1.93-2.11L74.3 35.46a4.392 4.392 0 0 0 .28-6.2" class="cls-1"/>
  <path d="M70.28 32.73c-.04.81-.72 1.43-1.53 1.39a1.46 1.46 0 0 1 .13-2.92c.81.04 1.43.72 1.39 1.53" class="cls-1"/>
</svg>
