<svg xmlns="http://www.w3.org/2000/svg" data-name="Layer 1" viewBox="0 0 88.51 78.39">
  <path d="M51.72 35.4h-1.03c-.33-1.04-.75-2.06-1.26-3.03l.73-.73c1.76-1.76 1.71-4.58 0-6.3l-2.15-2.15c-1.71-1.71-4.53-1.77-6.3 0l-.73.73c-.97-.5-1.99-.93-3.03-1.26v-1.03c0-2.46-2-4.45-4.45-4.45h-3.04c-2.45 0-4.45 2-4.45 4.45v1.03c-1.04.33-2.06.75-3.03 1.26l-.73-.73a4.454 4.454 0 0 0-6.3 0l-2.15 2.15a4.454 4.454 0 0 0 0 6.3l.73.73c-.5.97-.93 1.99-1.26 3.03h-1.03c-2.45 0-4.45 2-4.45 4.45v3.04c0 2.46 2 4.45 4.45 4.45h1.03c.33 1.04.75 2.06 1.26 3.03l-.73.73c-1.76 1.76-1.71 4.59 0 6.3l2.15 2.15c1.71 1.71 4.53 1.77 6.3 0l.73-.73c.97.5 1.99.93 3.03 1.26v1.03c0 2.46 2 4.45 4.45 4.45h3.04c2.46 0 4.45-2 4.45-4.45v-1.03c1.04-.33 2.06-.75 3.03-1.26l.73.73a4.454 4.454 0 0 0 6.3 0l2.15-2.15c1.71-1.71 1.76-4.54 0-6.3l-.73-.73c.5-.97.93-1.99 1.26-3.03h1.03c2.46 0 4.45-2 4.45-4.45v-3.04c0-2.45-2-4.45-4.45-4.45Zm1.62 7.49c0 .89-.73 1.62-1.62 1.62h-2.09c-.65 0-1.21.44-1.37 1.06-.39 1.52-1 2.98-1.8 4.33-.33.56-.24 1.27.22 1.72l1.48 1.48c.64.64.62 1.67 0 2.29l-2.15 2.15c-.62.62-1.65.64-2.29 0l-1.48-1.48a1.41 1.41 0 0 0-1.72-.22c-1.35.8-2.81 1.41-4.33 1.8-.63.16-1.06.73-1.06 1.37v2.09c0 .89-.73 1.62-1.62 1.62h-3.04c-.89 0-1.62-.73-1.62-1.62v-2.09c0-.65-.44-1.21-1.06-1.37-1.52-.39-2.98-1-4.33-1.8-.68-.41-1.39-.12-1.72.22l-1.48 1.48c-.64.64-1.67.62-2.29 0l-2.15-2.15c-.62-.62-.64-1.65 0-2.29l1.48-1.48c.46-.46.55-1.17.22-1.72-.8-1.35-1.41-2.81-1.8-4.33-.16-.63-.73-1.06-1.37-1.06h-2.09c-.89 0-1.62-.73-1.62-1.62v-3.04c0-.89.73-1.62 1.62-1.62h2.09c.65 0 1.21-.44 1.37-1.06.39-1.52 1-2.98 1.8-4.33.33-.56.24-1.27-.22-1.72l-1.48-1.48c-.64-.64-.62-1.67 0-2.29l2.15-2.15c.62-.62 1.65-.64 2.29 0l1.48 1.48c.46.46 1.17.55 1.72.22 1.35-.8 2.81-1.4 4.33-1.8.63-.16 1.06-.73 1.06-1.37v-2.09c0-.89.73-1.62 1.62-1.62h3.04c.89 0 1.62.73 1.62 1.62v2.09c0 .65.44 1.21 1.06 1.37 1.52.39 2.98 1 4.33 1.8.56.33 1.27.24 1.72-.22l1.48-1.48c.64-.64 1.67-.62 2.29 0l2.15 2.15c.62.62.64 1.65 0 2.29l-1.48 1.48a1.41 1.41 0 0 0-.22 1.72c.8 1.35 1.41 2.81 1.8 4.33.16.63.73 1.06 1.37 1.06h2.09c.89 0 1.62.73 1.62 1.62v3.04Z" class="cls-1"/>
  <path d="M31.99 30.85c-5.8 0-10.52 4.72-10.52 10.52s4.72 10.52 10.52 10.52 10.52-4.72 10.52-10.52-4.72-10.52-10.52-10.52Zm0 18.21c-4.24 0-7.69-3.45-7.69-7.69s3.45-7.69 7.69-7.69 7.69 3.45 7.69 7.69-3.45 7.69-7.69 7.69ZM80.2 24.53c-.52-.74-1.3-1.24-2.19-1.4-.05-.27-.11-.53-.18-.79.74-.52 1.24-1.3 1.4-2.19.16-.89-.04-1.8-.56-2.54l-1-1.43a3.378 3.378 0 0 0-2.78-1.45c-.7 0-1.37.21-1.95.61-.22-.15-.45-.3-.68-.44a3.402 3.402 0 0 0-2.75-3.94l-1.72-.3a3.39 3.39 0 0 0-3.93 2.75c-.27.05-.53.11-.79.18a3.378 3.378 0 0 0-2.78-1.45c-.7 0-1.37.21-1.95.61l-1.43 1c-.74.52-1.24 1.3-1.4 2.19-.16.89.04 1.79.56 2.54-.15.23-.3.45-.44.69-.2-.04-.39-.05-.59-.05-1.65 0-3.06 1.18-3.34 2.8l-.3 1.72c-.33 1.84.91 3.61 2.75 3.93.05.27.11.53.18.79-.74.52-1.24 1.3-1.4 2.19-.16.89.04 1.8.56 2.54l1 1.43c.63.91 1.67 1.45 2.78 1.45.7 0 1.37-.21 1.94-.61.22.15.45.3.68.43-.33 1.84.91 3.61 2.75 3.94l1.72.3a3.39 3.39 0 0 0 3.93-2.75c.27-.05.53-.11.79-.18.63.91 1.67 1.45 2.78 1.45.7 0 1.37-.21 1.95-.61l1.43-1c.74-.51 1.23-1.29 1.39-2.17.16-.9-.03-1.81-.56-2.56.15-.22.3-.45.44-.69.19.04.39.05.59.05a3.39 3.39 0 0 0 3.34-2.8l.3-1.72c.16-.89-.04-1.79-.56-2.54Zm-2.17 3.83c-.08.45-.47.77-.92.77-.05 0-.11 0-.16-.01l-1.19-.21s-.1-.01-.14-.01c-.32 0-.61.18-.74.48-.37.82-.86 1.59-1.45 2.28-.24.28-.26.69-.05 1l.69.99a.93.93 0 0 1-.23 1.3l-1.43 1c-.16.11-.35.17-.53.17-.29 0-.58-.14-.77-.4l-.69-.99a.834.834 0 0 0-.67-.35c-.1 0-.19.02-.29.05-.85.32-1.74.51-2.64.58-.37.03-.68.3-.74.67l-.21 1.19a.94.94 0 0 1-.92.77c-.05 0-.11 0-.16-.01l-1.72-.3a.931.931 0 0 1-.76-1.08l.21-1.19a.838.838 0 0 0-.46-.89c-.82-.37-1.59-.86-2.28-1.45a.807.807 0 0 0-1-.05l-.99.69a.93.93 0 0 1-1.3-.23l-1-1.43c-.29-.42-.2-1 .23-1.3l.99-.69c.31-.21.43-.61.3-.96a9.25 9.25 0 0 1-.58-2.64.819.819 0 0 0-.67-.74l-1.19-.21a.931.931 0 0 1-.76-1.08l.3-1.72c.08-.45.47-.77.92-.77.05 0 .11 0 .16.01l1.19.21s.1.01.14.01c.32 0 .61-.18.74-.48.37-.82.86-1.59 1.45-2.28.24-.28.26-.69.05-1l-.69-.99a.939.939 0 0 1 .23-1.3l1.43-1c.16-.11.35-.17.53-.17.29 0 .58.14.76.4l.69.99c.16.22.41.35.67.35.1 0 .19-.02.29-.05.85-.32 1.74-.51 2.64-.58.37-.03.68-.3.74-.67l.21-1.19c.08-.45.47-.77.92-.77.05 0 .11 0 .16.01l1.72.3c.51.09.85.57.76 1.08l-.21 1.19c-.06.37.13.73.47.89.82.37 1.59.86 2.28 1.45.15.13.34.2.53.2.16 0 .33-.05.47-.15l.99-.69a.93.93 0 0 1 1.3.23l1 1.43c.29.42.2 1-.23 1.3l-.99.69c-.3.21-.43.61-.3.96.32.85.51 1.74.58 2.64.03.37.3.68.67.74l1.19.21c.51.09.84.57.76 1.08l-.3 1.72Z" class="cls-1"/>
</svg>
