<svg xmlns="http://www.w3.org/2000/svg" id="Layer_1" data-name="Layer 1" viewBox="0 0 88.51 78.39"><defs><style>.cls-1{fill:#282d5b}</style></defs><path d="M35.6 26.2c3.47 0 6.29-2.82 6.29-6.29s-2.82-6.29-6.29-6.29-6.29 2.82-6.29 6.29 2.82 6.29 6.29 6.29m0-9.67c1.87 0 3.38 1.52 3.38 3.39s-1.52 3.38-3.38 3.38-3.39-1.52-3.39-3.39 1.52-3.38 3.39-3.38M53.01 26.2c3.47 0 6.29-2.82 6.29-6.29s-2.82-6.29-6.29-6.29-6.29 2.82-6.29 6.29 2.82 6.29 6.29 6.29m0-9.67c1.87 0 3.38 1.52 3.38 3.39s-1.52 3.38-3.38 3.38-3.39-1.52-3.39-3.39 1.52-3.38 3.39-3.38M58.81 29.1H29.79c-4 0-7.25 3.25-7.25 7.25v8.7c0 1.16.45 2.26 1.27 3.08a4.344 4.344 0 0 0 4.53 1.03v17.5h14.51V37.81h2.9v28.85h14.51v-17.5a4.353 4.353 0 0 0 5.8-4.1v-8.7c0-4-3.25-7.25-7.25-7.25m4.35 15.96a1.451 1.451 0 0 1-2.9 0V34.91h-2.9v28.85h-2.9v-18.7h-2.9v18.7h-2.9V34.91h-8.7v28.85h-2.9v-18.7h-2.9v18.7h-2.9V34.9h-2.9v10.16c0 .8-.65 1.45-1.45 1.45-.39 0-.75-.15-1.03-.42-.27-.27-.43-.64-.43-1.03v-8.7c0-2.4 1.95-4.35 4.35-4.35h29.02c2.4 0 4.35 1.95 4.35 4.35v8.7Z" class="cls-1"/></svg>