<svg xmlns="http://www.w3.org/2000/svg" id="Layer_1" data-name="Layer 1" viewBox="0 0 88.51 78.39">
  <defs>
    <style>
      .cls-1{stroke-width:3.23px;fill:none;stroke:#282d5b;stroke-linecap:round;stroke-linejoin:round}
    </style>
  </defs>
  <path d="m72.79 40.86-28.22-28.2-28.22 28.2" class="cls-1"/>
  <path d="M64 32v29.93H25.13V32m33.98-4.8V17.06" class="cls-1"/>
  <path d="M57.2 33.07c0-.07-.07-.15-.11-.15-.07 0-.15 0-.18.04l-3.26 3.19-3.37-3.37 3.26-3.26c.07-.07.07-.18 0-.25l-.07-.04c-2.47-.54-5 .18-6.85 1.89-1.74 1.74-1.31 3.77-1.02 5.11.04.18.07.4.11.54-1.16 1.23-6.15 6.68-7.45 7.92-.15-.04-.29-.07-.47-.11-1.34-.33-3.3-.8-5.11.98-1.7 1.81-2.43 4.35-1.89 6.78.04.11.11.15.22.15.04 0 .07-.04.07-.04l3.26-3.19 3.37 3.37-3.26 3.26c-.07.07-.07.18 0 .25l.07.04c.51.11 1.05.18 1.6.18 1.96 0 3.84-.73 5.26-2.1 1.74-1.74 1.31-3.77 1.02-5.11-.04-.18-.07-.4-.11-.54 1.16-1.23 6.15-6.68 7.45-7.92l.47.11c1.31.33 3.34.83 5.11-.94 1.7-1.81 2.39-4.35 1.89-6.78Z" style="stroke-width:2px;fill:none;stroke:#282d5b;stroke-linecap:round;stroke-linejoin:round"/>
</svg>
