<svg width="44" height="68" viewBox="0 0 44 68" fill="none" xmlns="http://www.w3.org/2000/svg">
<path fill-rule="evenodd" clip-rule="evenodd" d="M3.00586 22.2892C3.00586 11.799 11.5098 3.29504 22 3.29504C32.4902 3.29504 40.9942 11.799 40.9942 22.2892C40.9942 28.912 37.6048 34.743 32.4659 38.1424C32.3378 38.2017 32.2202 38.2782 32.1157 38.3686C29.1868 40.2151 25.7182 41.2834 22 41.2834C11.5098 41.2834 3.00586 32.7794 3.00586 22.2892ZM31.9052 41.9321C28.9283 43.4361 25.5631 44.2834 22 44.2834C18.4383 44.2834 15.0742 43.4368 12.0982 41.9338L9.25799 63.3177L21.2283 56.1356C21.7033 55.8505 22.2968 55.8505 22.7718 56.1356L34.7426 63.318L31.9052 41.9321ZM9.29611 40.2456C3.67475 36.2614 0.00585938 29.7038 0.00585938 22.2892C0.00585938 10.1422 9.85299 0.295044 22 0.295044C34.1471 0.295044 43.9942 10.1422 43.9942 22.2892C43.9942 29.7023 40.3268 36.2587 34.7074 40.2432L38.1257 66.0077C38.2015 66.5787 37.9436 67.1426 37.4622 67.4588C36.9808 67.775 36.3609 67.7876 35.867 67.4913L22 59.1711L8.13307 67.4913C7.63916 67.7876 7.01918 67.775 6.53777 67.4587C6.05636 67.1425 5.79855 66.5785 5.87439 66.0075L9.29611 40.2456Z" fill="#9298B0"/>
</svg>
