<svg width="57" height="52" viewBox="0 0 57 52" fill="none" xmlns="http://www.w3.org/2000/svg">
<path fill-rule="evenodd" clip-rule="evenodd" d="M2 0.5C1.17157 0.5 0.5 1.17157 0.5 2V42C0.5 42.8284 1.17157 43.5 2 43.5H20.6667C22.3906 43.5 24.0439 44.1848 25.2629 45.4038C26.4509 46.5919 27.1316 48.1925 27.1653 49.8689V50C27.1653 50.8284 27.8369 51.5 28.6653 51.5C28.6656 51.5 28.6658 51.5 28.666 51.5C28.6662 51.5 28.6664 51.5 28.6667 51.5C29.4951 51.5 30.1667 50.8284 30.1667 50V49.8689C30.2004 48.1925 30.8811 46.5919 32.0691 45.4038C33.2881 44.1848 34.9414 43.5 36.6653 43.5H55.332C56.1604 43.5 56.832 42.8284 56.832 42V2C56.832 1.17157 56.1604 0.5 55.332 0.5H39.332C36.1052 0.5 33.0106 1.78184 30.7289 4.06353C29.9072 4.88522 29.2152 5.81233 28.666 6.81307C28.1168 5.81233 27.4248 4.88522 26.6031 4.06353C24.3214 1.78184 21.2268 0.5 18 0.5H2ZM30.1667 43.0705V12.6667C30.1667 12.6275 30.1665 12.5883 30.1661 12.5491C30.1967 10.1605 31.1588 7.87621 32.8502 6.18485C34.5693 4.46577 36.9009 3.5 39.332 3.5H53.832V40.5H36.6653C34.2475 40.5 31.9247 41.4217 30.1667 43.0705ZM27.1659 12.5491C27.1353 10.1605 26.1732 7.87621 24.4818 6.18485C22.7627 4.46577 20.4312 3.5 18 3.5H3.5V40.5H20.6667C23.0845 40.5 25.4073 41.4217 27.1653 43.0705V12.6667C27.1653 12.6275 27.1655 12.5883 27.1659 12.5491Z" fill="#7C83A0"/>
</svg>
