<?xml version="1.0" encoding="UTF-8"?>
<!DOCTYPE svg PUBLIC "-//W3C//DTD SVG 1.1//EN" "http://www.w3.org/Graphics/SVG/1.1/DTD/svg11.dtd">
<svg xmlns="http://www.w3.org/2000/svg" version="1.1" width="369px" height="327px" style="shape-rendering:geometricPrecision; text-rendering:geometricPrecision; image-rendering:optimizeQuality; fill-rule:evenodd; clip-rule:evenodd" xmlns:xlink="http://www.w3.org/1999/xlink">
<g><path style="opacity:0.814" fill="#fdfdfd" d="M 151.5,46.5 C 173.22,46.0444 194.887,46.5444 216.5,48C 221.333,50.1667 224.833,53.6667 227,58.5C 228.68,65.7578 229.846,73.0911 230.5,80.5C 250.169,80.3334 269.836,80.5 289.5,81C 301.92,83.4196 308.753,90.9196 310,103.5C 310.167,127.333 310.333,151.167 310.5,175C 310.639,200.867 310.139,226.7 309,252.5C 305.985,261.514 299.818,267.014 290.5,269C 218.167,269.667 145.833,269.667 73.5,269C 64.1819,267.014 58.0152,261.514 55,252.5C 54.3333,200.833 54.3333,149.167 55,97.5C 58.1244,88.0444 64.6244,82.5444 74.5,81C 94.1638,80.5 113.831,80.3334 133.5,80.5C 134.088,71.538 135.921,62.8714 139,54.5C 142.378,50.406 146.545,47.7393 151.5,46.5 Z M 155.5,64.5 C 173.17,64.3334 190.836,64.5001 208.5,65C 210.427,69.553 211.76,74.3863 212.5,79.5C 192.175,80.6664 171.842,80.8331 151.5,80C 152.24,74.585 153.573,69.4183 155.5,64.5 Z M 77.5,98.5 C 147.167,98.3333 216.834,98.5 286.5,99C 288.492,99.5743 289.992,100.741 291,102.5C 291.667,118.167 291.667,133.833 291,149.5C 287.735,159.431 280.902,164.931 270.5,166C 251.503,166.5 232.503,166.667 213.5,166.5C 213.666,162.154 213.499,157.821 213,153.5C 211.878,151.376 210.378,149.543 208.5,148C 199.833,147.833 191.167,147.667 182.5,147.5C 173.071,147.359 163.737,147.859 154.5,149C 152.951,150.214 151.785,151.714 151,153.5C 150.501,157.821 150.334,162.154 150.5,166.5C 131.497,166.667 112.497,166.5 93.5,166C 83.0983,164.931 76.265,159.431 73,149.5C 72.3333,133.833 72.3333,118.167 73,102.5C 74.2499,100.807 75.7499,99.4732 77.5,98.5 Z M 168.5,165.5 C 177.5,165.5 186.5,165.5 195.5,165.5C 195.83,171.868 195.496,178.202 194.5,184.5C 190.414,186.96 186.247,189.293 182,191.5C 177.753,189.293 173.586,186.96 169.5,184.5C 168.504,178.202 168.17,171.868 168.5,165.5 Z M 72.5,178.5 C 78.0894,181.566 84.0894,183.399 90.5,184C 110.497,184.5 130.497,184.667 150.5,184.5C 149.923,189.081 150.923,193.248 153.5,197C 162.695,202.599 172.361,207.099 182.5,210.5C 192.159,206.838 201.493,202.338 210.5,197C 213.077,193.248 214.077,189.081 213.5,184.5C 233.503,184.667 253.503,184.5 273.5,184C 279.622,183.553 285.289,181.72 290.5,178.5C 291.666,201.826 291.833,225.16 291,248.5C 290.097,249.701 288.931,250.535 287.5,251C 217.167,251.667 146.833,251.667 76.5,251C 74.6667,250.5 73.5,249.333 73,247.5C 72.5,224.502 72.3334,201.502 72.5,178.5 Z"/></g>
<g><path style="opacity:1" fill="#2d315f" d="M 150.5,49.5 C 172.233,49.033 193.9,49.533 215.5,51C 220.4,52.9018 223.567,56.4018 225,61.5C 226.631,68.7469 227.464,76.0802 227.5,83.5C 248.503,83.3334 269.503,83.5 290.5,84C 297.519,86.3513 302.686,90.8513 306,97.5C 307.653,147.775 307.986,198.108 307,248.5C 304.945,257.124 299.778,262.957 291.5,266C 218.5,266.667 145.5,266.667 72.5,266C 64.5126,263.221 59.3459,257.721 57,249.5C 56.0138,198.775 56.3472,148.108 58,97.5C 61.3141,90.8513 66.4808,86.3513 73.5,84C 94.4974,83.5 115.497,83.3334 136.5,83.5C 136.874,75.0511 138.04,66.7177 140,58.5C 142.505,54.1888 146.005,51.1888 150.5,49.5 Z M 155.5,64.5 C 153.573,69.4183 152.24,74.585 151.5,80C 171.842,80.8331 192.175,80.6664 212.5,79.5C 211.76,74.3863 210.427,69.553 208.5,65C 190.836,64.5001 173.17,64.3334 155.5,64.5 Z M 77.5,98.5 C 75.7499,99.4732 74.2499,100.807 73,102.5C 72.3333,118.167 72.3333,133.833 73,149.5C 76.265,159.431 83.0983,164.931 93.5,166C 112.497,166.5 131.497,166.667 150.5,166.5C 150.334,162.154 150.501,157.821 151,153.5C 151.785,151.714 152.951,150.214 154.5,149C 163.737,147.859 173.071,147.359 182.5,147.5C 191.167,147.667 199.833,147.833 208.5,148C 210.378,149.543 211.878,151.376 213,153.5C 213.499,157.821 213.666,162.154 213.5,166.5C 232.503,166.667 251.503,166.5 270.5,166C 280.902,164.931 287.735,159.431 291,149.5C 291.667,133.833 291.667,118.167 291,102.5C 289.992,100.741 288.492,99.5743 286.5,99C 216.834,98.5 147.167,98.3333 77.5,98.5 Z M 168.5,165.5 C 168.17,171.868 168.504,178.202 169.5,184.5C 173.586,186.96 177.753,189.293 182,191.5C 186.247,189.293 190.414,186.96 194.5,184.5C 195.496,178.202 195.83,171.868 195.5,165.5C 186.5,165.5 177.5,165.5 168.5,165.5 Z M 72.5,178.5 C 72.3334,201.502 72.5,224.502 73,247.5C 73.5,249.333 74.6667,250.5 76.5,251C 146.833,251.667 217.167,251.667 287.5,251C 288.931,250.535 290.097,249.701 291,248.5C 291.833,225.16 291.666,201.826 290.5,178.5C 285.289,181.72 279.622,183.553 273.5,184C 253.503,184.5 233.503,184.667 213.5,184.5C 214.077,189.081 213.077,193.248 210.5,197C 201.493,202.338 192.159,206.838 182.5,210.5C 172.361,207.099 162.695,202.599 153.5,197C 150.923,193.248 149.923,189.081 150.5,184.5C 130.497,184.667 110.497,184.5 90.5,184C 84.0894,183.399 78.0894,181.566 72.5,178.5 Z"/></g>
<g><path style="opacity:0.848" fill="#fbfbfc" d="M 152.5,62.5 C 172.169,62.3334 191.836,62.5 211.5,63C 212,63.5 212.5,64 213,64.5C 213.916,70.8325 214.75,77.1659 215.5,83.5C 193.167,83.5 170.833,83.5 148.5,83.5C 148.917,76.2115 150.25,69.2115 152.5,62.5 Z M 155.5,64.5 C 153.573,69.4183 152.24,74.585 151.5,80C 171.842,80.8331 192.175,80.6664 212.5,79.5C 211.76,74.3863 210.427,69.553 208.5,65C 190.836,64.5001 173.17,64.3334 155.5,64.5 Z"/></g>
<g><path style="opacity:0.899" fill="#fbfafc" d="M 73.5,96.5 C 146.249,96.0064 218.916,96.5064 291.5,98C 292.701,98.9025 293.535,100.069 294,101.5C 294.667,117.833 294.667,134.167 294,150.5C 291.389,160.112 285.222,165.945 275.5,168C 253.836,168.5 232.169,168.667 210.5,168.5C 210.666,163.489 210.499,158.489 210,153.5C 209.167,152.667 208.333,151.833 207.5,151C 190.5,150.333 173.5,150.333 156.5,151C 155.667,151.833 154.833,152.667 154,153.5C 153.501,158.489 153.334,163.489 153.5,168.5C 131.497,168.667 109.497,168.5 87.5,168C 78.3333,165.5 72.5,159.667 70,150.5C 69.3333,134.167 69.3333,117.833 70,101.5C 70.9973,99.6769 72.1639,98.0103 73.5,96.5 Z M 77.5,98.5 C 75.7499,99.4732 74.2499,100.807 73,102.5C 72.3333,118.167 72.3333,133.833 73,149.5C 76.265,159.431 83.0983,164.931 93.5,166C 112.497,166.5 131.497,166.667 150.5,166.5C 150.334,162.154 150.501,157.821 151,153.5C 151.785,151.714 152.951,150.214 154.5,149C 163.737,147.859 173.071,147.359 182.5,147.5C 191.167,147.667 199.833,147.833 208.5,148C 210.378,149.543 211.878,151.376 213,153.5C 213.499,157.821 213.666,162.154 213.5,166.5C 232.503,166.667 251.503,166.5 270.5,166C 280.902,164.931 287.735,159.431 291,149.5C 291.667,133.833 291.667,118.167 291,102.5C 289.992,100.741 288.492,99.5743 286.5,99C 216.834,98.5 147.167,98.3333 77.5,98.5 Z"/></g>
<g><path style="opacity:0.87" fill="#f7f6f9" d="M 166.5,162.5 C 177.167,162.5 187.833,162.5 198.5,162.5C 198.831,170.528 198.498,178.528 197.5,186.5C 192.239,189.047 187.073,191.713 182,194.5C 177.016,191.841 172.016,189.174 167,186.5C 166.5,178.507 166.334,170.507 166.5,162.5 Z M 168.5,165.5 C 168.17,171.868 168.504,178.202 169.5,184.5C 173.586,186.96 177.753,189.293 182,191.5C 186.247,189.293 190.414,186.96 194.5,184.5C 195.496,178.202 195.83,171.868 195.5,165.5C 186.5,165.5 177.5,165.5 168.5,165.5 Z"/></g>
<g><path style="opacity:1" fill="#535078" d="M 70.5,172.5 C 69.5023,196.994 69.169,221.661 69.5,246.5C 68.171,221.663 68.171,196.663 69.5,171.5C 70.1067,171.624 70.44,171.957 70.5,172.5 Z"/></g>
<g><path style="opacity:0.807" fill="#f6f6f8" d="M 70.5,172.5 C 75.278,176.889 80.9447,179.722 87.5,181C 109.497,181.5 131.497,181.667 153.5,181.5C 153.335,185.182 153.501,188.848 154,192.5C 162.648,198.823 171.982,203.823 182,207.5C 192.018,203.823 201.352,198.823 210,192.5C 210.499,188.848 210.665,185.182 210.5,181.5C 232.169,181.667 253.836,181.5 275.5,181C 282.458,179.97 288.458,177.137 293.5,172.5C 294.498,196.994 294.831,221.661 294.5,246.5C 293.817,250.02 291.817,252.52 288.5,254C 217.5,254.667 146.5,254.667 75.5,254C 72.1828,252.52 70.1828,250.02 69.5,246.5C 69.169,221.661 69.5023,196.994 70.5,172.5 Z M 72.5,178.5 C 72.3334,201.502 72.5,224.502 73,247.5C 73.5,249.333 74.6667,250.5 76.5,251C 146.833,251.667 217.167,251.667 287.5,251C 288.931,250.535 290.097,249.701 291,248.5C 291.833,225.16 291.666,201.826 290.5,178.5C 285.289,181.72 279.622,183.553 273.5,184C 253.503,184.5 233.503,184.667 213.5,184.5C 214.077,189.081 213.077,193.248 210.5,197C 201.493,202.338 192.159,206.838 182.5,210.5C 172.361,207.099 162.695,202.599 153.5,197C 150.923,193.248 149.923,189.081 150.5,184.5C 130.497,184.667 110.497,184.5 90.5,184C 84.0894,183.399 78.0894,181.566 72.5,178.5 Z"/></g>
<g><path style="opacity:1" fill="#535078" d="M 293.5,172.5 C 293.56,171.957 293.893,171.624 294.5,171.5C 295.829,196.663 295.829,221.663 294.5,246.5C 294.831,221.661 294.498,196.994 293.5,172.5 Z"/></g>
</svg>
