<svg xmlns="http://www.w3.org/2000/svg" data-name="Layer 1" viewBox="13.18 11.43 61.25 53.24">   <path d="M68.72 19.9H55.14l-.67-4.62c-.29-2.02-2.06-3.55-4.1-3.55H37.24c-2.04 0-3.8 1.52-4.1 3.55l-.67 4.62H18.89a5.42 5.42 0 0 0-5.41 5.41v33.66a5.42 5.42 0 0 0 5.41 5.41h49.84a5.42 5.42 0 0 0 5.41-5.41V25.31a5.42 5.42 0 0 0-5.41-5.41Zm-32.05-4.11a.58.58 0 0 1 .57-.49h13.13c.28 0 .53.21.57.49l.6 4.11H36.08l.6-4.11Zm33.89 43.18c0 1.02-.83 1.84-1.84 1.84H18.89c-1.02 0-1.84-.83-1.84-1.84V41.96a9.174 9.174 0 0 0 5.68 1.96h13.94v1.74c0 .66.36 1.26.94 1.57l5.35 2.85c.26.14.55.21.84.21s.58-.07.84-.21l5.35-2.85c.58-.31.94-.92.94-1.57v-1.74h13.94c2.14 0 4.11-.73 5.68-1.96v17.01ZM40.23 44.6v-5.15h7.14v5.15l-3.57 1.9-3.57-1.9Zm30.33-9.93c0 3.13-2.55 5.68-5.68 5.68H50.94v-2.7c0-.99-.8-1.78-1.78-1.78h-10.7c-.99 0-1.78.8-1.78 1.78v2.7H22.74c-3.13 0-5.68-2.55-5.68-5.68v-9.36c0-.89.63-1.63 1.47-1.8.12-.02.24-.04.37-.04h49.84c.13 0 .25.01.37.04.84.17 1.47.92 1.47 1.8v9.36Z" style="fill:#243060;stroke:#fff;stroke-miterlimit:10;stroke-width:.59px"></path> </svg>