<svg xmlns="http://www.w3.org/2000/svg" data-name="Layer 1" viewBox="0 0 61.21 57.69">
  <path d="M53.11 49.79c0 3.63-2.95 6.57-6.58 6.58H14.6c-3.63 0-6.57-2.95-6.58-6.58V8.58c0-3.63 2.95-6.57 6.58-6.58h31.94c3.63 0 6.57 2.95 6.58 6.58v41.21Z" style="fill:none;stroke:#fff;stroke-linecap:round;stroke-linejoin:round;stroke-width:2.9px"/>
  <path d="M27.75 45.1c-.52 0-.94.42-.94.94v3.76c0 .52.42.94.94.94h5.64c.52 0 .94-.42.94-.94v-3.76c0-.52-.42-.94-.94-.94h-5.64Zm-13.15 0c-.52 0-.94.42-.94.94v3.76c0 .52.42.94.94.94h5.64c.52 0 .94-.42.94-.94v-3.76c0-.52-.42-.94-.94-.94H14.6Zm26.3-11.28c-.52 0-.94.42-.94.94v15.03c0 .52.42.94.94.94h5.64c.52 0 .94-.42.94-.94V34.76c0-.52-.42-.94-.94-.94H40.9Zm-13.15 0c-.52 0-.94.42-.94.94v3.76c0 .52.42.94.94.94h5.64c.52 0 .94-.42.94-.94v-3.76c0-.52-.42-.94-.94-.94h-5.64Zm-13.15 0c-.52 0-.94.42-.94.94v3.76c0 .52.42.94.94.94h5.64c.52 0 .94-.42.94-.94v-3.76c0-.52-.42-.94-.94-.94H14.6Zm13.15-11.27c-.52 0-.94.42-.94.94v3.76c0 .52.42.94.94.94h5.64c.52 0 .94-.42.94-.94v-3.76c0-.52-.42-.94-.94-.94h-5.64Zm-13.15 0c-.52 0-.94.42-.94.94v3.76c0 .52.42.94.94.94h5.64c.52 0 .94-.42.94-.94v-3.76c0-.52-.42-.94-.94-.94H14.6Zm26.3 0c-.52 0-.94.42-.94.94v3.76c0 .52.42.94.94.94h5.64c.52 0 .94-.42.94-.94v-3.76c0-.52-.42-.94-.94-.94H40.9Zm5.63-5.51c.52 0 .94-.42.94-.94V8.59c0-.52-.42-.94-.94-.94H14.6c-.52 0-.94.42-.94.94v7.51c0 .52.42.94.94.94.85.18 31.94 0 31.94 0Z" style="fill:none;stroke:#fff;stroke-linecap:round;stroke-linejoin:round;stroke-width:2.74px"/>
</svg>
