<?xml version="1.0" standalone="no"?>
<!DOCTYPE svg PUBLIC "-//W3C//DTD SVG 20010904//EN"
 "http://www.w3.org/TR/2001/REC-SVG-20010904/DTD/svg10.dtd">
<svg version="1.0" xmlns="http://www.w3.org/2000/svg"
 width="369.000000pt" height="327.000000pt" viewBox="0 0 369.000000 327.000000"
 preserveAspectRatio="xMidYMid meet">

<g transform="translate(0.000000,327.000000) scale(0.100000,-0.100000)"
fill="#000000" stroke="none">
<path d="M1097 2809 c-96 -23 -182 -94 -226 -188 l-26 -56 0 -980 0 -980 29
-59 c37 -75 93 -131 165 -165 l56 -26 745 0 745 0 67 33 c76 37 120 82 157
162 l26 55 0 980 0 980 -33 67 c-37 76 -82 120 -162 157 l-55 26 -725 2 c-403
1 -742 -3 -763 -8z m1477 -121 c52 -16 121 -84 136 -135 8 -27 10 -311 8 -990
l-3 -951 -30 -44 c-20 -28 -49 -52 -85 -71 l-54 -27 -716 2 -717 3 -48 30
c-36 22 -57 45 -77 84 l-28 54 2 952 3 952 30 48 c22 36 45 57 84 77 l53 28
700 0 c526 0 711 -3 742 -12z"/>
<path d="M1109 2551 l-29 -29 0 -191 0 -191 29 -32 29 -33 273 -3 c151 -3 468
-1 706 3 l433 7 25 26 25 25 0 194 0 195 -29 29 -29 29 -702 0 -702 0 -29 -29z
m1381 -221 l0 -140 -650 0 -650 0 0 133 c0 74 3 137 7 140 3 4 296 7 650 7
l643 0 0 -140z"/>
<path d="M1135 1866 c-44 -19 -55 -53 -55 -172 0 -103 1 -106 29 -135 l29 -29
155 0 c149 0 155 1 180 24 32 30 40 71 36 180 -4 78 -7 88 -32 113 -27 28 -29
28 -170 30 -103 2 -150 -1 -172 -11z m255 -166 l0 -61 -97 3 -98 3 -3 58 -3
57 101 0 100 0 0 -60z"/>
<path d="M1683 1866 c-17 -8 -36 -23 -42 -35 -6 -11 -11 -70 -11 -131 0 -110
0 -112 29 -141 l29 -29 147 0 c210 0 214 3 215 172 0 109 -2 119 -24 145 l-24
28 -144 2 c-106 2 -151 -1 -175 -11z m257 -166 l0 -60 -100 0 -100 0 0 60 0
60 100 0 100 0 0 -60z"/>
<path d="M2234 1870 c-45 -18 -54 -47 -54 -170 1 -166 5 -170 215 -170 l147 0
29 29 c29 29 29 31 29 141 0 61 -5 120 -11 132 -20 37 -69 48 -206 47 -70 0
-138 -4 -149 -9z m256 -170 l0 -60 -100 0 -100 0 0 60 0 60 100 0 100 0 0 -60z"/>
<path d="M1135 1396 c-44 -19 -55 -53 -55 -172 0 -103 1 -106 29 -135 l29 -29
155 0 c149 0 155 1 180 24 32 30 40 71 36 180 -4 78 -7 88 -32 113 -27 28 -29
28 -170 30 -103 2 -150 -1 -172 -11z m255 -166 l0 -61 -97 3 -98 3 -3 58 -3
57 101 0 100 0 0 -60z"/>
<path d="M1678 1395 c-42 -23 -48 -45 -48 -165 0 -110 0 -112 29 -141 l29 -29
147 0 c210 0 214 3 215 172 0 109 -2 119 -24 145 l-24 28 -149 2 c-117 2 -154
0 -175 -12z m262 -165 l0 -60 -100 0 -100 0 0 60 0 60 100 0 100 0 0 -60z"/>
<path d="M2234 1400 c-53 -21 -54 -27 -54 -405 1 -259 4 -354 13 -366 25 -33
55 -39 202 -39 l147 0 29 29 29 29 0 347 c0 218 -4 353 -10 366 -22 39 -61 49
-202 48 -73 0 -143 -4 -154 -9z m256 -405 l0 -295 -100 0 -100 0 0 295 0 295
100 0 100 0 0 -295z"/>
<path d="M1131 926 c-41 -23 -50 -53 -51 -169 0 -107 0 -109 29 -138 l29 -29
147 0 c171 0 198 8 216 68 6 22 10 79 8 130 -4 84 -6 94 -32 119 -27 28 -29
28 -175 31 -110 1 -153 -1 -171 -12z m259 -166 l0 -61 -97 3 -98 3 -3 58 -3
57 101 0 100 0 0 -60z"/>
<path d="M1678 925 c-42 -23 -48 -45 -48 -165 0 -110 0 -112 29 -141 l29 -29
147 0 c210 0 214 3 215 172 0 109 -2 119 -24 145 l-24 28 -149 2 c-117 2 -154
0 -175 -12z m262 -165 l0 -60 -100 0 -100 0 0 60 0 60 100 0 100 0 0 -60z"/>
</g>
</svg>
