<svg xmlns="http://www.w3.org/2000/svg" data-name="Layer 1" viewBox="0 0 88.51 78.39">
  <path d="M66.73 62.04c0 3.63-2.95 6.57-6.58 6.58H28.21c-3.63 0-6.57-2.95-6.58-6.58V18.83c0-3.63 2.95-6.57 6.58-6.58h31.94c3.63 0 6.57 2.95 6.58 6.58v43.21Z" style="fill:none;stroke:#7c83a0;stroke-linecap:round;stroke-linejoin:round;stroke-width:2.9px"/>
  <path d="M41.37 57.34c-.52 0-.94.42-.94.94v3.76c0 .52.42.94.94.94h5.64c.52 0 .94-.42.94-.94v-3.76c0-.52-.42-.94-.94-.94h-5.64Zm-13.15 0c-.52 0-.94.42-.94.94v3.76c0 .52.42.94.94.94h5.64c.52 0 .94-.42.94-.94v-3.76c0-.52-.42-.94-.94-.94h-5.64Zm26.3-11.27c-.52 0-.94.42-.94.94v15.03c0 .52.42.94.94.94h5.64c.52 0 .94-.42.94-.94V47.01c0-.52-.42-.94-.94-.94h-5.64Zm-13.15 0c-.52 0-.94.42-.94.94v3.76c0 .52.42.94.94.94h5.64c.52 0 .94-.42.94-.94v-3.76c0-.52-.42-.94-.94-.94h-5.64Zm-13.15 0c-.52 0-.94.42-.94.94v3.76c0 .52.42.94.94.94h5.64c.52 0 .94-.42.94-.94v-3.76c0-.52-.42-.94-.94-.94h-5.64ZM41.37 34.8c-.52 0-.94.42-.94.94v3.76c0 .52.42.94.94.94h5.64c.52 0 .94-.42.94-.94v-3.76c0-.52-.42-.94-.94-.94h-5.64Zm-13.15 0c-.52 0-.94.42-.94.94v3.76c0 .52.42.94.94.94h5.64c.52 0 .94-.42.94-.94v-3.76c0-.52-.42-.94-.94-.94h-5.64Zm26.3 0c-.52 0-.94.42-.94.94v3.76c0 .52.42.94.94.94h5.64c.52 0 .94-.42.94-.94v-3.76c0-.52-.42-.94-.94-.94h-5.64Zm5.63-7.52c.52 0 .94-.42.94-.94v-7.51c0-.52-.42-.94-.94-.94H28.21c-.52 0-.94.42-.94.94v7.51c0 .52.42.94.94.94.85.18 31.94 0 31.94 0Z" style="fill:none;stroke:#7c83a0;stroke-linecap:round;stroke-linejoin:round;stroke-width:2.74px"/>
</svg>
