<?xml version="1.0" standalone="no"?>
<!DOCTYPE svg PUBLIC "-//W3C//DTD SVG 20010904//EN"
 "http://www.w3.org/TR/2001/REC-SVG-20010904/DTD/svg10.dtd">
<svg version="1.0" xmlns="http://www.w3.org/2000/svg"
 width="369.000000pt" height="327.000000pt" viewBox="0 0 369.000000 327.000000"
 preserveAspectRatio="xMidYMid meet">

<g transform="translate(0.000000,327.000000) scale(0.100000,-0.100000)"
fill="#000000" stroke="none">
<path d="M1257 2735 c-77 -27 -109 -73 -117 -165 l-5 -65 -135 -5 c-155 -6
-192 -19 -254 -92 -68 -79 -67 -65 -64 -849 l3 -704 25 -49 c14 -27 42 -64 64
-82 75 -65 69 -64 701 -64 l572 0 67 -44 c188 -123 445 -139 651 -41 445 214
508 832 115 1129 l-65 49 -5 281 c-6 309 -6 313 -74 384 -57 61 -98 76 -226
82 l-115 5 -5 65 c-9 113 -60 165 -173 177 -65 6 -127 -10 -167 -43 -43 -36
-53 -59 -59 -134 l-6 -65 -220 0 -220 0 -5 65 c-6 74 -17 97 -60 134 -54 45
-148 58 -223 31z m144 -124 c22 -18 24 -27 27 -141 6 -193 -5 -220 -87 -220
-83 0 -86 6 -89 179 -3 150 -3 151 22 176 31 31 92 34 127 6z m858 -7 c19 -24
21 -40 21 -170 0 -170 -6 -184 -87 -184 -80 0 -83 8 -83 191 0 152 1 158 22
173 12 9 41 16 64 16 34 0 47 -5 63 -26z m-1119 -289 c9 -127 72 -185 198
-185 130 0 193 58 202 185 l5 70 220 0 220 0 3 -45 c4 -84 13 -111 49 -150 40
-45 82 -60 163 -60 69 0 129 27 161 71 18 25 25 51 29 109 l5 75 98 -1 c108 0
131 -10 175 -74 21 -32 22 -41 22 -266 0 -129 -3 -234 -7 -234 -5 1 -35 7 -68
15 -33 8 -79 15 -102 15 -39 0 -43 2 -43 26 0 56 -13 64 -108 64 -55 0 -92 -4
-100 -12 -7 -7 -12 -35 -12 -64 0 -51 0 -52 -41 -68 -59 -24 -136 -75 -200
-134 -49 -44 -63 -52 -97 -52 -22 0 -44 -6 -50 -13 -6 -7 -12 -55 -14 -107 -3
-52 -12 -129 -22 -170 -35 -147 -5 -335 73 -469 17 -29 31 -54 31 -56 0 -3
-231 -5 -514 -5 l-513 0 -34 23 c-72 48 -69 14 -69 775 0 727 0 723 48 765 38
34 92 47 192 44 l95 -2 5 -70z m1470 -610 c190 -50 346 -205 395 -390 19 -76
19 -204 0 -280 -49 -185 -205 -340 -395 -390 -264 -70 -561 91 -652 352 -33
97 -33 259 0 356 54 154 194 291 350 341 91 30 216 34 302 11z"/>
<path d="M1062 1918 c-16 -16 -16 -170 0 -186 8 -8 45 -12 100 -12 104 0 108
4 108 105 0 101 -4 105 -108 105 -55 0 -92 -4 -100 -12z"/>
<path d="M1462 1918 c-7 -7 -12 -43 -12 -93 0 -50 5 -86 12 -93 8 -8 45 -12
100 -12 104 0 108 4 108 105 0 101 -4 105 -108 105 -55 0 -92 -4 -100 -12z"/>
<path d="M1862 1918 c-7 -7 -12 -43 -12 -93 0 -50 5 -86 12 -93 8 -8 45 -12
100 -12 104 0 108 4 108 105 0 101 -4 105 -108 105 -55 0 -92 -4 -100 -12z"/>
<path d="M1062 1588 c-16 -16 -16 -170 0 -186 8 -8 45 -12 100 -12 104 0 108
4 108 105 0 101 -4 105 -108 105 -55 0 -92 -4 -100 -12z"/>
<path d="M1462 1588 c-7 -7 -12 -43 -12 -93 0 -50 5 -86 12 -93 8 -8 45 -12
100 -12 104 0 108 4 108 105 0 101 -4 105 -108 105 -55 0 -92 -4 -100 -12z"/>
<path d="M1062 1258 c-16 -16 -16 -170 0 -186 19 -19 173 -16 192 4 20 19 23
163 4 182 -7 7 -44 12 -98 12 -54 0 -91 -5 -98 -12z"/>
<path d="M1462 1258 c-7 -7 -12 -43 -12 -93 0 -50 5 -86 12 -93 19 -19 173
-16 192 4 20 19 23 163 4 182 -7 7 -44 12 -98 12 -54 0 -91 -5 -98 -12z"/>
<path d="M2430 1580 c-19 -19 -20 -33 -20 -245 l0 -225 158 0 c181 0 202 7
202 65 0 52 -26 65 -137 65 l-93 0 0 160 c0 147 -2 162 -20 180 -11 11 -31 20
-45 20 -14 0 -34 -9 -45 -20z"/>
</g>
</svg>
