<svg xmlns="http://www.w3.org/2000/svg" id="Layer_1" data-name="Layer 1" viewBox="16.32 12.53 59.13 53.78">   <defs>     <style>       .cls-1{stroke:#243060;stroke-width:2.9px;stroke-miterlimit:10;fill:#fff}     </style>   </defs>   <rect width="48.27" height="41.43" x="17.77" y="19.82" rx="5" ry="5" style="fill:none;stroke-miterlimit:10;stroke-width:2.9px;stroke:#243060"></rect>   <rect width="6.92" height="11.93" x="28.69" y="13.98" class="cls-1" rx="2.77" ry="2.77"></rect>   <rect width="6.92" height="11.93" x="49.14" y="13.98" class="cls-1" rx="2.77" ry="2.77"></rect>   <path d="M26.26 33.16h3.13v3.06h-3.13zm9.6 0h3.13v3.06h-3.13zm9.6 0h3.13v3.06h-3.13zm9.6 0h3.13v3.06h-3.13zm-28.8 7.89h3.13v3.06h-3.13zm9.6 0h3.13v3.06h-3.13zm9.6 0h3.13v3.06h-3.13zm9.6 0h3.13v3.06h-3.13zm-28.8 7.89h3.13V52h-3.13zm9.6 0h3.13V52h-3.13zm9.6 0h3.13V52h-3.13zm9.6 0h3.13V52h-3.13z" style="fill:#282e5b;stroke-linejoin:round;stroke-width:2.09px;stroke-linecap:round;stroke:#243060"></path>   <circle cx="59.42" cy="50.28" r="14.58" class="cls-1"></circle>   <path d="M59.42 41.58v8.7h5.65" style="stroke-width:3.09px;stroke-linecap:round;fill:#fff;stroke-miterlimit:10;stroke:#243060"></path> </svg>