<?xml version="1.0" encoding="UTF-8"?>
<!DOCTYPE svg PUBLIC "-//W3C//DTD SVG 1.1//EN" "http://www.w3.org/Graphics/SVG/1.1/DTD/svg11.dtd">
<svg xmlns="http://www.w3.org/2000/svg" version="1.1" width="369px" height="327px" style="shape-rendering:geometricPrecision; text-rendering:geometricPrecision; image-rendering:optimizeQuality; fill-rule:evenodd; clip-rule:evenodd" xmlns:xlink="http://www.w3.org/1999/xlink">
<g><path style="opacity:0.953" fill="#282e5b" d="M 125.5,51.5 C 144.97,47.9853 154.636,55.9853 154.5,75.5C 168.833,75.5 183.167,75.5 197.5,75.5C 196.104,59.9065 203.104,51.9065 218.5,51.5C 233.96,51.9654 240.96,59.9654 239.5,75.5C 248.331,74.9197 256.998,75.7531 265.5,78C 274.763,82.6969 279.93,90.1969 281,100.5C 281.333,117.5 281.667,134.5 282,151.5C 307.307,168.461 317.64,192.128 313,222.5C 306.783,249.05 290.616,266.217 264.5,274C 242.93,279.086 223.263,275.086 205.5,262C 167.5,261.667 129.5,261.333 91.5,261C 79.438,259.558 71.6047,253.058 68,241.5C 67.3333,192.833 67.3333,144.167 68,95.5C 70.7392,86.427 76.5725,80.2603 85.5,77C 94.4321,75.6187 103.432,75.1187 112.5,75.5C 111.148,64.1915 115.481,56.1915 125.5,51.5 Z M 90.5,88.5 C 97.8333,88.5 105.167,88.5 112.5,88.5C 112.009,109.158 122.009,117.325 142.5,113C 152.294,107.837 156.294,99.6702 154.5,88.5C 168.833,88.5 183.167,88.5 197.5,88.5C 197.06,109.215 207.06,117.381 227.5,113C 237.665,108.07 241.665,99.9029 239.5,88.5C 245.509,88.3338 251.509,88.5005 257.5,89C 263.167,90.8223 266.667,94.6556 268,100.5C 268.667,115.5 268.667,130.5 268,145.5C 261.058,143.151 253.891,141.818 246.5,141.5C 246.663,139.143 246.497,136.81 246,134.5C 245.25,133.874 244.416,133.374 243.5,133C 238.167,132.333 232.833,132.333 227.5,133C 226.584,133.374 225.75,133.874 225,134.5C 224.797,138.421 224.297,142.255 223.5,146C 212.812,150.035 203.812,156.369 196.5,165C 192.437,165.038 188.603,165.872 185,167.5C 184.667,173.5 184.333,179.5 184,185.5C 176.718,207.754 179.552,228.587 192.5,248C 157.773,248.98 123.106,248.646 88.5,247C 83.5637,244.303 80.7303,240.136 80,234.5C 79.3333,190.167 79.3333,145.833 80,101.5C 81.4955,95.5085 84.9955,91.1752 90.5,88.5 Z"/></g>
<g><path style="opacity:1" fill="#fcfcfd" d="M 128.5,63.5 C 131.85,63.335 135.183,63.5017 138.5,64C 139.333,64.8333 140.167,65.6667 141,66.5C 141.667,77.1667 141.667,87.8333 141,98.5C 140.5,99.6667 139.667,100.5 138.5,101C 135.167,101.667 131.833,101.667 128.5,101C 127.333,100.5 126.5,99.6667 126,98.5C 125.333,87.8333 125.333,77.1667 126,66.5C 127.045,65.6266 127.878,64.6266 128.5,63.5 Z"/></g>
<g><path style="opacity:1" fill="#fdfcfd" d="M 214.5,63.5 C 217.518,63.3354 220.518,63.502 223.5,64C 224.333,64.8333 225.167,65.6667 226,66.5C 226.667,77.1667 226.667,87.8333 226,98.5C 225.5,99.6667 224.667,100.5 223.5,101C 220.167,101.667 216.833,101.667 213.5,101C 212.667,100.167 211.833,99.3333 211,98.5C 210.333,87.8333 210.333,77.1667 211,66.5C 212.145,65.3636 213.312,64.3636 214.5,63.5 Z"/></g>
<g><path style="opacity:0.923" fill="#272d5b" d="M 107.5,132.5 C 112.844,132.334 118.177,132.501 123.5,133C 124.416,133.374 125.25,133.874 126,134.5C 126.81,141.082 126.643,147.582 125.5,154C 119.612,155.576 113.612,155.909 107.5,155C 106.584,154.626 105.75,154.126 105,153.5C 104.333,147.167 104.333,140.833 105,134.5C 105.995,133.934 106.828,133.267 107.5,132.5 Z"/></g>
<g><path style="opacity:0.923" fill="#272d5b" d="M 147.5,132.5 C 152.844,132.334 158.177,132.501 163.5,133C 164.416,133.374 165.25,133.874 166,134.5C 166.81,141.082 166.643,147.582 165.5,154C 159.612,155.576 153.612,155.909 147.5,155C 146.584,154.626 145.75,154.126 145,153.5C 144.333,147.167 144.333,140.833 145,134.5C 145.995,133.934 146.828,133.267 147.5,132.5 Z"/></g>
<g><path style="opacity:0.923" fill="#272d5b" d="M 187.5,132.5 C 192.844,132.334 198.177,132.501 203.5,133C 204.416,133.374 205.25,133.874 206,134.5C 206.81,141.082 206.643,147.582 205.5,154C 199.612,155.576 193.612,155.909 187.5,155C 186.584,154.626 185.75,154.126 185,153.5C 184.333,147.167 184.333,140.833 185,134.5C 185.995,133.934 186.828,133.267 187.5,132.5 Z"/></g>
<g><path style="opacity:1" fill="#fdfdfe" d="M 237.5,154.5 C 261.64,151.991 280.473,160.658 294,180.5C 307.084,206.831 303.25,230.331 282.5,251C 258.241,267.951 234.241,267.617 210.5,250C 190.657,228.752 187.49,205.252 201,179.5C 210.071,166.587 222.238,158.254 237.5,154.5 Z"/></g>
<g><path style="opacity:0.925" fill="#272d5b" d="M 107.5,165.5 C 112.844,165.334 118.177,165.501 123.5,166C 124.416,166.374 125.25,166.874 126,167.5C 126.81,174.082 126.643,180.582 125.5,187C 118.543,189.159 111.709,188.992 105,186.5C 104.333,180.167 104.333,173.833 105,167.5C 105.995,166.934 106.828,166.267 107.5,165.5 Z"/></g>
<g><path style="opacity:0.925" fill="#272d5b" d="M 147.5,165.5 C 152.844,165.334 158.177,165.501 163.5,166C 164.416,166.374 165.25,166.874 166,167.5C 166.81,174.082 166.643,180.582 165.5,187C 158.543,189.159 151.709,188.992 145,186.5C 144.333,180.167 144.333,173.833 145,167.5C 145.995,166.934 146.828,166.267 147.5,165.5 Z"/></g>
<g><path style="opacity:1" fill="#282e5b" d="M 273.5,214.5 C 262.833,214.5 252.167,214.5 241.5,214.5C 241.5,199.833 241.5,185.167 241.5,170.5C 242.378,167.713 244.378,166.38 247.5,166.5C 249.912,166.406 251.745,167.406 253,169.5C 253.5,180.495 253.667,191.495 253.5,202.5C 260.175,202.334 266.842,202.5 273.5,203C 278.79,206.967 278.79,210.8 273.5,214.5 Z"/></g>
<g><path style="opacity:0.95" fill="#272d5b" d="M 106.5,198.5 C 112.509,198.334 118.509,198.501 124.5,199C 125,199.5 125.5,200 126,200.5C 126.81,207.082 126.643,213.582 125.5,220C 118.586,220.811 111.752,220.645 105,219.5C 104.333,213.167 104.333,206.833 105,200.5C 105.717,199.956 106.217,199.289 106.5,198.5 Z"/></g>
<g><path style="opacity:0.95" fill="#272d5b" d="M 146.5,198.5 C 152.509,198.334 158.509,198.501 164.5,199C 165,199.5 165.5,200 166,200.5C 166.81,207.082 166.643,213.582 165.5,220C 158.586,220.811 151.752,220.645 145,219.5C 144.333,213.167 144.333,206.833 145,200.5C 145.717,199.956 146.217,199.289 146.5,198.5 Z"/></g>
<g><path style="opacity:1" fill="#545179" d="M 241.5,170.5 C 241.5,185.167 241.5,199.833 241.5,214.5C 252.167,214.5 262.833,214.5 273.5,214.5C 262.679,215.495 251.679,215.828 240.5,215.5C 240.171,200.324 240.504,185.324 241.5,170.5 Z"/></g>
</svg>
