<svg width="58" height="58" viewBox="0 0 58 58" fill="none" xmlns="http://www.w3.org/2000/svg">
<path fill-rule="evenodd" clip-rule="evenodd" d="M57.0598 0.88807C57.6456 1.47386 57.6456 2.4236 57.0598 3.00939L41.5242 18.545H53.414C54.2424 18.545 54.914 19.2166 54.914 20.045C54.914 20.8734 54.2424 21.545 53.414 21.545H37.9032C37.0748 21.545 36.4032 20.8734 36.4032 20.045V20.0447V4.53418C36.4032 3.70575 37.0748 3.03418 37.9032 3.03418C38.7316 3.03418 39.4032 3.70575 39.4032 4.53418V16.4233L54.9385 0.88807C55.5243 0.302284 56.474 0.302284 57.0598 0.88807ZM14.9364 6.03436C15.827 6.02559 16.6904 6.34097 17.3657 6.9217C18.0394 7.50106 18.4799 8.30509 18.6058 9.18452C18.9482 11.776 19.5823 14.3205 20.4962 16.7695L20.4974 16.7729C20.7443 17.4297 20.7978 18.1436 20.6514 18.8298C20.5053 19.5148 20.1663 20.1437 19.6744 20.6422L19.6716 20.645L16.3944 23.9222C15.917 24.3996 15.8174 25.1373 16.1511 25.7243C19.9647 32.431 25.5177 37.984 32.2244 41.7976C32.8114 42.1313 33.5491 42.0318 34.0265 41.5543L37.3037 38.2771L37.3065 38.2743C37.805 37.7824 38.4339 37.4434 39.1189 37.2973C39.8052 37.1509 40.519 37.2044 41.1758 37.4513L41.1792 37.4525C43.6283 38.3664 46.1727 39.0006 48.7642 39.3429C49.6534 39.4698 50.4652 39.9184 51.0459 40.6037C51.6279 41.2906 51.9371 42.1674 51.9147 43.0674C51.9144 43.0798 51.9143 43.0922 51.9143 43.1046V50.86L51.9143 50.8661C51.9164 51.3772 51.8117 51.8831 51.6069 52.3514C51.4022 52.8196 51.1019 53.24 50.7253 53.5855C50.3487 53.931 49.904 54.1941 49.4199 54.3578C48.9397 54.5202 48.4311 54.5814 47.9262 54.5375C40.2098 53.6967 32.7978 51.0588 26.2851 46.8354L26.2852 46.8353L26.2735 46.8279C20.2132 42.977 15.0752 37.8389 11.2242 31.7786L11.2243 31.7786L11.2171 31.7676C6.97858 25.2248 4.33998 17.776 3.51479 10.0242C3.47075 9.52029 3.53135 9.01266 3.69284 8.53319C3.85548 8.0503 4.11689 7.60657 4.46041 7.23024C4.80394 6.85391 5.22207 6.55324 5.68816 6.34736C6.15408 6.14156 6.65774 6.03499 7.16708 6.03443H14.9217L14.9364 6.03436ZM19.3218 4.64715C18.0966 3.59344 16.5305 3.02043 14.9147 3.03443L7.16625 3.03443L7.16484 3.03443C6.23881 3.0353 5.3231 3.22898 4.47603 3.60314C3.62895 3.9773 2.86906 4.52375 2.24474 5.20767C1.62042 5.8916 1.14534 6.69804 0.849766 7.57563C0.554189 8.45322 0.444581 9.38275 0.527925 10.305L0.530224 10.3284C1.40343 18.5512 4.20078 26.4527 8.69573 33.3932C12.7812 39.8207 18.231 45.2705 24.6584 49.3561C31.5675 53.8354 39.4308 56.632 47.6167 57.5215L47.6437 57.5242C48.5688 57.6078 49.5011 57.4973 50.381 57.1997C51.2609 56.9021 52.0689 56.4241 52.7534 55.7961C53.4378 55.1682 53.9836 54.4043 54.3557 53.5532C54.7274 52.7031 54.9176 51.7847 54.9143 50.8569V43.122C54.9499 41.4934 54.3882 39.9077 53.3348 38.6644C52.2771 37.4161 50.7975 36.6001 49.1774 36.3715L49.1774 36.3714L49.164 36.3697C46.7949 36.0572 44.4688 35.4778 42.2299 34.6426C41.0366 34.1943 39.7398 34.0974 38.4931 34.3633C37.2459 34.6293 36.1011 35.2472 35.1943 36.1439L35.1883 36.1499L32.7255 38.6127C27.2518 35.2899 22.6588 30.6969 19.336 25.2232L21.7989 22.7604L21.7989 22.7604L21.8048 22.7544C22.7015 21.8476 23.3194 20.7028 23.5854 19.4556C23.8513 18.2091 23.7544 16.9126 23.3064 15.7194C22.471 13.4804 21.8915 11.154 21.579 8.78472L21.5791 8.78471L21.5772 8.77093C21.3506 7.16822 20.549 5.70257 19.3218 4.64715Z" fill="#7C83A0"/>
</svg>
