<svg width="24" height="24" viewBox="0 0 24 24" fill="none" xmlns="http://www.w3.org/2000/svg">
<path d="M15.4502 2.51904V8.52984H21.461" stroke="#243060" stroke-width="2" stroke-linecap="round" stroke-linejoin="round"/>
<path d="M22.4628 1.51709L15.4502 8.52969" stroke="#243060" stroke-width="2" stroke-linecap="round" stroke-linejoin="round"/>
<path d="M21.4611 17.466V20.4714C21.4622 20.7504 21.4051 21.0266 21.2933 21.2822C21.1815 21.5378 21.0176 21.7673 20.812 21.9559C20.6064 22.1445 20.3637 22.2881 20.0994 22.3775C19.8351 22.4669 19.555 22.5001 19.2772 22.475C16.1945 22.14 13.2333 21.0866 10.6316 19.3995C8.21111 17.8614 6.15893 15.8092 4.62083 13.3887C2.92776 10.7752 1.87414 7.79962 1.5453 4.70306C1.52027 4.42603 1.55319 4.14682 1.64198 3.88322C1.73076 3.61961 1.87346 3.37737 2.06099 3.17193C2.24853 2.9665 2.47678 2.80236 2.73122 2.68997C2.98567 2.57758 3.26072 2.5194 3.53888 2.51914H6.54428C7.03046 2.51436 7.50179 2.68652 7.87043 3.00354C8.23906 3.32057 8.47984 3.76082 8.54788 4.24224C8.67473 5.20403 8.90998 6.14839 9.24914 7.05729C9.38393 7.41586 9.4131 7.80555 9.3332 8.18019C9.2533 8.55483 9.06768 8.89871 8.79833 9.17109L7.52605 10.4434C8.95216 12.9514 11.0288 15.0281 13.5368 16.4542L14.8091 15.1819C15.0815 14.9125 15.4254 14.7269 15.8 14.647C16.1747 14.5671 16.5644 14.5963 16.9229 14.7311C17.8318 15.0702 18.7762 15.3055 19.738 15.4323C20.2246 15.501 20.6691 15.7461 20.9868 16.1211C21.3045 16.496 21.4733 16.9747 21.4611 17.466Z" stroke="#243060" stroke-width="2" stroke-linecap="round" stroke-linejoin="round"/>
</svg>
