<?xml version="1.0" encoding="UTF-8"?>
<!DOCTYPE svg PUBLIC "-//W3C//DTD SVG 1.1//EN" "http://www.w3.org/Graphics/SVG/1.1/DTD/svg11.dtd">
<svg xmlns="http://www.w3.org/2000/svg" version="1.1" width="369px" height="327px" style="shape-rendering:geometricPrecision; text-rendering:geometricPrecision; image-rendering:optimizeQuality; fill-rule:evenodd; clip-rule:evenodd" xmlns:xlink="http://www.w3.org/1999/xlink">
<g><path style="opacity:0.954" fill="#272d5b" d="M 102.5,65.5 C 156.501,65.3333 210.501,65.5 264.5,66C 274.443,68.942 280.609,75.442 283,85.5C 283.667,138.167 283.667,190.833 283,243.5C 279.833,253.333 273.333,259.833 263.5,263C 210.5,263.667 157.5,263.667 104.5,263C 94.1063,260.274 87.273,253.774 84,243.5C 83.3333,190.833 83.3333,138.167 84,85.5C 86.7734,75.5688 92.9401,68.9021 102.5,65.5 Z M 108.5,77.5 C 158.501,77.3333 208.501,77.5 258.5,78C 265.298,79.4642 269.464,83.6308 271,90.5C 271.667,139.5 271.667,188.5 271,237.5C 270.359,243.627 267.192,247.794 261.5,250C 209.5,250.667 157.5,250.667 105.5,250C 101.333,248.5 98.5,245.667 97,241.5C 96.3333,190.167 96.3333,138.833 97,87.5C 99.1938,82.1709 103.027,78.8375 108.5,77.5 Z"/></g>
<g><path style="opacity:0.945" fill="#272d5b" d="M 220.5,127.5 C 230.977,127.149 235.144,132.149 233,142.5C 214.833,160.667 196.667,178.833 178.5,197C 174.003,199.121 169.67,198.788 165.5,196C 155.599,186.769 146.433,176.936 138,166.5C 137.636,154.55 143.136,150.716 154.5,155C 160.667,161.167 166.833,167.333 173,173.5C 188.449,157.548 204.282,142.214 220.5,127.5 Z"/></g>
</svg>
