<?xml version="1.0" encoding="UTF-8"?>
<!DOCTYPE svg PUBLIC "-//W3C//DTD SVG 1.1//EN" "http://www.w3.org/Graphics/SVG/1.1/DTD/svg11.dtd">
<svg xmlns="http://www.w3.org/2000/svg" version="1.1" width="369px" height="327px" style="shape-rendering:geometricPrecision; text-rendering:geometricPrecision; image-rendering:optimizeQuality; fill-rule:evenodd; clip-rule:evenodd" xmlns:xlink="http://www.w3.org/1999/xlink">
<g><path style="opacity:0.946" fill="#282d5b" d="M 153.5,43.5 C 175.503,43.3334 197.503,43.5 219.5,44C 227.906,47.6303 231.573,54.1303 230.5,63.5C 238.253,63.1039 245.92,63.6039 253.5,65C 261.606,68.3824 267.106,74.2158 270,82.5C 271.142,111.8 271.642,141.134 271.5,170.5C 271.642,199.866 271.142,229.2 270,258.5C 267.167,268 261,274.167 251.5,277C 206.833,277.667 162.167,277.667 117.5,277C 107.333,274.167 100.833,267.667 98,257.5C 97.3333,199.5 97.3333,141.5 98,83.5C 100.678,74.8215 106.178,68.6549 114.5,65C 123.752,63.5828 133.085,63.0828 142.5,63.5C 141.013,53.795 144.679,47.1284 153.5,43.5 Z M 120.5,76.5 C 127.833,76.5 135.167,76.5 142.5,76.5C 141.896,85.0548 145.563,90.8882 153.5,94C 164.333,94.1667 175.167,94.3333 186,94.5C 197.901,94.6359 209.734,94.1359 221.5,93C 228.024,89.4535 231.024,83.9535 230.5,76.5C 237.257,76.1226 243.924,76.6226 250.5,78C 255.075,80.9109 257.575,85.0775 258,90.5C 258.979,145.537 258.646,200.537 257,255.5C 255.5,259.667 252.667,262.5 248.5,264C 205.5,264.667 162.5,264.667 119.5,264C 115.333,262.5 112.5,259.667 111,255.5C 110.333,199.167 110.333,142.833 111,86.5C 112.996,82.0048 116.163,78.6715 120.5,76.5 Z"/></g>
<g><path style="opacity:1" fill="#fefefe" d="M 155.5,56.5 C 175.836,56.3334 196.169,56.5 216.5,57C 217.833,65 217.833,73 216.5,81C 196.169,81.5 175.836,81.6666 155.5,81.5C 155.5,73.1667 155.5,64.8333 155.5,56.5 Z"/></g>
<g><path style="opacity:0.956" fill="#272d5b" d="M 217.5,147.5 C 228.338,147.169 232.172,152.169 229,162.5C 212.5,179 196,195.5 179.5,212C 175.961,213.504 172.295,213.837 168.5,213C 159.667,204.167 150.833,195.333 142,186.5C 138.833,174.333 143.333,169.833 155.5,173C 161.167,178.667 166.833,184.333 172.5,190C 173.167,190.667 173.833,190.667 174.5,190C 188.728,175.604 203.062,161.438 217.5,147.5 Z"/></g>
</svg>
