<svg width="62" height="62" viewBox="0 0 62 62" fill="none" xmlns="http://www.w3.org/2000/svg">
<path fill-rule="evenodd" clip-rule="evenodd" d="M3.75 31C3.75 15.9502 15.9502 3.75 31 3.75C46.0498 3.75 58.25 15.9502 58.25 31C58.25 46.0498 46.0498 58.25 31 58.25C15.9502 58.25 3.75 46.0498 3.75 31ZM31 0.75C14.2934 0.75 0.75 14.2934 0.75 31C0.75 47.7066 14.2934 61.25 31 61.25C47.7066 61.25 61.25 47.7066 61.25 31C61.25 14.2934 47.7066 0.75 31 0.75ZM32.5 13.75C32.5 12.9216 31.8284 12.25 31 12.25C30.1716 12.25 29.5 12.9216 29.5 13.75V31C29.5 31.5682 29.821 32.0876 30.3292 32.3416L41.8292 38.0916C42.5701 38.4621 43.4712 38.1618 43.8416 37.4208C44.2121 36.6799 43.9118 35.7788 43.1708 35.4084L32.5 30.0729V13.75Z" fill="#9298B0"/>
</svg>
