<?xml version="1.0" standalone="yes"?>
<svg xmlns="http://www.w3.org/2000/svg" width="369" height="327">
<path style="fill:#ffffff; stroke:none;" d="M0 0L0 327L369 327L369 0L0 0z"/>
<path style="fill:#272d5b; stroke:none;" d="M265 56C254.073 48.894 237.596 47.7018 231.742 63C229.859 67.921 231.365 73.9767 232 79C213.215 79.4001 204.195 110.802 225 115C221.865 126.632 215.306 143.731 233.004 149.347C237.215 150.684 243.575 147.764 247.106 149.554C250.07 151.057 249.976 158.941 252.533 161.786C257.982 167.849 272.224 169.709 278.957 165.121C282.756 162.532 284.662 158.093 288 155C294.455 166.682 311.388 159.44 317.347 150.985C321.293 145.387 319.915 139.041 318 133C323.41 131.696 328.726 131.515 332.581 126.895C340.629 117.249 338.65 98.474 325 96C327.089 91.2775 330.685 87.4298 330.867 82C331.383 66.5344 316.151 58.2071 303 63C301.807 58.1588 301.502 52.9507 297.775 49.2245C287.743 39.192 269.487 43.1601 265 56z"/>
<path style="fill:#ffffff; stroke:none;" d="M279.279 55.7816C274.86 57.6626 276.259 63.9852 270.981 65.7724C267.882 66.8217 262.267 68.636 259.09 67.4962C253.26 65.4048 249.481 58.1876 243.622 66.3287C240.848 70.1825 244.978 73.147 245.061 77C245.135 80.4346 241.531 85.3424 239.367 87.8519C235.585 92.2363 228.338 88.6252 226.032 94.1127C221.546 104.787 234.189 103.485 236.065 112.001C236.698 114.873 238.26 118.923 237.306 121.826C235.826 126.334 229.813 127.385 232.592 132.999C237.384 142.682 243.963 133.478 251 137.403C253.855 138.995 258.34 141.224 259.933 144.21C261.846 147.796 258.734 152.13 263.149 154.566C272.21 159.567 272.278 150.603 277.279 146.603C279.765 144.614 285.844 143.493 288.999 143.473C294.354 143.439 296.419 150.639 302 148.524C312.919 144.386 303.027 137.102 306.994 130C308.649 127.037 310.967 122.654 314.104 121.067C317.609 119.295 322.049 122.067 324.297 117.771C325.453 115.561 326.268 111.57 324.933 109.303C323.311 106.548 319.643 106.838 317.317 105.062C314.393 102.83 313.643 96.4582 313.123 93.0039C311.945 85.1742 323.656 83.139 315.67 75.1636C310.709 70.2094 305.747 77.0867 300 74.1844C297.135 72.7376 292.768 70.4091 291.028 67.6211C288.117 62.9577 289.59 51.3927 279.279 55.7816z"/>
<path style="fill:#272d5b; stroke:none;" d="M211 198C232.177 197.942 244.685 171.259 230.606 154.043C224.008 145.975 212.339 149.705 208.924 139C207.047 133.113 213.185 128.573 214.471 123C217.316 110.671 206.419 98.0488 196 92.8395C191.059 90.3691 184.085 90.1764 179 92.3673C175.334 93.9467 172.078 98.2535 167.83 97.1204C156.871 94.1967 160.609 85.3726 154.606 78.0432C146.684 68.3721 123.49 67.6073 114.185 75.6844C108.376 80.7267 110.651 89.8631 105.682 94.0062C94.6596 103.197 83.3185 85.5182 70 93.0895C59.3678 99.1337 49.6139 111.255 52.3904 124C53.5554 129.348 59.8364 133.555 57.7068 139.09C53.2932 150.56 39.7747 145.596 34 157.004C29.058 166.767 30.3141 186.427 39.0432 193.606C46.1987 199.492 56.7019 196.156 58.3588 207.83C58.8588 211.353 55.1454 214.079 53.6883 217.001C51.7612 220.865 51.6242 225.776 52.1883 230C53.9287 243.032 71.0551 256.003 84 253.671C92.4099 252.155 95.9275 244.219 104.852 250.225C109.494 253.348 107.697 260.516 110.703 264.996C117.726 275.464 134.916 276.191 146 272.671C159.41 268.411 154.672 252.142 166.001 248.217C172.114 246.099 176.303 252.111 182 253.468C194.363 256.412 205.632 246.849 211.867 237C219.404 225.092 210.204 219.798 208.572 209C208.052 205.562 210.483 201.449 211 198z"/>
<path style="fill:#ffffff; stroke:none;" d="M125.109 84.7423C117.22 88.1348 123.998 100.13 115.956 104.722C111.345 107.355 99.2019 113.371 94 112.577C89.3888 111.874 86.985 106.967 83 105.032C76.3375 101.796 67.8845 110.346 65.5509 116C62.6894 122.933 71.5786 126.298 73.3534 132C74.9609 137.164 68.2828 150.26 65.6975 154.956C61.0569 163.386 47.1394 155.858 45.2284 166.015C44.347 170.701 43.5514 180.961 48.2284 183.821C55.2211 188.096 62.5213 182.048 66.6119 192.001C68.6698 197.008 74.57 206.709 73.5116 212C72.1835 218.639 61.8493 222.385 66.6042 230C67.7717 231.87 69.4568 233.448 71.0046 234.995C84.1463 248.137 86.6935 227.75 99 232.812C104.568 235.102 115.797 238.126 119.258 243.109C122.766 248.16 118.346 257.349 125.109 260.258C130.541 262.594 142.719 262.187 145.258 255.956C147.033 251.601 144.679 246.234 147.742 242.278C151.029 238.034 164.76 233.31 170 232.075C178.121 230.161 181.61 244.005 190 239.968C191.921 239.043 193.487 237.445 194.996 235.981C197.849 233.213 202.178 229.456 201.458 225C200.272 217.675 190.349 215.425 193.812 207C196.016 201.637 198.695 190.292 203.278 186.742C208.959 182.342 218.96 188.216 221.566 178.985C222.825 174.529 222.973 165.831 219.566 162.318C215.633 158.261 209.604 161.4 205.044 158.972C199.313 155.92 195.411 142.94 193.396 137C190.985 129.893 199.238 126.906 201.238 121C203.177 115.275 196.026 109.327 192 106.318C182.598 99.2917 177.87 115.505 168 111.95C162.501 109.969 152.315 106.979 148.318 102.722C144.654 98.8208 147.063 93.5411 145.258 89.0193C142.746 82.7295 130.595 82.3827 125.109 84.7423z"/>
<path style="fill:#272d5b; stroke:none;" d="M126 128.464C81.0444 136.41 75.5782 203.067 121 215.243C128.071 217.139 134.84 217.184 142 215.916C197.919 206.01 181.686 118.621 126 128.464z"/>
<path style="fill:#ffffff; stroke:none;" d="M127 141.518C87.4684 149.952 99.7813 211.696 139 203.331C179.319 194.732 166.903 133.004 127 141.518z"/>
</svg>
