<?xml version="1.0" standalone="no"?>
<!DOCTYPE svg PUBLIC "-//W3C//DTD SVG 20010904//EN"
 "http://www.w3.org/TR/2001/REC-SVG-20010904/DTD/svg10.dtd">
<svg version="1.0" xmlns="http://www.w3.org/2000/svg"
 width="369.000000pt" height="327.000000pt" viewBox="0 0 369.000000 327.000000"
 preserveAspectRatio="xMidYMid meet">

<g transform="translate(0.000000,327.000000) scale(0.100000,-0.100000)"
fill="#000000" stroke="none">
<path d="M1460 2730 c-420 -34 -724 -159 -810 -335 -25 -49 -25 -53 -25 -330
0 -274 1 -281 23 -325 40 -77 112 -141 220 -195 49 -24 49 -25 43 -62 -3 -21
-4 -153 -1 -293 l5 -255 27 -47 c90 -152 334 -260 698 -309 138 -18 469 -16
613 5 378 54 636 188 685 354 6 21 12 150 14 297 l2 260 -26 57 c-14 31 -45
75 -69 98 -41 39 -165 120 -185 120 -5 0 -9 114 -9 287 l0 288 -27 50 c-67
127 -219 218 -467 281 -187 48 -496 71 -711 54z m565 -148 c125 -24 232 -56
312 -92 216 -98 264 -238 121 -350 -290 -230 -1109 -264 -1526 -64 -89 43
-166 114 -180 167 -42 154 196 295 598 353 140 20 541 12 675 -14z m-1230
-573 c106 -72 290 -132 507 -166 157 -24 528 -24 683 0 214 34 390 91 503 163
29 19 54 34 55 34 7 0 -6 -219 -15 -242 -40 -103 -258 -204 -553 -255 -155
-27 -529 -24 -690 6 -222 40 -374 97 -460 173 -69 60 -85 102 -85 221 0 53 2
97 4 97 3 0 26 -14 51 -31z m1924 -406 c92 -64 125 -134 96 -208 -43 -113
-245 -209 -550 -262 -141 -24 -529 -24 -670 0 -221 38 -399 103 -488 177 -43
36 -77 96 -77 136 0 30 -10 30 155 -4 146 -30 273 -42 460 -42 333 0 588 49
787 152 43 22 97 57 120 78 42 37 44 38 78 24 19 -8 59 -31 89 -51z m-1574
-466 c128 -64 323 -115 517 -136 123 -14 415 -14 533 -1 250 28 468 95 598
184 l39 27 -4 -119 c-3 -113 -4 -121 -31 -156 -79 -103 -255 -177 -537 -228
-117 -21 -568 -17 -690 5 -219 41 -377 101 -464 178 -66 58 -76 87 -76 214 l0
106 33 -24 c17 -14 55 -36 82 -50z"/>
</g>
</svg>
