<?xml version="1.0" encoding="UTF-8"?>
<!DOCTYPE svg PUBLIC "-//W3C//DTD SVG 1.1//EN" "http://www.w3.org/Graphics/SVG/1.1/DTD/svg11.dtd">
<svg xmlns="http://www.w3.org/2000/svg" version="1.1" width="369px" height="327px" style="shape-rendering:geometricPrecision; text-rendering:geometricPrecision; image-rendering:optimizeQuality; fill-rule:evenodd; clip-rule:evenodd" xmlns:xlink="http://www.w3.org/1999/xlink">
<g><path style="opacity:0.979" fill="#292e5c" d="M 145.5,52.5 C 171.905,50.9739 197.905,53.4739 223.5,60C 238.074,63.6989 250.574,70.8655 261,81.5C 263.434,84.7954 265.101,88.462 266,92.5C 266.825,111.074 266.659,129.574 265.5,148C 275.059,151.893 283.225,157.727 290,165.5C 292.514,169.525 294.181,173.859 295,178.5C 295.667,195.167 295.667,211.833 295,228.5C 292.599,237.901 287.433,245.401 279.5,251C 258.378,262.616 235.711,268.949 211.5,270C 181.48,272.465 152.146,269.132 123.5,260C 113.097,256.052 103.93,250.219 96,242.5C 92.91,238.318 90.91,233.651 90,228.5C 89.1871,210.968 89.3538,193.468 90.5,176C 81.716,171.516 73.8826,165.683 67,158.5C 64.8061,155.446 63.1395,152.112 62,148.5C 61.3333,129.5 61.3333,110.5 62,91.5C 64.5375,83.9537 69.0375,77.787 75.5,73C 88.1412,65.1181 101.808,59.7848 116.5,57C 126.262,55.1549 135.928,53.6549 145.5,52.5 Z"/></g>
<g><path style="opacity:1" fill="#fdfdfe" d="M 143.5,65.5 C 174.035,62.9475 203.701,66.7809 232.5,77C 239.858,79.923 246.024,84.423 251,90.5C 255.227,98.8406 253.727,106.007 246.5,112C 228.452,123.101 208.785,129.434 187.5,131C 157.481,134.076 128.148,131.076 99.5,122C 89.9615,118.824 82.1281,113.324 76,105.5C 73.5723,99.4384 74.239,93.7717 78,88.5C 83.6948,83.1502 90.1948,78.9835 97.5,76C 112.551,70.6921 127.885,67.1921 143.5,65.5 Z"/></g>
<g><path style="opacity:1" fill="#88819f" d="M 75.5,123.5 C 74.5098,129.645 74.1765,135.978 74.5,142.5C 73.1819,135.989 73.1819,129.322 74.5,122.5C 75.1067,122.624 75.44,122.957 75.5,123.5 Z"/></g>
<g><path style="opacity:1" fill="#fdfdfd" d="M 74.5,142.5 C 74.1765,135.978 74.5098,129.645 75.5,123.5C 93.5212,134.673 113.188,141.173 134.5,143C 160.306,145.551 185.972,144.551 211.5,140C 226.642,137.07 240.475,131.237 253,122.5C 253.667,129.833 253.667,137.167 253,144.5C 251.353,149.156 248.52,152.989 244.5,156C 229.623,164.515 213.623,169.848 196.5,172C 163.177,177.112 130.511,174.445 98.5,164C 90.0375,161.024 82.8709,156.19 77,149.5C 75.5886,147.35 74.7553,145.016 74.5,142.5 Z"/></g>
<g><path style="opacity:1" fill="#fcfcfd" d="M 258.5,159.5 C 265.692,162.347 272.192,166.347 278,171.5C 284.509,180.625 283.343,188.792 274.5,196C 259.479,205.23 243.146,210.897 225.5,213C 191.022,218.48 157.356,215.48 124.5,204C 117.556,200.947 111.389,196.781 106,191.5C 103.369,187.911 102.203,183.911 102.5,179.5C 140.687,188.3 179.02,188.8 217.5,181C 230.525,177.818 242.525,172.485 253.5,165C 255.373,163.296 257.04,161.463 258.5,159.5 Z"/></g>
<g><path style="opacity:1" fill="#fcfcfd" d="M 102.5,205.5 C 112.191,212.511 122.858,217.678 134.5,221C 160.479,227.207 186.813,229.207 213.5,227C 231.778,225.678 249.444,221.678 266.5,215C 272.251,212.711 277.418,209.545 282,205.5C 282.667,212.5 282.667,219.5 282,226.5C 280.037,232.799 276.203,237.632 270.5,241C 251.73,250.799 231.73,256.132 210.5,257C 180.626,259.903 151.626,256.237 123.5,246C 114.098,242.594 107.265,236.428 103,227.5C 102.5,220.174 102.334,212.841 102.5,205.5 Z"/></g>
</svg>
