<?xml version="1.0" encoding="UTF-8"?>
<!DOCTYPE svg PUBLIC "-//W3C//DTD SVG 1.1//EN" "http://www.w3.org/Graphics/SVG/1.1/DTD/svg11.dtd">
<svg xmlns="http://www.w3.org/2000/svg" version="1.1" width="369px" height="327px" style="shape-rendering:geometricPrecision; text-rendering:geometricPrecision; image-rendering:optimizeQuality; fill-rule:evenodd; clip-rule:evenodd" xmlns:xlink="http://www.w3.org/1999/xlink">
<g><path style="opacity:0.942" fill="#272d5b" d="M 247.5,35.5 C 274.502,35.3334 301.502,35.5 328.5,36C 334.202,38.3648 337.702,42.5315 339,48.5C 339.667,99.1667 339.667,149.833 339,200.5C 337.5,207.333 333.333,211.5 326.5,213C 313.838,213.5 301.171,213.667 288.5,213.5C 288.5,221.833 288.5,230.167 288.5,238.5C 291.167,238.5 293.833,238.5 296.5,238.5C 296.906,246.917 296.406,255.251 295,263.5C 292.229,271.27 287.063,276.77 279.5,280C 203.5,280.667 127.5,280.667 51.5,280C 41.1302,275.1 35.2968,266.934 34,255.5C 33.5006,249.843 33.3339,244.176 33.5,238.5C 36.5,238.5 39.5,238.5 42.5,238.5C 42.3333,190.499 42.5,142.499 43,94.5C 44.5,89 48,85.5 53.5,84C 114.499,83.5 175.499,83.3333 236.5,83.5C 236.333,72.1618 236.5,60.8284 237,49.5C 238.056,42.9512 241.556,38.2845 247.5,35.5 Z M 252.5,46.5 C 276.169,46.3334 299.836,46.5 323.5,47C 324.931,47.4652 326.097,48.2986 327,49.5C 327.5,89.1653 327.667,128.832 327.5,168.5C 301.167,168.5 274.833,168.5 248.5,168.5C 248.333,128.832 248.5,89.1653 249,49.5C 250.145,48.3636 251.312,47.3636 252.5,46.5 Z M 56.5,96.5 C 116.5,96.5 176.5,96.5 236.5,96.5C 236.026,132.215 236.526,167.882 238,203.5C 240.007,208.838 243.841,212.004 249.5,213C 258.16,213.5 266.827,213.666 275.5,213.5C 275.5,221.833 275.5,230.167 275.5,238.5C 243.833,238.5 212.167,238.5 180.5,238.5C 180.768,241.119 180.435,243.619 179.5,246C 169.839,246.5 160.172,246.666 150.5,246.5C 150.5,243.833 150.5,241.167 150.5,238.5C 118.833,238.5 87.1667,238.5 55.5,238.5C 55.1719,191.095 55.5052,143.761 56.5,96.5 Z M 248.5,180.5 C 274.833,180.5 301.167,180.5 327.5,180.5C 327.666,186.842 327.5,193.175 327,199.5C 326.5,200 326,200.5 325.5,201C 300.5,201.667 275.5,201.667 250.5,201C 250,200.5 249.5,200 249,199.5C 248.5,193.175 248.334,186.842 248.5,180.5 Z M 47.5,251.5 C 77.8352,251.333 108.168,251.5 138.5,252C 140.227,255.393 142.894,257.726 146.5,259C 159.167,261 171.833,261 184.5,259C 187.311,257.356 189.644,255.19 191.5,252.5C 222.159,251.5 252.826,251.167 283.5,251.5C 283.597,258.14 280.931,263.307 275.5,267C 202.167,267.667 128.833,267.667 55.5,267C 49.5339,263.569 46.8672,258.402 47.5,251.5 Z"/></g>
</svg>
