<svg xmlns="http://www.w3.org/2000/svg" data-name="Layer 1" viewBox="8.39 8.72 73 58.69">   <path d="M77.73 8.72H60.78c-2.02 0-3.67 1.65-3.67 3.67v7.87H13.98c-1.94 0-3.52 1.58-3.52 3.52v33.67H8.39v3.52c0 2.97 2.45 6.43 5.59 6.44h51.66c3.14 0 5.59-3.46 5.59-6.44v-3.52h-2.07v-6.27h8.56c2.02 0 3.67-1.65 3.67-3.67V12.39c0-2.02-1.65-3.67-3.67-3.67Zm-16.95 2.54h16.95c.62 0 1.13.51 1.13 1.13v28.34H59.65V12.39c0-.62.51-1.13 1.13-1.13Zm7.54 49.72c0 1.55-1.26 3.52-2.68 3.52H13.98c-1.42 0-2.68-1.97-2.68-3.52v-.61h22.21v.02c.07.13.14.26.25.43.03.04.05.08.08.12.1.14.21.27.34.41l.06.07c.15.14.3.27.47.39l.14.09c.13.08.26.15.4.22.06.03.13.05.2.08.14.05.28.1.48.15.05.01.09.02.13.03.21.04.43.06.65.07h6.2c.22 0 .43-.02.64-.06.05 0 .11-.02.19-.05.15-.03.29-.08.43-.13.07-.02.13-.05.2-.08.14-.06.27-.14.44-.24l.11-.07c.17-.12.32-.25.47-.39l.07-.08c.12-.12.23-.26.32-.39.03-.04.06-.08.12-.17.07-.12.14-.25.22-.4h22.21V61Zm-34.48-.93Zm1.24 1.49Zm31.18-4.08H43.53v1.46c0 .34-.27.61-.61.61h-6.2c-.34 0-.61-.27-.61-.61v-1.46H13.37V23.78c0-.34.27-.61.61-.61h43.13v24.35c0 2.02 1.65 3.67 3.67 3.67h5.47v6.27Zm11.47-8.8H60.78c-.62 0-1.13-.51-1.13-1.13v-4.25h19.21v4.25c0 .62-.51 1.13-1.13 1.13Z" style="fill:#243060"></path> </svg>