<svg width="50" height="62" viewBox="0 0 50 62" fill="none" xmlns="http://www.w3.org/2000/svg">
<path fill-rule="evenodd" clip-rule="evenodd" d="M7.60007 0.5C5.66398 0.5 3.80719 1.26911 2.43817 2.63813C1.06916 4.00715 0.300049 5.86393 0.300049 7.80002V54.2002C0.300049 56.1363 1.06916 57.993 2.43817 59.3621C3.80719 60.7311 5.66398 61.5002 7.60007 61.5002H42.4002C44.3363 61.5002 46.1931 60.7311 47.5621 59.3621C48.9311 57.993 49.7002 56.1363 49.7002 54.2002V22.3001C49.7002 22.2479 49.6975 22.1961 49.6921 22.1447C49.6641 21.8724 49.5633 21.6217 49.4094 21.4125C49.3646 21.3515 49.315 21.2936 49.2609 21.2394L39.1108 11.0894L28.9608 0.93934C28.9144 0.892902 28.8652 0.849824 28.8137 0.810262C28.5636 0.617947 28.2512 0.502697 27.912 0.500047C27.908 0.500016 27.9041 0.5 27.9001 0.5H27.9H7.60007ZM26.4 3.5H7.60007C6.45963 3.5 5.3659 3.95304 4.55949 4.75945C3.75309 5.56586 3.30005 6.65958 3.30005 7.80002V54.2002C3.30005 55.3406 3.75308 56.4343 4.55949 57.2407C5.36591 58.0472 6.45963 58.5002 7.60007 58.5002H42.4002C43.5406 58.5002 44.6343 58.0472 45.4408 57.2407C46.2472 56.4343 46.7002 55.3406 46.7002 54.2002V23.8001H27.9C27.0716 23.8001 26.4 23.1285 26.4 22.3001V3.5ZM44.5789 20.8001L36.9895 13.2107L29.4 5.62121V20.8001H44.5789Z" fill="#7C83A0"/>
</svg>
