<svg width="56" height="56" viewBox="0 0 56 56" fill="none" xmlns="http://www.w3.org/2000/svg">
<path fill-rule="evenodd" clip-rule="evenodd" d="M55.3107 0.689382C55.6452 1.02392 55.7887 1.47716 55.7411 1.91352C55.7277 2.03703 55.6989 2.15919 55.6548 2.27692L37.2908 54.7456C37.0876 55.3261 36.5507 55.7237 35.9362 55.7488C35.3216 55.7739 34.7541 55.4213 34.5043 54.8592L24.2386 31.7614L1.1408 21.4958C0.578779 21.246 0.226184 20.6784 0.251254 20.0639C0.276325 19.4494 0.673981 18.9124 1.25448 18.7093L53.7231 0.34522C53.8406 0.301256 53.9624 0.272523 54.0856 0.25902C54.1764 0.249012 54.2674 0.247383 54.3576 0.253879C54.7048 0.278693 55.0451 0.42386 55.3107 0.689382ZM48.5415 5.33725L5.81662 20.2909L25.0428 28.8359L48.5415 5.33725ZM27.1641 30.9572L50.6628 7.45857L35.7091 50.1834L27.1641 30.9572Z" fill="#7C83A0"/>
</svg>
