<svg width="96" height="120" viewBox="0 0 96 120" fill="none" xmlns="http://www.w3.org/2000/svg">
<path d="M26.5381 26.0011C24.7409 23.5485 23.6837 20.525 23.6837 17.2689C23.6837 9.1076 30.3016 2.48975 38.4629 2.48975C42.3533 2.48975 45.9053 3.99092 48.5482 6.46469" stroke="#9C0067" stroke-width="4" stroke-linecap="round" stroke-linejoin="round"/>
<path d="M60.0087 36.5305C60.0087 38.4757 59.6281 40.3363 58.9515 42.0278" stroke="#9C0067" stroke-width="4" stroke-linecap="round" stroke-linejoin="round"/>
<path d="M33.3047 45.2839C31.5075 42.8312 30.4292 39.8077 30.4292 36.5305C30.4292 29.3841 35.5036 23.4217 42.2272 22.0474" stroke="#9C0067" stroke-width="4" stroke-linecap="round" stroke-linejoin="round"/>
<path d="M62.6526 36.5305C70.8149 36.5305 77.4318 29.9137 77.4318 21.7513C77.4318 13.589 70.8149 6.97217 62.6526 6.97217C54.4903 6.97217 47.8734 13.589 47.8734 21.7513C47.8734 29.9137 54.4903 36.5305 62.6526 36.5305Z" stroke="#9C0067" stroke-width="4" stroke-linecap="round" stroke-linejoin="round"/>
<path d="M93.2467 83.7225L48 38.5181L2.7533 83.7225" stroke="#9C0067" stroke-width="4" stroke-linecap="round" stroke-linejoin="round"/>
<path d="M79.1576 69.5264V117.511H16.8405V69.5264" stroke="#9C0067" stroke-width="4" stroke-linecap="round" stroke-linejoin="round"/>
<path d="M36.0014 100.392C35.7577 100.392 35.514 100.148 35.514 99.9042V98.4422C35.514 98.3001 35.6562 98.0564 35.7983 98.0158C36.7121 97.5691 37.8289 96.7568 38.9051 95.8837C40.9965 94.178 42.9256 91.6602 42.9256 89.2235C42.9256 88.4925 42.7834 87.7209 42.6413 86.8884H36.4278C36.042 86.8884 35.7577 86.6041 35.7577 86.2183V84.8172C35.7577 84.4314 36.042 84.1471 36.4278 84.1471H41.9306C41.0981 81.3856 40.0422 78.5225 40.0422 75.9437C40.0219 70.2784 45.4231 66.7859 50.5198 66.7859C52.4692 66.7859 54.3982 67.1311 56.0632 67.659C56.4084 67.7606 56.6927 68.1464 56.6927 68.5322V74.502C56.6927 74.9284 56.449 75.1721 56.0226 75.1721H54.8652C54.52 75.1721 54.2357 74.969 54.1342 74.5426L53.6469 72.3496C53.3626 70.9891 52.1849 70.0145 50.0528 70.0145C46.4587 70.0145 44.4282 72.2481 44.4282 75.3548C44.4282 77.8727 45.7886 81.081 46.6618 84.0862H53.2205C53.6063 84.0862 53.8905 84.3705 53.8905 84.7563V86.1574C53.8905 86.5432 53.6063 86.8274 53.2205 86.8274H47.2506C47.2912 87.2539 47.3522 87.7006 47.3522 88.0864C47.3115 91.1931 45.8496 93.1831 43.9002 94.9903L42.2961 96.4929H56.9567C57.3019 96.4929 57.4846 96.7771 57.4034 97.1223L56.3881 99.9854C56.3475 100.188 56.1445 100.331 55.9414 100.331H36.0014V100.392Z" fill="#9C0067"/>
<path d="M71.3217 61.8178V45.5586" stroke="#9C0067" stroke-width="4" stroke-linecap="round" stroke-linejoin="round"/>
</svg>
