<?xml version="1.0" encoding="UTF-8"?>
<!DOCTYPE svg PUBLIC "-//W3C//DTD SVG 1.1//EN" "http://www.w3.org/Graphics/SVG/1.1/DTD/svg11.dtd">
<svg xmlns="http://www.w3.org/2000/svg" version="1.1" width="369px" height="327px" style="shape-rendering:geometricPrecision; text-rendering:geometricPrecision; image-rendering:optimizeQuality; fill-rule:evenodd; clip-rule:evenodd" xmlns:xlink="http://www.w3.org/1999/xlink">
<g><path style="opacity:0.938" fill="#272d5b" d="M 225.5,25.5 C 242.166,25.6596 251.999,33.9929 255,50.5C 257.892,66.8227 253.392,80.656 241.5,92C 238.446,94.1939 235.112,95.8605 231.5,97C 241.528,106.752 245.361,118.585 243,132.5C 241.227,143.047 236.561,152.047 229,159.5C 222.667,165.167 216.333,170.833 210,176.5C 203.674,185.098 203.007,194.098 208,203.5C 216.799,212.434 224.132,222.434 230,233.5C 235.456,250.261 234.456,266.594 227,282.5C 218.478,294.014 206.978,300.181 192.5,301C 168.674,302.501 152.84,292.001 145,269.5C 143.122,258.912 141.788,248.245 141,237.5C 136.658,222.814 130.658,208.814 123,195.5C 113.994,175.052 112.328,154.052 118,132.5C 120.12,127.758 122.62,123.258 125.5,119C 108.639,113.438 103.473,102.271 110,85.5C 113.869,79.476 119.369,75.8093 126.5,74.5C 130.017,63.9935 137.35,58.9935 148.5,59.5C 150.552,52.9452 154.886,48.4452 161.5,46C 165.89,45.2278 170.223,45.3945 174.5,46.5C 182.671,36.2982 192.838,33.6315 205,38.5C 210.427,31.8987 217.26,27.5654 225.5,25.5 Z M 225.5,39.5 C 233.514,38.9979 238.681,42.6645 241,50.5C 244.089,62.898 240.923,73.398 231.5,82C 222.345,85.5056 216.179,82.339 213,72.5C 211.159,64.1987 212.159,56.1987 216,48.5C 218.406,44.5915 221.572,41.5915 225.5,39.5 Z M 191.5,49.5 C 195.426,49.0466 198.592,50.3799 201,53.5C 205.673,62.6514 204.506,71.1514 197.5,79C 192.271,81.7101 188.104,80.5435 185,75.5C 180.742,65.1264 182.908,56.4597 191.5,49.5 Z M 166.5,58.5 C 172.911,60.2678 176.244,64.6011 176.5,71.5C 175.945,75.0537 174.779,78.387 173,81.5C 168.25,85.8164 164.25,85.1498 161,79.5C 157.632,70.9449 159.465,63.9449 166.5,58.5 Z M 142.5,73.5 C 147.133,72.4582 150.299,74.1249 152,78.5C 154.548,83.7205 153.715,88.2205 149.5,92C 144.537,92.7334 141.37,90.5667 140,85.5C 138.888,81.0186 139.721,77.0186 142.5,73.5 Z M 126.5,88.5 C 134.189,89.8807 136.689,94.2141 134,101.5C 127.271,106.576 122.771,105.076 120.5,97C 121.187,93.1604 123.187,90.3271 126.5,88.5 Z M 188.5,101.5 C 195.508,101.334 202.508,101.5 209.5,102C 225.679,105.84 232.179,116.007 229,132.5C 227.608,138.214 224.941,143.214 221,147.5C 212.644,154.858 204.644,162.524 197,170.5C 188.851,186.501 189.851,201.834 200,216.5C 208.831,224.17 215.165,233.504 219,244.5C 222.658,259.104 219.158,271.604 208.5,282C 195.958,288.802 183.292,289.136 170.5,283C 165.125,278.961 161.291,273.794 159,267.5C 157.322,253.417 154.989,239.417 152,225.5C 146.549,211.93 140.549,198.596 134,185.5C 128.03,169.794 127.03,153.794 131,137.5C 137.288,123.879 147.455,114.379 161.5,109C 170.413,105.692 179.413,103.192 188.5,101.5 Z"/></g>
</svg>
