<svg xmlns="http://www.w3.org/2000/svg" data-name="Layer 1" viewBox="25.98 6.42 35.41 65.86">   <path d="M61.25 15.97c.74-4.73-1.6-8.89-5.32-9.48a4.91 4.91 0 0 0-.86-.07c-2.19 0-4.2 1.28-5.54 3.32-.69-.47-1.47-.77-2.34-.86-.16-.02-.32-.02-.47-.02-1.81 0-3.46 1.01-4.54 2.6-.56-.25-1.17-.38-1.82-.38-1.59 0-3.06.83-4.03 2.27-.25.37-.46.77-.63 1.19-.23-.04-.47-.06-.71-.06-.27 0-.55.03-.82.08-1.11.2-2.12.87-2.8 1.88-.37.54-.63 1.17-.78 1.84-2.53.16-4.53 2.28-4.61 4.95-.04 1.38.47 2.73 1.4 3.71.87.91 2.01 1.43 3.24 1.48-1.67 2.1-2.76 4.76-2.87 8.1-.2 6.04 1.82 10.07 3.6 13.63 1.67 3.34 3.12 6.24 3.12 10.82 0 2.68.92 5.41 2.51 7.47 1.92 2.47 4.64 3.84 7.68 3.84 7.15 0 11.21-3.79 11.44-10.67.17-5.19-2.35-8.04-4.38-10.33-1.72-1.95-2.62-3.05-2.62-5.06 0-2.8 1.36-4.11 3.77-6.18 2.47-2.12 5.54-4.75 5.54-9.88 0-2.96-1.12-5.32-3.12-6.86 2.94-.6 5.36-3.5 5.96-7.34Zm-11.52 5.32.03.03h-.06l.03-.03Zm-5.87-5.8c.2-2.04 1.45-3.6 2.85-3.6h.18c1.47.14 2.48 1.98 2.28 4.11-.2 2.04-1.46 3.6-2.86 3.6h-.18c-1.47-.14-2.49-1.98-2.28-4.11Zm-3.51-1.38c1.19 0 2.15 1.43 2.15 3.2 0 1.77-.97 3.2-2.16 3.2-1.19 0-2.16-1.44-2.16-3.2s.97-3.2 2.16-3.2Zm-5.6 3.43c.08-.02.16-.02.24-.02.88 0 1.73.92 1.98 2.19.28 1.38-.28 2.64-1.23 2.82-.08.01-.16.02-.23.02-.87 0-1.73-.92-1.99-2.19-.27-1.38.27-2.65 1.23-2.82Zm-5.76 5.8c.03-1.14.88-2.04 1.9-2.04h.03c1.03.02 1.84.96 1.8 2.1-.04 1.13-.88 2.03-1.89 2.03h-.03c-1.03-.02-1.84-.96-1.8-2.09Zm26.41 6.84c0 7.67-9.31 7.61-9.31 16.06 0 6.75 7.26 7.63 7.01 15.29-.14 4.12-1.75 7.75-8.43 7.75-4.55 0-7.18-4.35-7.18-8.29 0-10.7-7.07-13.91-6.72-24.35.35-10.44 12.97-12.36 17.56-12.37 2.45 0 7.07.6 7.07 5.9Zm-1.24-9.76c-.13 0-.26-.01-.4-.03-2.02-.32-3.28-3.03-2.81-6.03.44-2.82 2.23-4.91 4.11-4.91.13 0 .26 0 .39.03 2.02.32 3.28 3.03 2.81 6.04-.44 2.82-2.23 4.91-4.11 4.91Z" style="fill:#243060"></path> </svg>