<?xml version="1.0" encoding="UTF-8"?>
<!DOCTYPE svg PUBLIC "-//W3C//DTD SVG 1.1//EN" "http://www.w3.org/Graphics/SVG/1.1/DTD/svg11.dtd">
<svg xmlns="http://www.w3.org/2000/svg" version="1.1" width="369px" height="327px" style="shape-rendering:geometricPrecision; text-rendering:geometricPrecision; image-rendering:optimizeQuality; fill-rule:evenodd; clip-rule:evenodd" xmlns:xlink="http://www.w3.org/1999/xlink">
<g><path style="opacity:0.929" fill="#272d5b" d="M 202.5,27.5 C 204.857,27.3367 207.19,27.5034 209.5,28C 231.333,49.8333 253.167,71.6667 275,93.5C 275.755,96.3033 275.422,98.9699 274,101.5C 266.833,108.667 259.667,115.833 252.5,123C 247.828,126.292 243.495,125.792 239.5,121.5C 236.167,124.167 233.167,127.167 230.5,130.5C 257.848,158.014 285.014,185.681 312,213.5C 312.706,215.971 312.373,218.305 311,220.5C 302.833,228.667 294.667,236.833 286.5,245C 284.167,245.667 281.833,245.667 279.5,245C 252.5,218 225.5,191 198.5,164C 194.203,166.108 190.536,169.275 187.5,173.5C 191.477,176.888 192.311,180.888 190,185.5C 182.833,192.667 175.667,199.833 168.5,207C 165.362,209.721 162.029,210.054 158.5,208C 136.638,186.472 115.138,164.639 94,142.5C 93.3333,140.5 93.3333,138.5 94,136.5C 102.167,128.333 110.333,120.167 118.5,112C 122.584,110.718 125.918,111.718 128.5,115C 129.167,115.667 129.833,115.667 130.5,115C 147.333,98.1667 164.167,81.3333 181,64.5C 180.03,61.7083 178.863,58.875 177.5,56C 177.625,54.3732 178.125,52.8732 179,51.5C 187.036,43.6316 194.869,35.6316 202.5,27.5 Z M 205.5,43.5 C 223.632,61.1316 241.632,78.9649 259.5,97C 255.333,101.167 251.167,105.333 247,109.5C 229.167,91.6667 211.333,73.8333 193.5,56C 197.704,51.9644 201.704,47.7978 205.5,43.5 Z M 190.5,73.5 C 203.632,86.1314 216.632,98.9647 229.5,112C 212.653,129.014 195.653,145.847 178.5,162.5C 165.5,150.167 152.833,137.5 140.5,124.5C 157.188,107.479 173.855,90.4792 190.5,73.5 Z M 121.5,127.5 C 139.632,145.132 157.632,162.965 175.5,181C 171.333,185.167 167.167,189.333 163,193.5C 145.167,175.667 127.333,157.833 109.5,140C 113.704,135.964 117.704,131.798 121.5,127.5 Z M 219.5,140.5 C 245.582,165.081 271.249,190.248 296.5,216C 292,220.5 287.5,225 283,229.5C 258,204.5 233,179.5 208,154.5C 207.333,153.833 207.333,153.167 208,152.5C 212.037,148.631 215.87,144.631 219.5,140.5 Z"/></g>
<g><path style="opacity:0.948" fill="#272d5b" d="M 77.5,215.5 C 120.501,215.333 163.501,215.5 206.5,216C 207.667,216.5 208.5,217.333 209,218.5C 209.5,226.159 209.666,233.826 209.5,241.5C 217.174,241.334 224.841,241.5 232.5,242C 233.416,242.374 234.25,242.874 235,243.5C 235.667,254.833 235.667,266.167 235,277.5C 234.5,278 234,278.5 233.5,279C 203.084,280.16 172.584,280.66 142,280.5C 111.416,280.66 80.9159,280.16 50.5,279C 50,278.5 49.5,278 49,277.5C 48.1888,266.12 48.3554,254.787 49.5,243.5C 50.0253,242.808 50.6919,242.308 51.5,242C 59.1594,241.5 66.8261,241.334 74.5,241.5C 74.3337,234.159 74.5003,226.826 75,219.5C 75.6622,218.016 76.4955,216.683 77.5,215.5 Z M 87.5,228.5 C 123.833,228.5 160.167,228.5 196.5,228.5C 196.5,232.833 196.5,237.167 196.5,241.5C 160.167,241.5 123.833,241.5 87.5,241.5C 87.5,237.167 87.5,232.833 87.5,228.5 Z M 61.5,254.5 C 115.167,254.5 168.833,254.5 222.5,254.5C 222.5,258.833 222.5,263.167 222.5,267.5C 168.833,267.5 115.167,267.5 61.5,267.5C 61.5,263.167 61.5,258.833 61.5,254.5 Z"/></g>
</svg>
