<svg width="54" height="60" viewBox="0 0 54 60" fill="none" xmlns="http://www.w3.org/2000/svg">
<path fill-rule="evenodd" clip-rule="evenodd" d="M50.621 2.94187C51.1412 2.2971 51.0402 1.35274 50.3954 0.832587C49.7506 0.312433 48.8063 0.413458 48.2861 1.05823L33.0125 19.9912L18.5625 16.4175C18.0739 16.2967 17.5573 16.429 17.1868 16.7697L0.651843 31.9819C0.0421776 32.5428 0.00263906 33.4918 0.563531 34.1014C1.12442 34.7111 2.07335 34.7506 2.68301 34.1897L18.6248 19.5233L33.2199 23.1328C33.7857 23.2728 34.3814 23.0722 34.7474 22.6185L50.621 2.94187ZM52.3323 17.0076C53.1608 17.0076 53.8323 17.6792 53.8323 18.5076V58C53.8323 58.8285 53.1608 59.5 52.3323 59.5C51.5039 59.5 50.8323 58.8285 50.8323 58V18.5076C50.8323 17.6792 51.5039 17.0076 52.3323 17.0076ZM47.5081 28.6251C47.5081 27.7966 46.8366 27.1251 46.0081 27.1251C45.1797 27.1251 44.5081 27.7966 44.5081 28.6251L44.5081 58C44.5081 58.8284 45.1797 59.5 46.0081 59.5C46.8366 59.5 47.5081 58.8284 47.5081 58L47.5081 28.6251ZM34.8597 29.992C34.8597 29.1636 34.1881 28.492 33.3597 28.492C32.5313 28.492 31.8597 29.1636 31.8597 29.992L31.8597 58C31.8597 58.8284 32.5313 59.5 33.3597 59.5C34.1881 59.5 34.8597 58.8284 34.8597 58V29.992ZM27.0355 30.5001C27.8639 30.5001 28.5355 31.1716 28.5355 32.0001L28.5355 58C28.5355 58.8284 27.8639 59.5 27.0355 59.5C26.207 59.5 25.5355 58.8284 25.5355 58L25.5355 32.0001C25.5355 31.1716 26.207 30.5001 27.0355 30.5001ZM22.2113 35.7343C22.2113 34.9059 21.5397 34.2343 20.7113 34.2343C19.8828 34.2343 19.2113 34.9059 19.2113 35.7343V58.0001C19.2113 58.8285 19.8828 59.5001 20.7113 59.5001C21.5397 59.5001 22.2113 58.8285 22.2113 58.0001V35.7343ZM14.387 38C15.2155 38 15.887 38.6716 15.887 39.5L15.887 58.0001C15.887 58.8285 15.2155 59.5001 14.387 59.5001C13.5586 59.5001 12.887 58.8285 12.887 58.0001L12.887 39.5C12.887 38.6716 13.5586 38 14.387 38ZM3.23859 41.4765C3.23859 40.6481 2.56702 39.9765 1.73859 39.9765C0.910167 39.9765 0.238595 40.6481 0.238595 41.4765L0.238595 58C0.238595 58.8285 0.910168 59.5 1.73859 59.5C2.56702 59.5 3.2386 58.8285 3.2386 58L3.23859 41.4765ZM9.56281 41.4765C9.56281 40.6481 8.89124 39.9765 8.06281 39.9765C7.23439 39.9765 6.56281 40.6481 6.56281 41.4765L6.56281 58C6.56281 58.8285 7.23439 59.5 8.06281 59.5C8.89124 59.5 9.56281 58.8285 9.56281 58L9.56281 41.4765ZM39.6839 31.9373C40.5123 31.9373 41.1839 32.6089 41.1839 33.4373V58C41.1839 58.8284 40.5123 59.5 39.6839 59.5C38.8555 59.5 38.1839 58.8284 38.1839 58V33.4373C38.1839 32.6089 38.8555 31.9373 39.6839 31.9373Z" fill="#7C83A0"/>
</svg>
