<svg xmlns="http://www.w3.org/2000/svg" data-name="Layer 1" viewBox="17.23 16.74 53.08 47.84">   <path d="M32.06 19.9c-3.22 0-6.18 1.3-8.33 3.67-2.19 2.4-3.39 5.72-3.39 9.34 0 3.82 1.4 7.24 4.55 11.09 3.04 3.72 7.57 7.62 12.8 12.14 1.83 1.59 3.91 3.38 6.07 5.29 2.17-1.92 4.25-3.71 6.09-5.29 5.24-4.52 9.76-8.42 12.8-12.14 3.15-3.84 4.55-7.26 4.55-11.09 0-3.62-1.2-6.94-3.39-9.34-2.15-2.36-5.11-3.67-8.33-3.67-2.36 0-4.53.76-6.44 2.26-1.7 1.34-2.89 3.02-3.59 4.21-.36.61-.99.97-1.69.97s-1.33-.36-1.69-.97c-.7-1.18-1.88-2.87-3.59-4.21-1.91-1.5-4.08-2.26-6.44-2.26Zm11.71 44.68c-.76 0-1.48-.28-2.05-.78-2.14-1.9-4.21-3.68-6.04-5.26-5.35-4.62-9.97-8.61-13.18-12.54-3.59-4.39-5.27-8.55-5.27-13.1s1.5-8.49 4.21-11.48c2.75-3.02 6.52-4.68 10.62-4.68 3.06 0 5.87.98 8.34 2.92 1.25.98 2.38 2.17 3.37 3.57 1-1.39 2.13-2.59 3.37-3.57 2.47-1.94 5.28-2.92 8.34-2.92 4.1 0 7.87 1.66 10.62 4.68 2.72 2.98 4.21 7.06 4.21 11.48s-1.67 8.71-5.27 13.1c-3.21 3.93-7.83 7.91-13.18 12.53-1.83 1.58-3.9 3.36-6.05 5.27-.57.5-1.3.78-2.05.78Z" style="fill:#282d5b"></path> </svg>