<?xml version="1.0" encoding="UTF-8"?>
<!DOCTYPE svg PUBLIC "-//W3C//DTD SVG 1.1//EN" "http://www.w3.org/Graphics/SVG/1.1/DTD/svg11.dtd">
<svg xmlns="http://www.w3.org/2000/svg" version="1.1" width="369px" height="327px" style="shape-rendering:geometricPrecision; text-rendering:geometricPrecision; image-rendering:optimizeQuality; fill-rule:evenodd; clip-rule:evenodd" xmlns:xlink="http://www.w3.org/1999/xlink">
<g><path style="opacity:0.929" fill="#272d5b" d="M 127.5,68.5 C 150.299,67.651 168.466,76.3177 182,94.5C 204.645,67.1654 231.812,61.6654 263.5,78C 287.061,95.981 296.561,119.814 292,149.5C 289.375,162.746 284.042,174.746 276,185.5C 271.043,192.126 265.709,198.46 260,204.5C 238.131,224.704 215.965,244.537 193.5,264C 187.024,270.296 180.024,270.963 172.5,266C 157.02,252.098 141.354,238.431 125.5,225C 109.177,211.349 95.0103,195.849 83,178.5C 65.3064,147.9 66.6398,118.233 87,89.5C 97.8854,77.3083 111.385,70.3083 127.5,68.5 Z M 131.5,82.5 C 146.25,83.292 158.417,89.292 168,100.5C 170.783,104.951 173.95,109.117 177.5,113C 180.5,113.667 183.5,113.667 186.5,113C 193.167,102.333 201.833,93.6667 212.5,87C 244.386,77.8612 265.886,89.0278 277,120.5C 281.486,139.57 278.153,157.236 267,173.5C 257.607,185.899 247.107,197.399 235.5,208C 217.386,223.146 199.553,238.646 182,254.5C 155.769,232.608 130.436,209.608 106,185.5C 97.3511,175.873 91.0178,164.873 87,152.5C 80.7737,126.844 87.9404,106.011 108.5,90C 115.749,85.7807 123.415,83.2807 131.5,82.5 Z"/></g>
</svg>
