<svg xmlns="http://www.w3.org/2000/svg" id="Layer_1" data-name="Layer 1" viewBox="15.25 8.89 59.67 62.06">   <defs>     <style>       .cls-1{fill:#fff}.cls-2{fill:#243060}.cls-3{fill:none;stroke:#243060;stroke-linecap:round;stroke-linejoin:round;stroke-width:3.23px}     </style>   </defs>   <path d="m73.31 38.71-28.22-28.2-28.22 28.2" class="cls-3"></path>   <path d="M64.52 29.86v29.93H25.65V29.86m33.98-4.81V14.91" class="cls-3"></path>   <path d="M45.02 69.76c-6.41 0-12.9-1.91-12.9-5.56v-4.42c0-.67.54-1.21 1.21-1.21h23.24c.06 0 .12-.01.18-.01.67 0 1.21.55 1.21 1.22l-.04 4.43c0 3.64-6.49 5.55-12.9 5.55Z" class="cls-1"></path>   <path d="M56.75 59.76v.01-.01m0 .01c0 .27-.04 4.42-.04 4.42 0 2.4-5.23 4.35-11.69 4.35s-11.69-1.95-11.69-4.35v-4.42h23.42m0-2.43c-.08 0-.17 0-.25.01H33.33c-1.34 0-2.42 1.08-2.42 2.42v4.42c0 4.65 7.31 6.77 14.11 6.77s14.11-2.12 14.11-6.77.04-4.08.04-4.37c.01-.64-.22-1.26-.66-1.72-.46-.48-1.1-.75-1.75-.75Z" class="cls-2"></path>   <path d="M45.02 64.26c-6.41 0-12.9-1.91-12.9-5.56s6.49-5.56 12.9-5.56 12.9 1.91 12.9 5.56-6.49 5.56-12.9 5.56Z" class="cls-1"></path>   <path d="M45.02 54.34c6.46 0 11.69 1.95 11.69 4.35s-5.23 4.35-11.69 4.35-11.69-1.95-11.69-4.35 5.23-4.35 11.69-4.35m0-2.42c-6.79 0-14.11 2.12-14.11 6.77s7.31 6.77 14.11 6.77 14.11-2.12 14.11-6.77-7.31-6.77-14.11-6.77Z" class="cls-2"></path>   <path d="M45.02 64.29c-6.41 0-12.9-1.91-12.9-5.56v-4.42c0-.67.54-1.21 1.21-1.21h23.24c.06 0 .12-.01.18-.01.67 0 1.21.55 1.21 1.22l-.04 4.43c0 3.64-6.49 5.55-12.9 5.55Z" class="cls-1"></path>   <path d="M56.75 54.29v.01-.01m0 .01c0 .27-.04 4.42-.04 4.42 0 2.4-5.23 4.35-11.69 4.35s-11.69-1.95-11.69-4.35V54.3h23.42m0-2.43c-.08 0-.17 0-.25.01H33.33c-1.34 0-2.42 1.08-2.42 2.42v4.42c0 4.65 7.31 6.77 14.11 6.77s14.11-2.12 14.11-6.77.04-4.08.04-4.37c.01-.64-.22-1.26-.66-1.72-.46-.48-1.1-.75-1.75-.75Z" class="cls-2"></path>   <path d="M45.02 58.78c-6.41 0-12.9-1.91-12.9-5.56s6.49-5.56 12.9-5.56 12.9 1.91 12.9 5.56-6.49 5.56-12.9 5.56Z" class="cls-1"></path>   <path d="M45.02 48.87c6.46 0 11.69 1.95 11.69 4.35s-5.23 4.35-11.69 4.35-11.69-1.95-11.69-4.35 5.23-4.35 11.69-4.35m0-2.42c-6.79 0-14.11 2.12-14.11 6.77s7.31 6.77 14.11 6.77 14.11-2.12 14.11-6.77-7.31-6.77-14.11-6.77Z" class="cls-2"></path>   <path d="M45.02 58.81c-6.41 0-12.9-1.91-12.9-5.56v-4.42c0-.67.54-1.21 1.21-1.21h23.24c.06 0 .12-.01.18-.01.67 0 1.21.55 1.21 1.22l-.04 4.43c0 3.64-6.49 5.55-12.9 5.55Z" class="cls-1"></path>   <path d="M56.75 48.81v.01-.01m0 .01c0 .27-.04 4.42-.04 4.42 0 2.4-5.23 4.35-11.69 4.35s-11.69-1.95-11.69-4.35v-4.42h23.42m0-2.43c-.08 0-.17 0-.25.01H33.33c-1.34 0-2.42 1.08-2.42 2.42v4.42c0 4.65 7.31 6.77 14.11 6.77s14.11-2.12 14.11-6.77.04-4.08.04-4.37c.01-.64-.22-1.26-.66-1.72-.46-.48-1.1-.75-1.75-.75Z" class="cls-2"></path>   <path d="M45.02 53.31c-6.41 0-12.9-1.91-12.9-5.56s6.49-5.56 12.9-5.56 12.9 1.91 12.9 5.56-6.49 5.56-12.9 5.56Z" class="cls-1"></path>   <path d="M45.02 43.39c6.46 0 11.69 1.95 11.69 4.35s-5.23 4.35-11.69 4.35-11.69-1.95-11.69-4.35 5.23-4.35 11.69-4.35m0-2.42c-6.79 0-14.11 2.12-14.11 6.77s7.31 6.77 14.11 6.77 14.11-2.12 14.11-6.77-7.31-6.77-14.11-6.77Z" class="cls-2"></path> </svg>