<?xml version="1.0" encoding="UTF-8"?>
<!DOCTYPE svg PUBLIC "-//W3C//DTD SVG 1.1//EN" "http://www.w3.org/Graphics/SVG/1.1/DTD/svg11.dtd">
<svg xmlns="http://www.w3.org/2000/svg" version="1.1" width="369px" height="327px" style="shape-rendering:geometricPrecision; text-rendering:geometricPrecision; image-rendering:optimizeQuality; fill-rule:evenodd; clip-rule:evenodd" xmlns:xlink="http://www.w3.org/1999/xlink">
<g><path style="opacity:0.934" fill="#272d5b" d="M 77.5,75.5 C 146.834,75.3333 216.167,75.5 285.5,76C 296,78.5 302.5,85 305,95.5C 305.667,142.167 305.667,188.833 305,235.5C 302.789,245.758 296.622,252.258 286.5,255C 216.833,255.667 147.167,255.667 77.5,255C 67.7518,252.918 61.5852,247.084 59,237.5C 58.3333,189.5 58.3333,141.5 59,93.5C 61.7894,83.8753 67.956,77.8753 77.5,75.5 Z M 81.5,87.5 C 148.501,87.3333 215.501,87.5 282.5,88C 284.044,88.2896 285.377,88.9563 286.5,90C 253.203,118.962 220.203,148.295 187.5,178C 183.258,180.202 179.258,179.869 175.5,177C 168.314,171.237 161.314,165.237 154.5,159C 129.833,135.667 105.167,112.333 80.5,89C 81.056,88.6174 81.3893,88.1174 81.5,87.5 Z M 70.5,97.5 C 71.2389,97.369 71.9056,97.5357 72.5,98C 99.4505,124.462 126.784,150.462 154.5,176C 127.9,197.269 100.734,217.769 73,237.5C 72.0853,236.672 71.4186,235.672 71,234.5C 70.5,188.835 70.3333,143.168 70.5,97.5 Z M 291.5,101.5 C 292.831,145.669 292.831,190.002 291.5,234.5C 264.167,214.833 236.833,195.167 209.5,175.5C 237.152,151.181 264.485,126.514 291.5,101.5 Z M 164.5,184.5 C 171.566,191.071 179.899,193.238 189.5,191C 193.345,189.58 196.678,187.413 199.5,184.5C 227.009,203.755 254.343,223.255 281.5,243C 216.5,243.667 151.5,243.667 86.5,243C 113.105,224.209 139.105,204.709 164.5,184.5 Z"/></g>
</svg>
