<?xml version="1.0" standalone="no"?>
<!DOCTYPE svg PUBLIC "-//W3C//DTD SVG 20010904//EN"
 "http://www.w3.org/TR/2001/REC-SVG-20010904/DTD/svg10.dtd">
<svg version="1.0" xmlns="http://www.w3.org/2000/svg"
 width="369.000000pt" height="327.000000pt" viewBox="0 0 369.000000 327.000000"
 preserveAspectRatio="xMidYMid meet">

<g transform="translate(0.000000,327.000000) scale(0.100000,-0.100000)"
fill="#000000" stroke="none">
<path d="M735 2486 c-46 -20 -94 -64 -118 -110 l-22 -41 0 -725 0 -725 22 -41
c25 -47 73 -91 120 -111 26 -11 225 -13 1091 -13 l1058 0 54 33 c42 25 61 44
82 86 l28 54 -2 727 -3 727 -30 48 c-22 36 -45 57 -84 77 l-53 28 -1057 0
c-848 -1 -1062 -3 -1086 -14z m2129 -105 c16 -6 -66 -84 -478 -452 -274 -244
-509 -450 -522 -457 -15 -8 -37 -11 -54 -7 -50 11 -201 145 -722 644 -159 151
-288 276 -288 278 0 7 2046 1 2064 -6z m-1799 -411 c159 -152 336 -319 393
-370 97 -89 102 -95 85 -111 -24 -22 -523 -400 -686 -519 -102 -74 -131 -90
-138 -79 -5 8 -9 317 -9 712 l0 699 32 -28 c18 -15 163 -152 323 -304z m1875
-379 c0 -379 -4 -672 -9 -675 -5 -3 -196 128 -424 292 l-416 297 27 27 c50 51
807 727 815 727 4 1 7 -300 7 -668z m-1200 -220 c79 -36 172 -22 232 36 l26
25 409 -292 c224 -161 412 -296 418 -301 5 -5 -411 -9 -979 -9 l-988 0 149
109 c81 60 260 194 398 299 247 189 250 191 270 172 11 -10 40 -28 65 -39z"/>
</g>
</svg>
