<?xml version="1.0" encoding="UTF-8"?>
<!DOCTYPE svg PUBLIC "-//W3C//DTD SVG 1.1//EN" "http://www.w3.org/Graphics/SVG/1.1/DTD/svg11.dtd">
<svg xmlns="http://www.w3.org/2000/svg" version="1.1" width="369px" height="327px" style="shape-rendering:geometricPrecision; text-rendering:geometricPrecision; image-rendering:optimizeQuality; fill-rule:evenodd; clip-rule:evenodd" xmlns:xlink="http://www.w3.org/1999/xlink">
<g><path style="opacity:0.922" fill="#272d5b" d="M 182.5,37.5 C 186.355,36.8454 189.188,38.1788 191,41.5C 191.667,52.5 191.667,63.5 191,74.5C 186.23,79.7983 181.896,79.465 178,73.5C 177.333,63.1667 177.333,52.8333 178,42.5C 179.025,40.313 180.525,38.6464 182.5,37.5 Z"/></g>
<g><path style="opacity:0.906" fill="#272d5b" d="M 98.5,63.5 C 100.989,63.2978 103.323,63.7978 105.5,65C 112.97,71.4684 120.136,78.3017 127,85.5C 128.762,94.7436 125.262,97.9102 116.5,95C 109.03,88.5316 101.864,81.6983 95,74.5C 93.6631,69.8721 94.8298,66.2054 98.5,63.5 Z"/></g>
<g><path style="opacity:0.914" fill="#272d5b" d="M 261.5,65.5 C 270.807,64.9694 273.641,68.9694 270,77.5C 262.864,83.6349 256.031,90.1349 249.5,97C 241.329,99.1663 237.829,95.9997 239,87.5C 246.395,79.9368 253.895,72.6035 261.5,65.5 Z"/></g>
<g><path style="opacity:0.934" fill="#272d5b" d="M 175.5,85.5 C 219.88,84.5072 244.547,106.007 249.5,150C 249.236,162.793 245.736,174.626 239,185.5C 232.286,193.212 225.953,201.212 220,209.5C 219.138,211.087 218.471,212.754 218,214.5C 217.862,220.581 217.196,226.581 216,232.5C 214.125,235.187 211.625,237.021 208.5,238C 192.5,238.667 176.5,238.667 160.5,238C 155.449,236.283 152.615,232.783 152,227.5C 152.586,219.601 150.92,212.268 147,205.5C 140.286,197.788 133.953,189.788 128,181.5C 113.097,147.661 119.931,119.161 148.5,96C 157.021,90.9978 166.021,87.4978 175.5,85.5 Z M 176.5,99.5 C 205.654,97.9804 224.821,110.98 234,138.5C 237.004,153.813 234.004,167.813 225,180.5C 215.761,189.31 208.761,199.644 204,211.5C 203.501,215.821 203.334,220.154 203.5,224.5C 190.833,224.5 178.167,224.5 165.5,224.5C 166.742,214.134 164.242,204.801 158,196.5C 150.177,188.345 143.51,179.345 138,169.5C 128.69,133.775 141.523,110.442 176.5,99.5 Z"/></g>
<g><path style="opacity:0.925" fill="#272d5b" d="M 73.5,131.5 C 82.8393,131.334 92.1726,131.5 101.5,132C 106.145,134.025 107.645,137.525 106,142.5C 105.5,143.667 104.667,144.5 103.5,145C 92.8333,145.667 82.1667,145.667 71.5,145C 65.8113,139.583 66.478,135.083 73.5,131.5 Z"/></g>
<g><path style="opacity:0.925" fill="#272d5b" d="M 262.5,131.5 C 271.839,131.334 281.173,131.5 290.5,132C 296.29,135.532 296.957,139.865 292.5,145C 281.5,145.667 270.5,145.667 259.5,145C 254.966,139.164 255.966,134.664 262.5,131.5 Z"/></g>
<g><path style="opacity:0.933" fill="#272d5b" d="M 166.5,253.5 C 178.838,253.333 191.171,253.5 203.5,254C 208.235,255.068 211.402,257.901 213,262.5C 213.667,268.5 213.667,274.5 213,280.5C 211.402,285.099 208.235,287.932 203.5,289C 190.833,289.667 178.167,289.667 165.5,289C 160.333,287.833 157.167,284.667 156,279.5C 155.333,274.167 155.333,268.833 156,263.5C 157.56,257.996 161.06,254.662 166.5,253.5 Z M 169.5,267.5 C 179.5,267.5 189.5,267.5 199.5,267.5C 199.5,270.167 199.5,272.833 199.5,275.5C 189.5,275.5 179.5,275.5 169.5,275.5C 169.5,272.833 169.5,270.167 169.5,267.5 Z"/></g>
</svg>
