<?xml version="1.0" encoding="UTF-8"?>
<!DOCTYPE svg PUBLIC "-//W3C//DTD SVG 1.1//EN" "http://www.w3.org/Graphics/SVG/1.1/DTD/svg11.dtd">
<svg xmlns="http://www.w3.org/2000/svg" version="1.1" width="369px" height="327px" style="shape-rendering:geometricPrecision; text-rendering:geometricPrecision; image-rendering:optimizeQuality; fill-rule:evenodd; clip-rule:evenodd" xmlns:xlink="http://www.w3.org/1999/xlink">
<g><path style="opacity:0.929" fill="#272d5b" d="M 102.5,65.5 C 122.836,65.3334 143.169,65.5 163.5,66C 169.943,69.0561 171.776,73.8894 169,80.5C 158.362,96.6367 147.529,112.637 136.5,128.5C 146.483,129.332 156.483,129.832 166.5,130C 172.795,132.425 174.962,136.925 173,143.5C 137.704,183.798 102.038,223.798 66,263.5C 62.3592,269.406 57.1925,271.573 50.5,270C 45.2685,267.367 43.4351,263.201 45,257.5C 56.2259,232.048 67.7259,206.714 79.5,181.5C 69.5166,180.668 59.5166,180.168 49.5,180C 44.8451,177.103 43.3451,172.937 45,167.5C 62.4122,134.341 80.0789,101.341 98,68.5C 99.6516,67.6006 101.152,66.6006 102.5,65.5 Z M 66.5,242.5 C 75.7134,221.07 85.2134,199.737 95,178.5C 95.6667,175.833 95.6667,173.167 95,170.5C 94.2496,169.874 93.4162,169.374 92.5,169C 81.5,168.667 70.5,168.333 59.5,168C 75.5,138.333 91.5,108.667 107.5,79C 123.167,78.3333 138.833,78.3333 154.5,79C 142.667,96.1667 130.833,113.333 119,130.5C 116.62,134.836 117.12,138.669 120.5,142C 132.5,142.333 144.5,142.667 156.5,143C 126.634,176.362 96.6343,209.529 66.5,242.5 Z"/></g>
<g><path style="opacity:0.934" fill="#272d5b" d="M 268.5,69.5 C 271.505,69.253 274.005,70.253 276,72.5C 273.703,91.0538 276.703,108.72 285,125.5C 293.194,140.555 300.861,155.888 308,171.5C 317.241,203.713 309.741,231.213 285.5,254C 271.802,264.257 256.469,267.924 239.5,265C 213.42,257.251 197.253,240.085 191,213.5C 188.553,199.665 189.22,185.998 193,172.5C 195.667,165.833 198.333,159.167 201,152.5C 202.942,145.464 204.109,138.297 204.5,131C 203.446,121.421 202.279,111.921 201,102.5C 202.333,100.167 204.333,99.1667 207,99.5C 216.627,101.316 224.627,105.982 231,113.5C 238.042,93.9747 250.542,79.3081 268.5,69.5 Z M 261.5,89.5 C 263.107,101.002 265.94,112.335 270,123.5C 277.473,139.779 285.473,155.779 294,171.5C 303.063,196.044 299.396,218.377 283,238.5C 286.253,207.161 275.753,181.327 251.5,161C 244.006,159.486 240.506,162.653 241,170.5C 237.414,176.091 233.08,181.091 228,185.5C 216.104,198.189 210.771,213.189 212,230.5C 203.46,216.663 200.46,201.663 203,185.5C 206.711,173.742 210.711,162.075 215,150.5C 216.178,139.875 216.845,129.209 217,118.5C 223.1,124.359 227.433,131.359 230,139.5C 234.088,143.466 237.754,143.133 241,138.5C 241.129,119.26 247.962,102.927 261.5,89.5 Z M 250.5,179.5 C 253.298,180.706 255.465,182.706 257,185.5C 265.291,197.206 270.125,210.206 271.5,224.5C 271.198,240.142 263.531,249.808 248.5,253.5C 236.882,252.049 229.382,245.716 226,234.5C 223.722,224.831 224.722,215.497 229,206.5C 236,197.337 243.167,188.337 250.5,179.5 Z"/></g>
</svg>
