<svg xmlns="http://www.w3.org/2000/svg" id="Layer_1" data-name="Layer 1" viewBox="0 0 88.51 78.39"><defs><style>.cls-1{fill:#282d5b}</style></defs><path d="M44.44 20.74c-8.47 0-15.36 6.89-15.36 15.36 0 3.47 1.14 6.75 3.29 9.48.41.53.86 1.04 1.29 1.54 1.28 1.48 2.49 2.89 2.92 4.47 0 .03.09.37.08 1.49v.16c-.02.92-.03 2.17.9 3.11.63.64 1.53.96 2.73.96h8.31c1.29 0 2.22-.31 2.84-.97.84-.88.78-2.02.75-2.77 0-.13-.01-.27-.01-.4-.02-1.13.07-1.45.07-1.46.44-1.58 1.86-3.25 3.11-4.72.42-.49.81-.96 1.18-1.42 2.15-2.73 3.29-6.01 3.29-9.48 0-8.47-6.89-15.36-15.36-15.36Zm9.64 22.93c-.33.42-.71.86-1.1 1.33-1.46 1.71-3.11 3.66-3.74 5.9-.09.32-.2.91-.19 2.32 0 .17 0 .34.02.52 0 .14.01.32.01.46-.11.02-.28.03-.51.03h-8.31c-.26 0-.42-.03-.5-.05-.04-.2-.04-.62-.03-.88v-.18c.02-1.43-.1-2.02-.19-2.34-.61-2.26-2.18-4.07-3.56-5.68-.43-.49-.83-.96-1.2-1.43a12.076 12.076 0 0 1-2.62-7.56c0-6.76 5.5-12.27 12.27-12.27s12.27 5.5 12.27 12.27c0 2.77-.91 5.39-2.62 7.56ZM48.26 61.15h-7.64c-1.65 0-2.99 1.34-2.99 2.99v2.3c0 1.65 1.34 2.99 2.99 2.99h7.64c1.65 0 2.99-1.34 2.99-2.99v-2.3c0-1.65-1.34-2.99-2.99-2.99Zm-.1 5.18h-7.44v-2.09h7.44v2.09ZM44.44 18.73c.85 0 1.55-.69 1.55-1.55v-6.35c0-.85-.69-1.55-1.55-1.55s-1.55.69-1.55 1.55v6.35c0 .86.69 1.55 1.55 1.55ZM64.8 16.43c-.59-.62-1.57-.64-2.19-.05l-4.7 4.49c-.62.59-.64 1.57-.05 2.19.3.32.71.48 1.12.48s.77-.14 1.07-.43l4.7-4.48c.62-.59.64-1.57.05-2.19ZM69.41 31.9h-6.05c-.85 0-1.55.71-1.54 1.56 0 .86.69 1.55 1.55 1.55h6.05c.85-.01 1.54-.7 1.54-1.56 0-.86-.69-1.54-1.55-1.54ZM30.24 22.63c.59-.62.57-1.6-.05-2.18l-4.7-4.49c-.62-.59-1.6-.56-2.19.05-.59.62-.56 1.6.05 2.19l4.7 4.48c.3.29.69.43 1.07.43.41 0 .82-.16 1.12-.48ZM24.12 31.91h-6.05c-.85 0-1.54.69-1.55 1.54 0 .86.69 1.55 1.55 1.55h6.05v.01c.86 0 1.55-.69 1.55-1.55 0-.85-.69-1.55-1.54-1.55Z" class="cls-1"/></svg>