<svg xmlns="http://www.w3.org/2000/svg" id="Layer_1" data-name="Layer 1" viewBox="10.84 15.98 64 48.99">   <defs>     <style>       .cls-1{fill:none;stroke:#282d5b;stroke-linecap:round;stroke-linejoin:round;stroke-width:2.89px}     </style>   </defs>   <path d="M40.17 33.26c-.16-.31-.41-.46-.74-.46h-9.69l9.61-14.22c.16-.23.16-.54 0-.77s-.41-.38-.74-.38H25.47c-.33 0-.58.15-.74.38L12.41 40.86c-.16.23-.16.54 0 .77s.49.38.74.38h8.46l-9.2 20.52c-.16.31 0 .69.33.92.08.08.25.08.41.08a1 1 0 0 0 .66-.23L40.1 34.1c.16-.23.25-.54.08-.85Z" class="cls-1"></path>   <g id="g1853">     <path id="path1855" d="M48.34 40.8h0v-.01c.24-.59.52-1.15.82-1.69 3.01-7.11.57-13.59.57-13.59s4.74.59 6.86 7.19c-.83-3.44 2.5-11.62 8.4-14.28-1.47 7.29 2.84 13.78 6.12 20.3.49.82.91 1.7 1.25 2.62 0 0 0 0 0 0h0c.67 1.82 1.04 3.82 1.04 5.93 0 8.37-5.89 15.16-13.16 15.16s-13.16-6.79-13.16-15.16c0-2.31.45-4.5 1.25-6.46h0Z" class="cls-1"></path>   </g>   <g id="g1857">     <path id="path1859" d="M66.82 54.19c0-4.55-2.77-10.51-7.15-14.1 0 4.48-7.15 5.87-7.15 14.1 0 4.55 3.2 8.24 7.15 8.24s7.15-3.69 7.15-8.24Z" class="cls-1"></path>   </g> </svg>