<?xml version="1.0" standalone="yes"?>
<svg xmlns="http://www.w3.org/2000/svg" width="369" height="327">
<path style="fill:#ffffff; stroke:none;" d="M0 0L0 327L369 327L369 0L0 0z"/>
<path style="fill:#272d5b; stroke:none;" d="M156 43.4244C127.709 47.1845 102.931 58.4811 84.4645 81C47.6549 125.888 57.6678 196.683 105 229.964C126.786 245.282 153.754 251.342 180 247.572C188.939 246.288 197.638 243.786 206 240.396C209.108 239.136 213.552 235.858 217 237.102C221.565 238.749 225.649 244.649 229 248C242.447 261.447 260.412 289.534 282 285.671C296.292 283.113 304.907 266.188 299.517 253C293.979 239.449 276.234 227.234 266 217C262.326 213.326 253.625 207.407 252.846 202C252.117 196.947 259.079 187.896 260.936 183C265.332 171.409 267.821 158.405 267.821 146C267.821 88.1617 215.367 35.5341 156 43.4244z"/>
<path style="fill:#ffffff; stroke:none;" d="M157 56.4252C141.231 58.5717 126.132 63.1732 113 72.439C103.551 79.1057 94.9066 88.1741 88.814 98C48.9202 162.34 103.61 244.497 178 234.711C189.936 233.14 201.792 228.446 212 222.189C277.158 182.249 262.818 81.3336 190 59.7207C179.664 56.6529 167.737 54.9637 157 56.4252z"/>
<path style="fill:#272d5b; stroke:none;" d="M152 71.439C142.026 72.9969 132.562 76.7404 124 82.0656C56.3901 124.117 97.8149 232.772 176 220.561C186.62 218.902 196.931 215.283 206 209.453C214.367 204.074 221.375 197.203 226.971 189C264.19 134.44 216.852 61.3102 152 71.439z"/>
<path style="fill:#ffffff; stroke:none;" d="M155 85.439C146.443 86.7755 138.266 89.9928 131 94.6991C77.198 129.547 110.964 216.483 174 206.561C182.348 205.247 190.899 202.04 198 197.452C252.582 162.187 218.795 75.4752 155 85.439M242 214C239.111 216.887 230.207 222.712 230.207 227.039C230.207 231.376 237.22 236.22 240 239L264 263C267.256 266.251 271.054 271.242 276 271.713C282.081 272.292 288.375 264.841 286.253 259C284.387 253.862 278.754 249.754 275 246L262 233C255.582 226.582 249.43 219.234 242 214z"/>
</svg>
