<?xml version="1.0" encoding="UTF-8"?>
<!DOCTYPE svg PUBLIC "-//W3C//DTD SVG 1.1//EN" "http://www.w3.org/Graphics/SVG/1.1/DTD/svg11.dtd">
<svg xmlns="http://www.w3.org/2000/svg" version="1.1" width="369px" height="327px" style="shape-rendering:geometricPrecision; text-rendering:geometricPrecision; image-rendering:optimizeQuality; fill-rule:evenodd; clip-rule:evenodd" xmlns:xlink="http://www.w3.org/1999/xlink">
<g><path style="opacity:0.922" fill="#272d5b" d="M 264.5,45.5 C 272.614,44.1209 276.447,47.4543 276,55.5C 271.016,65.4689 266.016,75.4689 261,85.5C 256.333,90.8333 251.667,90.8333 247,85.5C 246.333,82.8333 246.333,80.1667 247,77.5C 252.084,66.3255 257.917,55.6589 264.5,45.5 Z"/></g>
<g><path style="opacity:0.926" fill="#272d5b" d="M 186.5,48.5 C 193.016,47.237 198.516,48.9036 203,53.5C 223.726,99.9522 244.726,146.286 266,192.5C 270.262,201.709 268.095,208.876 259.5,214C 226.157,215.703 192.824,217.537 159.5,219.5C 166.667,231.833 173.833,244.167 181,256.5C 183.138,265.053 180.305,271.219 172.5,275C 164.049,278.392 155.716,282.059 147.5,286C 141.48,288.426 135.98,287.593 131,283.5C 120.249,266.33 109.249,249.33 98,232.5C 84.4755,239.334 72.4755,237.334 62,226.5C 55.8526,214.536 50.5192,202.203 46,189.5C 44.8052,179.083 47.9719,170.25 55.5,163C 67.2273,156.804 79.2273,151.137 91.5,146C 118.667,117.5 145.833,89 173,60.5C 177.099,55.8918 181.599,51.8918 186.5,48.5 Z M 190.5,61.5 C 192.888,62.2187 194.388,63.8854 195,66.5C 214.892,111.285 235.059,155.952 255.5,200.5C 255.291,201.086 254.957,201.586 254.5,202C 216.137,203.944 177.97,205.444 140,206.5C 135.983,208.214 131.816,209.047 127.5,209C 119.361,190.25 111.027,171.583 102.5,153C 131.673,122.328 161.006,91.8277 190.5,61.5 Z M 89.5,160.5 C 92.0495,160.561 93.5495,161.894 94,164.5C 100.931,180.459 107.764,196.459 114.5,212.5C 105.327,215.414 96.3272,218.914 87.5,223C 79.3327,224.833 73.4994,221.999 70,214.5C 66.6082,206.049 62.9415,197.716 59,189.5C 57.389,182.229 59.5557,176.395 65.5,172C 73.646,168.242 81.646,164.409 89.5,160.5 Z M 140.5,219.5 C 142.144,219.286 143.644,219.62 145,220.5C 153.219,233.771 161.052,247.271 168.5,261C 160.173,266.497 151.173,270.997 141.5,274.5C 131.016,259.545 121.016,244.211 111.5,228.5C 111.709,227.914 112.043,227.414 112.5,227C 122.037,224.784 131.371,222.284 140.5,219.5 Z"/></g>
<g><path style="opacity:0.921" fill="#272d5b" d="M 286.5,92.5 C 297.632,92.7823 300.299,97.6156 294.5,107C 286.5,110.667 278.5,114.333 270.5,118C 261.783,118.949 258.283,115.116 260,106.5C 260.833,105.667 261.667,104.833 262.5,104C 270.713,100.392 278.713,96.5585 286.5,92.5 Z"/></g>
<g><path style="opacity:0.926" fill="#272d5b" d="M 278.5,131.5 C 291.033,133.883 303.366,137.05 315.5,141C 318.647,144.309 319.313,148.142 317.5,152.5C 315.86,154.64 313.693,155.64 311,155.5C 299.49,152.747 287.99,149.914 276.5,147C 270.731,140.8 271.398,135.633 278.5,131.5 Z"/></g>
</svg>
