<svg xmlns="http://www.w3.org/2000/svg" id="Layer_1" data-name="Layer 1" viewBox="11.21 11.11 65.33 57.87"><defs><style>.cls-1{fill:#243060}</style></defs><path d="M48.98 13.63c-.43-.96-1.3-1.63-2.34-1.82-1.04-.18-2.09.17-2.82.93L22.15 35.26l-6.99 3.16c-3.37 1.52-4.88 5.51-3.35 8.88l2.68 5.93c.72 1.59 2 2.75 3.61 3.25 1.55.48 3.33.33 5.03-.44l.74-.33 7.5 11.81c.59.94 1.62 1.46 2.68 1.46.43 0 .87-.09 1.29-.28l6.47-2.92c.82-.37 1.44-1.07 1.71-1.93.27-.86.16-1.79-.3-2.56l-5.2-8.75 23.32-1.02c.41-.02.8-.11 1.16-.28.58-.26 1.06-.68 1.4-1.23.55-.89.62-2 .18-2.95L48.99 13.63Zm-27 39.88c-1.07.48-2.16.6-3.06.32-.85-.27-1.51-.87-1.91-1.75l-2.68-5.93c-.89-1.98-.01-4.32 1.97-5.21l5.95-2.69L27.9 51.4l-3.02.78-2.91 1.33Zm18.85 9.19c.06.09.07.21.04.31-.03.11-.11.2-.21.24l-6.47 2.92c-.18.08-.38.02-.49-.15l-7.24-11.39 5.4-1.4-.02.03 2.93-.76 6.05 10.19Zm20.7-14.14c-.04.07-.1.12-.18.15a.32.32 0 0 1-.14.03l-27.56 1.2v-.03l-.17.04h-.21l.02.05-2.67.69-6.01-13.99 21.22-22.05c.09-.09.22-.14.34-.11.13.02.24.11.29.22l15.09 33.43c.05.12.04.26-.02.36ZM60.29 21.21c.5.25 1.06.25 1.54.04.36-.16.66-.44.85-.81l3.44-6.75c.44-.87.1-1.94-.78-2.39a1.79 1.79 0 0 0-2.39.78l-3.44 6.75c-.44.87-.1 1.94.77 2.39ZM75.21 33.81l-7.34-1.88a1.78 1.78 0 0 0-2.16 1.28c-.24.95.33 1.92 1.28 2.16l7.34 1.88c.41.1.82.06 1.17-.1a1.776 1.776 0 0 0-.29-3.34ZM71.27 23.48c-.4-.89-1.46-1.29-2.35-.89l-5.39 2.43c-.89.4-1.29 1.45-.89 2.35.4.89 1.45 1.29 2.35.89l5.39-2.43c.89-.4 1.29-1.45.89-2.35Z" class="cls-1"></path></svg>