<svg width="14" height="18" viewBox="0 0 14 18" fill="none" xmlns="http://www.w3.org/2000/svg">
<path d="M12.2117 17.996C12.6537 17.996 12.7837 17.892 12.8877 17.476L13.3037 15.708C13.4077 15.292 13.2257 15.162 12.8097 15.162H5.16566L6.54366 13.992C7.29766 13.342 7.81766 12.692 7.99966 11.834C8.05166 11.6 8.07766 11.366 8.07766 11.106H11.1717C11.4837 11.106 11.5617 11.002 11.5617 10.664V9.46803C11.5617 9.15603 11.4317 9.10403 11.1457 9.10403H7.79166C7.40166 7.62203 6.69966 6.11403 6.69966 4.68403C6.69966 3.30603 7.34966 2.29203 8.77966 2.29203C9.89766 2.29203 10.2877 2.94203 10.3917 3.41003L10.6777 4.86603C10.7297 5.10003 10.8857 5.20403 11.0677 5.20403H11.9257C12.1597 5.20403 12.2897 5.07403 12.2897 4.84003V0.836028C12.2897 0.628028 12.1337 0.420028 11.9517 0.368028C11.0417 0.134028 10.0277 0.00402832 9.01366 0.00402832C6.12766 0.00402832 2.64366 1.48603 2.64366 4.86603C2.64366 6.29603 3.21566 7.75203 3.65766 9.10403H1.26566C1.03166 9.10403 0.927664 9.20803 0.927664 9.44203V10.742C0.927664 10.976 1.00566 11.106 1.29166 11.106H4.15166C4.17766 11.288 4.17766 11.496 4.17766 11.678C4.17766 12.77 3.65766 13.706 2.79966 14.564C2.20166 15.162 1.52566 15.63 0.927664 15.916C0.693664 16.02 0.667664 16.15 0.667664 16.436V17.606C0.667664 17.918 0.745664 17.996 1.08366 17.996H12.2117Z" fill="#243060"/>
</svg>
