<svg xmlns="http://www.w3.org/2000/svg" data-name="Layer 1" viewBox="15.83 11.22 53.81 54.1">   <path d="m37.12 14.27 13.39 13.39L32.3 45.87 18.91 32.48l2.78-2.78 11.95 8.12c.07.05.15.07.24.07.11 0 .22-.04.3-.12.14-.14.16-.37.05-.53l-8.06-12.01 6.03-6.03 4.58 2.21c.06.03.12.04.18.04a.4.4 0 0 0 .29-.12.43.43 0 0 0 .09-.47l-2.11-4.69 1.89-1.89m15.19 15.46 2.94 2.94-4.04 4.04a5.47 5.47 0 0 0-1.57 4.46c.18 1.65 1.1 3.12 2.5 4.01 5.33 3.4 11.92 7.68 13.02 8.78a4.834 4.834 0 0 1 0 6.84 4.832 4.832 0 0 1-6.84 0c-1.1-1.1-5.38-7.68-8.78-13.02a5.436 5.436 0 0 0-4.61-2.52c-1.44 0-2.83.57-3.86 1.6l-4.04 4.04-2.94-2.94L52.3 29.76M37.11 11.23c-.79 0-1.57.3-2.17.9l-1.89 1.89c-.58.58-.89 1.35-.9 2.14-.78 0-1.56.32-2.14.9l-6.03 6.03a3.062 3.062 0 0 0-.38 3.88l.45.67-.65-.44c-.52-.36-1.13-.53-1.72-.53-.79 0-1.58.31-2.17.9l-2.78 2.78a3.066 3.066 0 0 0 0 4.34l13.39 13.39c.29.29.63.51 1 .67.13.52.4 1 .8 1.41l2.94 2.94a3.066 3.066 0 0 0 4.34 0l4.04-4.04c.44-.44 1.06-.7 1.69-.7.09 0 .18 0 .26.01.73.08 1.37.48 1.76 1.09 7.63 11.97 8.73 13.07 9.2 13.54 1.49 1.49 3.48 2.32 5.59 2.32s4.1-.82 5.59-2.32c3.08-3.08 3.08-8.1 0-11.18-.47-.47-1.56-1.56-13.54-9.2a2.33 2.33 0 0 1-1.09-1.76c-.08-.72.17-1.44.69-1.95l4.04-4.04c1.2-1.2 1.2-3.14 0-4.34l-2.94-2.94c-.29-.29-.63-.52-1-.67-.14-.53-.41-1.01-.8-1.41L39.3 12.12c-.6-.6-1.38-.9-2.17-.9Z" style="fill:#282d5b"></path> </svg>