<?xml version="1.0" encoding="UTF-8"?>
<svg width="47px" height="47px" viewBox="0 0 47 47" version="1.1" xmlns="http://www.w3.org/2000/svg" xmlns:xlink="http://www.w3.org/1999/xlink">
    <title>Path</title>
    <g id="Individual-steps" stroke="none" stroke-width="1" fill="none" fill-rule="evenodd">
        <g id="Step-3----Reason-to-Release" transform="translate(-84.000000, -341.000000)" fill="#243060" fill-rule="nonzero">
            <g id="Step-1" transform="translate(16.000000, 16.000000)">
                <g id="Homeowner" transform="translate(16.000000, 32.000000)">
                    <g id="Home-Improvements" transform="translate(0.000000, 269.000000)">
                        <path d="M98.9828996,33.013479 C98.9828996,30.786024 97.154933,28.9592219 94.9095612,28.9762809 L93.9522148,28.9762809 L93.9522148,27.0452605 C93.9522148,25.3575404 92.57709,24 90.9057903,24 L55.0635832,24 C53.375218,24 52,25.3745994 52,27.0452605 L52,33.7445913 C52,35.4323115 53.3751247,36.7898519 55.0464244,36.7898519 L90.8886316,36.7898519 C92.5769968,36.7898519 93.935056,35.4152525 93.935056,33.7445913 L93.9346918,31.7608094 L94.8920382,31.7608094 C95.5881613,31.7608094 96.1626251,32.3175752 96.1626251,33.0309108 L96.1801102,40.0434557 C96.1801102,40.6351785 95.7622853,41.1569501 95.170355,41.2964049 L74.7859448,45.7337899 C72.923381,46.1339767 71.565415,47.8046379 71.5828535,49.7010742 L71.6003386,52.6068799 L70.5905834,52.6068799 C69.8073983,52.6068799 69.1804884,53.2331961 69.1804884,54.0164362 L69.1804884,69.5904437 C69.1804884,70.3733296 69.807044,71 70.5905834,71 L75.325373,71 C76.1085581,71 76.735468,70.3736838 76.735468,69.5904437 L76.735468,54.0164362 C76.735468,53.2335503 76.1089125,52.6068799 75.325373,52.6068799 L74.3855584,52.6068799 L74.3680732,49.6836423 C74.3680732,49.0919195 74.7858982,48.5701479 75.3778284,48.4306931 L95.7967427,44.011206 C97.6593065,43.6110192 99.0172725,41.940358 99,40.0439218 L98.9828996,33.013479 Z" id="Path"></path>
                    </g>
                </g>
            </g>
        </g>
    </g>
</svg>