<?xml version="1.0" standalone="no"?>
<!DOCTYPE svg PUBLIC "-//W3C//DTD SVG 20010904//EN"
 "http://www.w3.org/TR/2001/REC-SVG-20010904/DTD/svg10.dtd">
<svg version="1.0" xmlns="http://www.w3.org/2000/svg"
 width="369.000000pt" height="327.000000pt" viewBox="0 0 369.000000 327.000000"
 preserveAspectRatio="xMidYMid meet">

<g transform="translate(0.000000,327.000000) scale(0.100000,-0.100000)"
fill="#000000" stroke="none">
<path d="M1475 2782 c-45 -28 -125 -121 -132 -153 -4 -21 -13 -29 -37 -35 -22
-4 -73 -48 -183 -158 -168 -167 -180 -190 -151 -265 l15 -38 -26 13 c-68 36
-128 9 -233 -105 -63 -67 -74 -93 -64 -149 5 -32 45 -77 321 -352 173 -173
328 -333 343 -355 45 -64 151 -154 188 -161 57 -11 94 11 199 116 104 104 143
128 187 111 33 -12 43 -26 227 -306 183 -278 221 -324 299 -362 49 -24 69 -28
142 -28 71 0 94 4 141 26 68 32 120 83 156 152 25 46 28 63 28 147 0 169 -37
213 -371 432 -121 80 -236 155 -257 167 -49 30 -67 57 -67 105 0 36 8 47 104
145 113 116 126 134 126 181 0 59 43 10 -501 563 -162 164 -306 305 -321 313
-37 19 -97 18 -133 -4z m248 -1044 l-378 -378 -277 277 -278 278 57 57 c31 31
61 54 67 51 6 -4 117 -78 246 -166 129 -88 240 -161 246 -164 40 -15 5 50
-146 273 l-169 249 126 127 126 126 90 -44 c139 -67 144 -63 81 72 l-45 97 38
39 37 38 278 -277 278 -278 -377 -377z m520 224 l57 -57 -96 -95 c-53 -52
-105 -113 -115 -135 -35 -75 -20 -186 34 -244 12 -13 135 -98 272 -188 138
-91 269 -181 293 -200 55 -45 82 -98 82 -163 0 -148 -153 -244 -286 -179 -52
25 -87 70 -297 390 -179 272 -189 282 -303 287 -94 5 -115 -6 -239 -129 l-100
-99 -60 60 -60 60 375 375 c206 206 377 375 380 375 3 0 31 -26 63 -58z"/>
</g>
</svg>
