<?xml version="1.0" encoding="UTF-8"?>
<!DOCTYPE svg PUBLIC "-//W3C//DTD SVG 1.1//EN" "http://www.w3.org/Graphics/SVG/1.1/DTD/svg11.dtd">
<svg xmlns="http://www.w3.org/2000/svg" version="1.1" width="369px" height="327px" style="shape-rendering:geometricPrecision; text-rendering:geometricPrecision; image-rendering:optimizeQuality; fill-rule:evenodd; clip-rule:evenodd" xmlns:xlink="http://www.w3.org/1999/xlink">
<g><path style="opacity:0.932" fill="#272d5b" d="M 150.5,45.5 C 154.747,45.1778 158.747,46.0111 162.5,48C 188.784,73.9489 214.617,100.116 240,126.5C 242.401,131.232 243.068,136.232 242,141.5C 235.365,149.136 228.365,156.47 221,163.5C 218.382,168.946 219.549,173.446 224.5,177C 242.175,187.836 259.508,199.169 276.5,211C 291.667,224.835 294.167,240.669 284,258.5C 273.352,271.05 260.186,274.883 244.5,270C 236.108,266.275 229.608,260.441 225,252.5C 215,237.167 205,221.833 195,206.5C 191.49,201.553 186.99,200.387 181.5,203C 174.432,210.738 166.766,217.738 158.5,224C 154.375,224.854 150.375,224.52 146.5,223C 120.389,195.888 93.8888,169.055 67,142.5C 63.6667,137.5 63.6667,132.5 67,127.5C 72.1667,122.333 77.3333,117.167 82.5,112C 86.9723,109.158 91.4723,108.991 96,111.5C 95.0033,106.787 95.3366,102.12 97,97.5C 109.998,84.5023 122.664,71.8356 135,59.5C 139.788,54.2017 144.955,49.5351 150.5,45.5 Z M 153.5,60.5 C 172.082,77.5795 190.248,95.2461 208,113.5C 208.667,114.167 208.667,114.833 208,115.5C 183.333,140.167 158.667,164.833 134,189.5C 115.833,171.333 97.6667,153.167 79.5,135C 83.0152,131.318 86.6819,127.818 90.5,124.5C 105.971,134.805 121.304,145.305 136.5,156C 138.345,157.128 140.345,157.628 142.5,157.5C 142.628,155.345 142.128,153.345 141,151.5C 130.624,135.914 120.124,120.414 109.5,105C 117.681,96.6522 126.014,88.4855 134.5,80.5C 140.167,83.3333 145.833,86.1667 151.5,89C 155.088,89.6114 156.254,88.1114 155,84.5C 152.637,78.9405 150.137,73.4405 147.5,68C 149.32,65.3478 151.32,62.8478 153.5,60.5 Z M 216.5,124.5 C 221.085,127.414 225.085,131.08 228.5,135.5C 222.515,141.986 216.348,148.319 210,154.5C 202.81,167.147 204.643,178.313 215.5,188C 235.623,199.808 254.789,212.975 273,227.5C 279.62,243.926 274.286,254.259 257,258.5C 252.478,257.989 248.311,256.489 244.5,254C 230.134,234.773 216.634,214.94 204,194.5C 195.463,187.194 185.963,185.694 175.5,190C 168.03,196.468 160.864,203.302 154,210.5C 150.167,206.667 146.333,202.833 142.5,199C 167.368,174.299 192.035,149.465 216.5,124.5 Z"/></g>
</svg>
