<?xml version="1.0" standalone="no"?>
<!DOCTYPE svg PUBLIC "-//W3C//DTD SVG 20010904//EN"
 "http://www.w3.org/TR/2001/REC-SVG-20010904/DTD/svg10.dtd">
<svg version="1.0" xmlns="http://www.w3.org/2000/svg"
 width="369.000000pt" height="327.000000pt" viewBox="0 0 369.000000 327.000000"
 preserveAspectRatio="xMidYMid meet">

<g transform="translate(0.000000,327.000000) scale(0.100000,-0.100000)"
fill="#000000" stroke="none">
<path d="M1008 2894 c-125 -30 -264 -122 -344 -226 -196 -260 -173 -610 55
-839 229 -228 579 -251 839 -55 106 81 196 219 227 348 19 82 19 238 0 313
-55 217 -243 405 -460 460 -73 19 -239 18 -317 -1z m282 -105 c137 -31 287
-152 348 -279 40 -85 51 -137 52 -236 1 -320 -291 -568 -608 -514 -216 36
-396 216 -432 432 -54 315 192 607 510 607 47 1 105 -4 130 -10z"/>
<path d="M1070 2611 c-76 -24 -141 -71 -185 -135 -123 -183 -57 -421 144 -514
47 -22 70 -27 141 -26 72 0 94 4 142 27 71 35 130 91 164 159 40 76 45 199 13
283 -30 81 -112 164 -192 193 -59 23 -174 29 -227 13z m222 -137 c96 -67 133
-177 93 -281 -48 -125 -201 -186 -319 -127 -174 89 -176 331 -3 419 44 22 62
26 119 23 55 -3 75 -9 110 -34z"/>
<path d="M2560 2683 c-24 -16 -834 -808 -1337 -1307 l-232 -230 -89 87 c-97
95 -121 104 -183 71 -55 -28 -59 -53 -59 -380 0 -331 3 -349 65 -378 28 -13
80 -16 332 -16 264 0 302 2 333 18 40 20 60 53 60 101 0 29 -12 46 -85 120
-47 48 -85 92 -84 97 1 5 350 351 776 769 495 485 781 772 790 793 22 53 4 88
-96 185 -81 79 -92 87 -127 87 -22 0 -51 -8 -64 -17z m123 -161 l58 -58 -773
-759 c-425 -417 -781 -773 -792 -792 -31 -57 -17 -92 76 -189 l81 -84 -279 2
-279 3 -3 279 -2 279 85 -81 c83 -81 85 -82 136 -82 l51 0 466 458 c256 251
608 597 781 769 174 172 321 312 326 313 6 0 37 -26 68 -58z"/>
<path d="M2350 1664 c-219 -37 -372 -133 -474 -297 -71 -115 -91 -189 -91
-337 0 -153 19 -220 98 -347 78 -126 237 -239 387 -274 71 -17 219 -17 290 0
206 49 390 216 461 421 19 54 23 86 23 195 1 157 -20 236 -94 349 -85 130
-238 241 -380 274 -53 13 -184 22 -220 16z m226 -135 c254 -79 416 -366 349
-622 -91 -350 -493 -512 -790 -319 -324 211 -325 673 -2 883 132 86 287 106
443 58z"/>
<path d="M2340 1367 c-105 -24 -191 -93 -242 -196 -33 -67 -33 -215 1 -283 72
-147 223 -225 376 -197 160 29 272 154 283 315 15 232 -192 411 -418 361z
m170 -124 c77 -31 140 -127 140 -213 0 -54 -36 -134 -76 -172 -86 -80 -232
-80 -318 0 -40 38 -76 118 -76 172 0 89 73 194 152 218 73 23 112 22 178 -5z"/>
</g>
</svg>
