<svg width="62" height="62" viewBox="0 0 62 62" fill="none" xmlns="http://www.w3.org/2000/svg">
<path fill-rule="evenodd" clip-rule="evenodd" d="M59 31C59 46.464 46.464 59 31 59C15.536 59 3 46.464 3 31C3 15.536 15.536 3 31 3C46.464 3 59 15.536 59 31ZM62 31C62 48.1208 48.1208 62 31 62C13.8792 62 0 48.1208 0 31C0 13.8792 13.8792 0 31 0C48.1208 0 62 13.8792 62 31ZM45.4783 23.0349C45.4824 23.4526 45.3348 23.8571 45.0636 24.173C44.7937 24.4875 44.4199 24.6928 44.0117 24.752C42.3605 24.9709 40.7392 25.3759 39.1788 25.9593L39.1754 25.9606C38.8695 26.0758 38.5372 26.1007 38.2177 26.0324C37.8994 25.9644 37.6067 25.8066 37.3743 25.5772L35.3384 23.5373C34.8606 23.0586 34.1217 22.9588 33.5341 23.2936C29.2792 25.7178 25.7565 29.2476 23.3375 33.5103C23.0047 34.0966 23.1041 34.833 23.5804 35.3102L25.6138 37.3476L25.6163 37.3502C25.8452 37.5831 26.0033 37.8771 26.0716 38.1977C26.1401 38.5195 26.115 38.8541 25.9996 39.162L25.9983 39.1654C25.4162 40.7285 25.0121 42.3525 24.7938 44.0064C24.7339 44.4223 24.5243 44.8013 24.2052 45.0721C23.8848 45.3441 23.4763 45.4883 23.0575 45.4779C23.0451 45.4776 23.0327 45.4774 23.0202 45.4774H18.203L18.1969 45.4774C17.959 45.4784 17.7234 45.4296 17.5053 45.334C17.2871 45.2384 17.091 45.0981 16.9297 44.922C16.7684 44.7458 16.6455 44.5376 16.5689 44.3107C16.4935 44.0875 16.4648 43.8511 16.4844 43.6162C16.9978 38.9035 18.6062 34.377 21.1804 30.3997L21.1804 30.3997L21.1879 30.388C23.5354 26.6863 26.6674 23.5481 30.3613 21.1962L30.3614 21.1963L30.3724 21.1891C34.3599 18.6008 38.8992 16.9892 43.623 16.4845C43.8559 16.4648 44.0905 16.4931 44.3122 16.568C44.537 16.6439 44.7439 16.7659 44.9195 16.9265C45.0951 17.0871 45.2356 17.2828 45.3319 17.5012C45.4281 17.7194 45.4779 17.9553 45.4782 18.194V23.0201L45.4783 23.0349ZM47.34 26.1269C48.0834 25.2609 48.4875 24.1546 48.4782 23.0135V18.1933V18.1919C48.4776 17.5373 48.341 16.89 48.077 16.291C47.8129 15.6921 47.4272 15.1546 46.9443 14.7128C46.4613 14.2711 45.8916 13.9348 45.2714 13.7255C44.6512 13.5162 43.9943 13.4385 43.3424 13.4976L43.319 13.4999C38.123 14.0527 33.1301 15.8237 28.7445 18.6692C24.6832 21.2562 21.2397 24.7066 18.6581 28.7755C15.8286 33.1493 14.0621 38.1267 13.5002 43.3082L13.4975 43.3351C13.4385 43.989 13.5165 44.6481 13.7264 45.2701C13.9364 45.8922 14.2738 46.4637 14.7171 46.9479C15.1605 47.4321 15.7001 47.8184 16.3014 48.0819C16.9018 48.3449 17.5505 48.4796 18.206 48.4774H23.0033C24.1523 48.501 25.2703 48.1032 26.1468 47.3591C27.0284 46.6107 27.6041 45.5642 27.7653 44.4191L27.7654 44.4191L27.7671 44.4058C27.9556 42.9736 28.3051 41.5675 28.809 40.2141C29.1251 39.3706 29.1934 38.4542 29.0058 37.5731C28.8182 36.6915 28.3822 35.8819 27.749 35.2403L27.7431 35.2344L26.5292 34.0181C28.446 30.9804 31.013 28.4079 34.0436 26.4869L35.2542 27.6999L35.2602 27.7058C35.9005 28.3402 36.7093 28.7778 37.5908 28.9662C38.4717 29.1544 39.388 29.0858 40.2311 28.7687C41.5813 28.264 42.9842 27.9139 44.4128 27.7251L44.4129 27.7252L44.4267 27.7232C45.5595 27.5628 46.5949 26.9951 47.34 26.1269Z" fill="#9298B0"/>
</svg>
