<svg xmlns="http://www.w3.org/2000/svg" fill="#243060" version="1.0" viewBox="44.11 29.24 264.81 259.76"><path d="M169.8 30.9c-7.5 2.4-11.6 5.1-17.1 11-5.9 6.3-9.4 13.4-10.9 22-1.2 6.8-1 8.9 1.7 21.1.6 2.3.1 2.7-6.7 5.2-24.5 9.1-48.7 32.4-57.4 55.2-1.6 3.9-2.9 7.2-3 7.4-.1.2-3-.6-6.4-1.8-8.8-2.9-14.8-1.3-17 4.6-.5 1.2-2.6 3-4.7 4.1-6.4 3.3-5.1 9.3 1.4 6.4 2.2-1 2.8-1 3.6.5 2.3 4.1 4.9 5.6 8.4 5.1 5-.9 7.3-3.3 7.3-7.7 0-3.6-1.7-6.1-5-7.3-1.1-.4-.9-.6.5-.6 1.1 0 3.9.8 6.2 1.9 4.1 1.8 4.2 2 3.5 5.2-.4 1.8-.7 9.4-.6 16.8.1 11.6.5 14.7 2.8 22.3 6.1 20.3 18.6 37.8 35.8 50.1l6.8 4.8v9.6c0 11.9 1.2 16.3 5.1 19.6 2.9 2.5 3.6 2.6 16 2.6 10.4 0 13.5-.3 15.5-1.6 3.3-2.2 5.4-6.4 5.4-10.8v-3.5l6.8.7c8.7.9 18.7.9 28.8-.1l8.1-.7.6 4c1.2 9.4 5.8 12 20.9 12 17.9 0 20.8-3.1 20.8-22v-11.5l7.6-6c4.2-3.2 9.5-8.1 11.7-10.7l4-4.8h12.6c15.6 0 20.2-1.7 23.9-9 2.2-4.4 2.3-5.1 2-31.7-.3-25.6-.4-27.3-2.4-29.9-3.5-4.8-7.2-6.9-13.1-7.4l-5.5-.5-2.3-6c-2.3-6.1-7-15.8-10.1-20.6-1.7-2.7-1.7-2.7 4.9-11.8l6.6-9-3.4-2.7c-7.3-5.5-17.6-6.9-27.2-3.5l-5.3 1.8-4.2-2.9c-5.3-3.6-15.7-8.9-22-11.3l-4.6-1.7 1.4-4.2c.9-2.2 1.8-7 2.1-10.6 1.4-16.5-7.9-32.5-23.2-40.1-5.6-2.7-7.8-3.2-15.8-3.6-7.1-.2-10.5.1-14.9 1.6zm25.9 12.7c10.3 5 16.5 15.3 16.4 27.3 0 16.7-15.3 30.4-32 28.8-11.1-1-22.1-9.4-25.5-19.4-8.7-25.4 17.1-48.4 41.1-36.7zm-39.6 59.5c-.3.4-2.4 1.2-4.6 1.9-7.8 2.4-16.3 6.8-17.5 8.9-1.5 2.9.7 7.5 3.8 7.9 1.2.2 6-1.2 10.5-3.2 20.4-8.7 45.2-8.9 65.2-.5 7.9 3.3 10.7 3.6 13 1.3 4.3-4.3-.4-9.5-12.1-13.4-3.5-1.2-6.4-2.5-6.3-2.8 0-.4 1.3-1.7 3-3 2.6-2.1 3.2-2.2 6.7-1.2 6.1 2 20.5 9.7 26.7 14.4l5.8 4.3 5.6-2.8c5.9-3 13.1-4.7 13.1-3.2 0 .5-2.2 3.9-4.9 7.7l-5 6.9 4.4 6.1c5.8 8.2 10.9 19 13 27.6l1.7 7h7.7c12.2 0 11.5-1.4 11.9 26.5.3 20.2.1 24-1.3 26.1-1.5 2.4-1.8 2.4-16.1 2.4h-14.5l-9.7 9.9c-5.3 5.4-12.3 11.6-15.6 13.7l-5.8 4 .1 13.7.2 13.7H217v-9.5c0-5.2-.2-9.5-.4-9.5-.3 0-4.2.9-8.8 2.1-15.9 3.9-34.6 3.7-55-.7l-2.7-.6-.3 9.3-.3 9.4h-18l-.3-13.5-.3-13.5-4.7-2.7c-12.1-6.9-26.1-21.3-32.5-33.7-23.3-44.4-.7-95.3 50.8-114.6l6-2.3 3.1 2.7c1.7 1.4 2.8 2.9 2.5 3.2zm-93.9 61.1c-.9.9-1.5.9-2.4 0-.9-.9-.7-1.2 1.2-1.2s2.1.3 1.2 1.2z"/><path d="M240.5 154.5c-1.9 1.8-2.5 3.5-2.5 6.5 0 8.1 8.5 11.9 14.7 6.6 3.9-3.4 3.9-9.8 0-13.2-3.8-3.2-9-3.2-12.2.1z"/></svg>