<?xml version="1.0" standalone="no"?>
<!DOCTYPE svg PUBLIC "-//W3C//DTD SVG 20010904//EN"
 "http://www.w3.org/TR/2001/REC-SVG-20010904/DTD/svg10.dtd">
<svg version="1.0" xmlns="http://www.w3.org/2000/svg"
 width="369.000000pt" height="327.000000pt" viewBox="0 0 369.000000 327.000000"
 preserveAspectRatio="xMidYMid meet">

<g transform="translate(0.000000,327.000000) scale(0.100000,-0.100000)"
fill="#000000" stroke="none">
<path d="M1719 2890 c-297 -28 -565 -161 -776 -385 -455 -482 -441 -1243 32
-1710 338 -334 841 -442 1294 -276 339 124 613 409 733 761 82 242 79 560 -8
802 -106 293 -332 548 -609 686 -194 96 -445 142 -666 122z m249 -120 c265
-34 534 -176 704 -373 395 -459 360 -1123 -81 -1540 -132 -124 -298 -216 -478
-264 -87 -23 -117 -27 -268 -27 -188 -1 -272 14 -423 75 -273 109 -503 339
-612 612 -64 160 -73 215 -74 412 0 164 2 189 26 278 50 184 142 348 272 485
243 257 591 385 934 342z"/>
<path d="M1552 2130 c-12 -5 -27 -21 -32 -35 -6 -16 -10 -199 -10 -459 0 -423
0 -434 21 -460 14 -17 30 -26 49 -26 20 0 147 72 412 233 413 252 420 257 387
315 -11 20 -113 81 -394 234 -209 114 -387 207 -395 207 -8 0 -25 -4 -38 -9z
m411 -354 c108 -59 197 -111 197 -114 -1 -7 -468 -293 -490 -300 -6 -2 -10
101 -10 288 l0 292 53 -29 c28 -17 141 -78 250 -137z"/>
</g>
</svg>
