<?xml version="1.0" encoding="UTF-8"?>
<!DOCTYPE svg PUBLIC "-//W3C//DTD SVG 1.1//EN" "http://www.w3.org/Graphics/SVG/1.1/DTD/svg11.dtd">
<svg xmlns="http://www.w3.org/2000/svg" version="1.1" width="369px" height="327px" style="shape-rendering:geometricPrecision; text-rendering:geometricPrecision; image-rendering:optimizeQuality; fill-rule:evenodd; clip-rule:evenodd" xmlns:xlink="http://www.w3.org/1999/xlink">
<g><path style="opacity:0.939" fill="#272d5b" d="M 267.5,61.5 C 272.844,61.334 278.177,61.5006 283.5,62C 285.333,62.5 286.5,63.6667 287,65.5C 286.815,111.07 270.149,149.404 237,180.5C 235.257,209.141 224.424,233.641 204.5,254C 198.612,255.995 194.779,254.161 193,248.5C 192.1,240.027 190.6,231.694 188.5,223.5C 185.897,224.562 183.23,224.728 180.5,224C 162,205.5 143.5,187 125,168.5C 124.223,165.571 124.39,162.737 125.5,160C 116.142,158.425 106.809,156.759 97.5,155C 94.3971,153.037 93.2304,150.204 94,146.5C 107.327,131.409 123.827,121.242 143.5,116C 151.758,114.201 160.091,112.868 168.5,112C 195.533,83.4837 228.533,66.6503 267.5,61.5 Z M 269.5,75.5 C 270.833,75.5 272.167,75.5 273.5,75.5C 269.957,111.749 255.29,142.582 229.5,168C 214.352,180.98 199.352,194.147 184.5,207.5C 170.181,193.681 156.014,179.681 142,165.5C 141.333,164.833 141.333,164.167 142,163.5C 155.038,149.464 167.705,135.13 180,120.5C 204.679,95.2436 234.513,80.2436 269.5,75.5 Z M 225.5,111.5 C 234.669,112.146 238.169,116.813 236,125.5C 229.878,132.273 224.211,131.939 219,124.5C 218.011,118.477 220.178,114.144 225.5,111.5 Z M 150.5,128.5 C 151.552,128.351 152.552,128.517 153.5,129C 148.5,134.667 143.5,140.333 138.5,146C 131.469,145.997 124.469,145.33 117.5,144C 127.816,137.173 138.816,132.006 150.5,128.5 Z M 219.5,195.5 C 219.322,201.549 217.822,207.549 215,213.5C 212.174,219.822 208.841,225.822 205,231.5C 203.483,224.554 202.816,217.554 203,210.5C 208.695,205.634 214.195,200.634 219.5,195.5 Z"/></g>
<g><path style="opacity:0.934" fill="#272d5b" d="M 222.5,97.5 C 244.456,97.2838 253.622,107.95 250,129.5C 243.52,143.092 233.02,147.592 218.5,143C 204.919,135.259 201.086,124.092 207,109.5C 210.695,103.424 215.862,99.4238 222.5,97.5 Z M 225.5,111.5 C 220.178,114.144 218.011,118.477 219,124.5C 224.211,131.939 229.878,132.273 236,125.5C 238.169,116.813 234.669,112.146 225.5,111.5 Z"/></g>
<g><path style="opacity:0.934" fill="#272d5b" d="M 121.5,193.5 C 146.919,193.75 157.753,206.416 154,231.5C 152.008,237.822 148.175,242.655 142.5,246C 125.037,255.153 106.703,261.487 87.5,265C 83.8759,262.839 82.7093,259.672 84,255.5C 88.8543,237.264 95.8543,219.931 105,203.5C 109.726,198.728 115.226,195.394 121.5,193.5 Z M 102.5,246.5 C 105.508,234.484 110.175,223.151 116.5,212.5C 127.441,204.755 135.607,207.089 141,219.5C 140.805,229.055 135.971,235.222 126.5,238C 118.654,241.337 110.654,244.17 102.5,246.5 Z"/></g>
</svg>
