<svg xmlns="http://www.w3.org/2000/svg" id="Layer_1" data-name="Layer 1" viewBox="20.27 15 48.73 48.71">   <defs>     <style>       .cls-1{fill:#282d5b}     </style>   </defs>   <path d="M67.44 15h-.45c-9.3 0-19.74 4.86-26.4 12.23-6.46.19-12.76 2.88-17.36 7.49-.42.42-.58 1.05-.39 1.61.18.56.68.98 1.27 1.07l6.56.94-.22.25c-.55.62-.52 1.57.06 2.16l12.74 12.74c.3.3.69.46 1.11.46.39 0 .76-.14 1.05-.4l.25-.22.94 6.56c.08.56.5 1.04 1.1 1.24.15.05.3.07.46.07.43 0 .87-.18 1.18-.49 4.57-4.57 7.24-10.85 7.43-17.31 7.55-6.83 12.44-17.49 12.22-26.85a1.58 1.58 0 0 0-1.54-1.54ZM27.96 34.77c2.82-2.1 6.1-3.49 9.54-4.09l-4.32 4.84-5.22-.75Zm21.25 21.24-.75-5.21 4.84-4.32c-.6 3.42-1.99 6.69-4.09 9.53Zm4.78-14.36-8.13 7.26c-.08.06-.16.13-.22.2l-1.22 1.09-10.63-10.63 1.05-1.18.01-.01 7.51-8.41c5.78-6.76 15.13-11.44 23.46-11.8-.35 8.44-4.94 17.6-11.82 23.48Z" class="cls-1"></path>   <path d="M54.8 34.72c1.48 0 2.87-.57 3.92-1.62a5.54 5.54 0 0 0 0-7.83c-1.05-1.04-2.44-1.62-3.92-1.62s-2.87.58-3.91 1.62a5.54 5.54 0 0 0 0 7.83 5.505 5.505 0 0 0 3.92 1.62Zm-1.69-7.22c.45-.45 1.05-.7 1.69-.7s1.24.25 1.69.7c.93.93.93 2.45 0 3.38-.93.93-2.45.93-3.38 0-.93-.93-.93-2.45 0-3.38ZM30.58 46.7c-1.79 0-3.48.7-4.74 1.96-2.17 2.17-4.96 11.23-5.5 13.03-.17.56-.02 1.16.4 1.56.3.3.69.46 1.11.46.15 0 .29-.02.45-.06 1.79-.54 10.84-3.32 13.03-5.5a6.73 6.73 0 0 0 0-9.49 6.63 6.63 0 0 0-4.74-1.96Zm2.51 9.22c-.79.79-4.27 2.28-8.83 3.8 1.52-4.56 3.01-8.05 3.8-8.83.67-.67 1.57-1.04 2.52-1.04s1.84.37 2.51 1.04a3.555 3.555 0 0 1 0 5.03Z" class="cls-1"></path> </svg>