<svg xmlns="http://www.w3.org/2000/svg" id="Layer_1" data-name="Layer 1" viewBox="14.75 10.94 65.02 62.3">   <defs>     <style>       .cls-1,.cls-2{stroke-width:3.17px;fill:none;stroke:#243060;stroke-miterlimit:10}.cls-2{stroke-width:2.9px}     </style>   </defs>   <path d="M41.2 50.79h-20c-2.76 0-5-2.24-5-5v-28.4c0-2.76 2.24-5 5-5h35.08c2.76 0 5 2.24 5 5V34.5" class="cls-2"></path>   <circle cx="56.82" cy="49.63" r="11.28" class="cls-1"></circle>   <circle cx="56.82" cy="49.63" r="15.89" class="cls-1"></circle>   <path d="m69.73 59.3 7.74 7.74c.95.95.95 2.49 0 3.44l-.46.46c-.95.95-2.49.95-3.44 0l-7.74-7.74" class="cls-1"></path>   <path d="M16.94 20.97h43.07" class="cls-2"></path>   <path d="M23.72 29.06h11.64m-11.64 6.02h11.64m-11.64 6.01h11.64m6.79-12.03H53.8m-11.65 6.02h8.08m-8.08 6.01h1.31" style="stroke-linecap:round;stroke-width:2.9px;fill:none;stroke:#282d5b;stroke-miterlimit:10"></path> </svg>