<?xml version="1.0" standalone="no"?>
<!DOCTYPE svg PUBLIC "-//W3C//DTD SVG 20010904//EN"
 "http://www.w3.org/TR/2001/REC-SVG-20010904/DTD/svg10.dtd">
<svg version="1.0" xmlns="http://www.w3.org/2000/svg"
 width="369.000000pt" height="327.000000pt" viewBox="0 0 369.000000 327.000000"
 preserveAspectRatio="xMidYMid meet">

<g transform="translate(0.000000,327.000000) scale(0.100000,-0.100000)"
fill="#000000" stroke="none">
<path d="M795 2797 c-79 -30 -137 -88 -164 -160 -7 -19 -11 -249 -11 -686 l0
-657 26 -52 c29 -58 69 -96 134 -126 43 -20 64 -21 455 -24 l411 -3 17 -68
c62 -238 238 -427 472 -507 64 -22 104 -28 198 -32 136 -5 210 6 315 50 l74
31 161 -161 c89 -88 175 -165 190 -171 36 -14 88 -14 124 0 34 12 90 64 109
101 17 32 18 111 3 141 -6 12 -81 93 -167 179 l-155 157 36 80 c21 44 44 109
52 143 22 92 19 258 -5 352 -53 206 -209 393 -405 482 l-54 25 -3 367 c-3 409
-2 403 -75 475 -76 77 -14 72 -908 74 -596 1 -808 -1 -830 -10z m1651 -151
c44 -43 44 -44 44 -115 l0 -71 -881 0 -882 0 5 65 c6 72 28 116 74 146 28 18
58 19 813 19 l784 0 43 -44z m44 -515 l0 -209 -77 5 c-89 6 -199 -9 -281 -37
-47 -17 -83 -20 -222 -20 -185 0 -210 -7 -210 -60 0 -48 22 -60 107 -60 l75 0
-51 -57 c-28 -31 -51 -61 -51 -65 0 -4 -8 -8 -18 -8 -10 0 -28 -7 -40 -16 -18
-13 -22 -24 -21 -62 1 -27 -8 -72 -21 -107 -12 -33 -27 -97 -33 -142 l-11 -83
-386 0 c-380 0 -386 0 -430 23 -26 13 -53 36 -65 57 -19 34 -20 54 -23 529 -1
272 0 501 2 508 4 11 166 13 881 13 l875 0 0 -209z m-5 -346 c201 -42 378
-196 445 -388 30 -85 38 -249 16 -334 -54 -211 -224 -384 -432 -438 -74 -19
-222 -19 -294 0 -157 42 -300 154 -373 293 -50 94 -66 150 -73 247 -24 331
252 630 586 634 30 0 87 -6 125 -14z m705 -1378 c0 -19 -34 -57 -52 -57 -6 0
-77 65 -157 145 l-146 144 35 36 35 36 142 -144 c79 -79 143 -151 143 -160z"/>
<path d="M952 2104 c-27 -19 -29 -64 -4 -87 16 -15 51 -17 284 -17 244 0 266
1 281 18 24 26 21 68 -5 86 -19 14 -63 16 -278 16 -215 0 -259 -2 -278 -16z"/>
<path d="M1722 2104 c-27 -19 -29 -64 -4 -87 16 -15 51 -17 284 -17 244 0 266
1 281 18 24 26 21 68 -5 86 -19 14 -63 16 -278 16 -215 0 -259 -2 -278 -16z"/>
<path d="M952 1854 c-27 -19 -29 -64 -4 -87 16 -15 51 -17 285 -17 292 0 297
1 297 60 0 57 -17 60 -300 60 -215 0 -259 -2 -278 -16z"/>
<path d="M950 1600 c-25 -25 -26 -62 -2 -83 16 -15 51 -17 285 -17 292 0 297
1 297 60 0 57 -17 60 -302 60 -245 0 -259 -1 -278 -20z"/>
<path d="M2276 1729 c-186 -31 -349 -169 -414 -352 -21 -59 -26 -90 -26 -172
0 -159 45 -268 158 -381 108 -107 220 -154 371 -154 150 0 276 51 380 155 103
103 155 229 155 375 0 151 -48 268 -155 376 -128 129 -293 183 -469 153z m166
-130 c124 -27 243 -122 295 -236 37 -81 43 -187 14 -280 -88 -288 -457 -379
-669 -163 -126 128 -153 302 -72 467 51 103 165 189 282 212 62 13 90 12 150
0z"/>
</g>
</svg>
