<svg xmlns="http://www.w3.org/2000/svg" fill="#7C83A0" version="1.0" viewBox="-0.01 0.98 268.32 229.78"><path d="M188.8 3.3c-4.1 2.5-17.5 15-19.8 18.4l-1.5 2.3-30.7-7c-16.9-3.8-33.1-7.3-36.1-7.6-13.2-1.6-29.6 4.4-39.6 14.5-7.4 7.5-10.5 13.5-14.2 27.8-2.5 9.4-3 13.2-2.7 18.5 1.6 21.3 25.5 32.3 44 20.1 5-3.4 8.7-9.1 10.9-16.9 1-3.7 2-6.8 2.2-7 .2-.2 6.3.4 13.5 1.4 9.2 1.3 13.6 2.3 14.5 3.4.6.9 18.5 20.6 39.7 43.7 21.2 23.2 38.9 43.1 39.4 44.2 1.3 2.9-2.2 7.3-6.1 7.7-2.8.3-4.5-1.2-20.9-19.2-15.9-17.5-18.2-19.6-21-19.6-3.5 0-6.4 2.6-6.4 5.8 0 1.4 3.5 6.1 9.3 12.4 5 5.6 12.9 14.2 17.5 19.2 4.5 5 8.5 10.1 8.8 11.4 1 3.6-2 7.2-6 7.2-3.1 0-4.8-1.5-21.2-19.5-16.2-17.8-18-19.5-21-19.5-4 0-7 3.6-5.9 7.1.4 1.2 8.5 10.7 18.1 21.2 18.2 20 19.6 22.4 15.7 26-1.8 1.5-3.5 2-6.4 1.8-.9 0-9.6-8.9-19.3-19.6-15.1-16.6-18.2-19.5-20.6-19.5-3.7 0-6 2.4-6 6.1 0 2.3 3.2 6.4 17.5 22 13.9 15.3 17.5 19.7 17.5 22 0 5.2-5.7 8.4-9.6 5.3-1.3-1.1-29.2-31.4-62-67.4C6.3 68.7 9.5 72 6.1 72c-1.6 0-3.5.8-4.4 1.8-3.8 4.1-3 5.3 20.7 31.2l10.5 11.5-6.4 6.5c-6.7 6.8-8.5 10.1-8.5 15.3.1 7 7.1 16.4 14 18.9 1.9.6 3 2 3.8 4.6 1.5 4.8 9.3 13.1 13.1 13.8 2.3.5 3.1 1.4 4 4.6 1.5 5 8.2 12.3 12.7 14 2.7.9 3.6 2 4.4 4.8 1.2 4.6 6.9 11.3 11.4 13.4 4.3 2 10.8 2.1 15 .1 1.8-.9 5.2-3.6 7.6-6 2.4-2.5 5-4.5 5.6-4.5.7 0 6.1 5.3 12.1 11.8 5.9 6.5 12.2 12.8 13.8 14 4 2.8 11.2 3.8 15.9 2.2 6.5-2.1 12.6-8.8 12.6-13.8 0-1.5.9-2.1 3.8-2.7 2-.3 5.4-1.7 7.4-3.1 3.6-2.3 7.8-8.7 7.8-11.7 0-.9 1.8-1.9 4.5-2.6 5.8-1.5 12-7 13.8-12.4 1.2-3.6 1.8-4.2 5.2-4.9 5.3-1.1 10.3-5.2 12.6-10.2 3.7-8.1 2-15.2-5.6-23.4l-5.4-5.9 28.4-25.9c17.6-16 29.1-27.2 30.2-29.4 2.3-4.8 2.1-13-.4-17-4-6.3-56.5-62.8-59.8-64.4-4.9-2.4-13.2-2.1-17.7.7zm39.9 40.1C250.4 67.1 256 73.8 256 76c0 2.1-2 4.5-9.4 11.3-5.2 4.8-9.7 8.7-10 8.7-.3 0-13.4-14.1-29.1-31.2C186.2 41.4 179 32.9 179 31c0-1.9 2-4.5 8.2-10.2 6.9-6.5 8.8-7.7 11.3-7.5 2.5.2 7.2 4.9 30.2 30.1zM134 28.9c30.1 6.9 30.5 7 33.5 10.5 1.7 1.9 15.6 17.2 31 34.1 15.4 16.8 28 31 28 31.3 0 .4-6.1 6.3-13.5 13.1-12.8 11.7-13.5 12.2-15 10.4-3.2-3.9-63-69.2-64-69.8-1.6-1-37.4-5.6-39.6-5-2.4.5-3.6 3.1-6 12.6C85.5 78 80.6 83 71.9 83c-8 0-15.9-7.4-15.9-14.9 0-5.3 4.6-21.6 7.7-27.3 6.6-12.1 21.6-20.4 34.8-19.3 2.8.3 18.7 3.6 35.5 7.4zM45.5 131.6l3.8 4.6-3.8 3.7c-2 2.1-4.8 4.4-6.1 5.2-2.2 1.1-2.7 1-5.9-2.1-1.9-1.9-3.5-4-3.5-4.9 0-1.3 9.8-11.1 11.1-11.1.4 0 2.3 2.1 4.4 4.6zm16.7 18.1c2.1 2 3.8 4.2 3.8 4.9 0 1.3-6.7 7.6-10 9.4-1.8 1-2.5.7-5.5-2.3-1.9-1.9-3.5-4.1-3.5-4.8 0-1.2 9.6-10.9 10.8-10.9.3 0 2.3 1.7 4.4 3.7zm16.5 28.5c-6.4 5.8-8.8 6.1-12.1 1.1-3-4.3-2.6-5.4 4.1-11.1l4.6-4 4.4 4.6 4.3 4.7-5.3 4.7zm17.1 19c-2.9 2.6-6 4.8-6.9 4.8-2.2 0-6.9-5.2-6.9-7.7 0-1.2 2.2-4.1 5.2-6.9l5.1-4.8 4.4 5 4.4 4.9-5.3 4.7z"/><path d="M235.6 73.6c-3.6 3.5-.7 10.4 4.2 10.4 2.9 0 6.2-3.4 6.2-6.3 0-4.9-7-7.6-10.4-4.1z"/></svg>