<svg xmlns="http://www.w3.org/2000/svg" data-name="Layer 1" viewBox="0 0 88.51 78.39">
  <rect width="38.62" height="48.38" x="25.83" y="15.82" rx="5" ry="5" style="fill:none;stroke:#282d5b;stroke-miterlimit:10;stroke-width:2.94px"/>
  <path d="M33.54 25.14h22.83m-22.83 5.92h22.83m-22.83 5.93h14.94" style="stroke-linecap:round;fill:none;stroke:#282d5b;stroke-miterlimit:10;stroke-width:2.94px"/>
  <path d="M33.28 55.77c3.03-3.93 6.4-7.6 10.02-10.99l-2.38-1.38a68.343 68.343 0 0 0-2.64 8.83c-.3 1.31.97 2.08 2.09 1.61a60.78 60.78 0 0 0 7.2-3.65l-2.09-.85c.36 1.1-.12 2.25.47 3.34.52.95 1.5 1.57 2.55 1.77 1.24.24 2.45-.12 3.64-.44 1.59-.42 3.18-.66 4.83-.73 1.82-.08 1.83-2.92 0-2.84-2.22.09-4.28.55-6.43 1.07-.67.16-1.87.49-2.15-.39-.1-.31.04-.78.04-1.1 0-.49-.06-.96-.21-1.43-.28-.86-1.27-1.34-2.09-.85a60.78 60.78 0 0 1-7.2 3.65L41.02 53c.68-3 1.56-5.95 2.64-8.83.52-1.41-1.41-2.28-2.38-1.38-3.81 3.57-7.28 7.44-10.46 11.57-1.12 1.45 1.35 2.87 2.45 1.43Z" style="fill:#292e58"/>
</svg>
