<?xml version="1.0" encoding="UTF-8"?>
<!DOCTYPE svg PUBLIC "-//W3C//DTD SVG 1.1//EN" "http://www.w3.org/Graphics/SVG/1.1/DTD/svg11.dtd">
<svg xmlns="http://www.w3.org/2000/svg" version="1.1" width="369px" height="327px" style="shape-rendering:geometricPrecision; text-rendering:geometricPrecision; image-rendering:optimizeQuality; fill-rule:evenodd; clip-rule:evenodd" xmlns:xlink="http://www.w3.org/1999/xlink">
<g><path style="opacity:0.94" fill="#272d5b" d="M 125.5,58.5 C 166.835,58.3333 208.168,58.5 249.5,59C 262.323,60.8207 270.489,67.9874 274,80.5C 274.667,137.833 274.667,195.167 274,252.5C 271.081,263.752 263.914,270.585 252.5,273C 209.167,273.667 165.833,273.667 122.5,273C 110.667,270.5 103.5,263.333 101,251.5C 100.333,194.833 100.333,138.167 101,81.5C 104.25,68.4116 112.417,60.745 125.5,58.5 Z M 126.5,71.5 C 167.168,71.3333 207.835,71.5 248.5,72C 254.469,73.2979 258.635,76.7979 261,82.5C 261.667,138.167 261.667,193.833 261,249.5C 259.5,255 256,258.5 250.5,260C 208.5,260.667 166.5,260.667 124.5,260C 118.562,258.395 115.062,254.562 114,248.5C 113.333,193.5 113.333,138.5 114,83.5C 116.12,77.2106 120.286,73.2106 126.5,71.5 Z"/></g>
<g><path style="opacity:0.935" fill="#272d5b" d="M 137.5,97.5 C 170.502,97.3334 203.502,97.5 236.5,98C 240.292,100.053 241.458,103.219 240,107.5C 239.5,108.667 238.667,109.5 237.5,110C 203.5,110.667 169.5,110.667 135.5,110C 131.078,104.952 131.744,100.786 137.5,97.5 Z"/></g>
<g><path style="opacity:0.934" fill="#272d5b" d="M 136.5,122.5 C 170.168,122.333 203.835,122.5 237.5,123C 241.5,127 241.5,131 237.5,135C 203.833,135.667 170.167,135.667 136.5,135C 131.232,130.837 131.232,126.671 136.5,122.5 Z"/></g>
<g><path style="opacity:0.931" fill="#272d5b" d="M 135.5,147.5 C 158.836,147.333 182.169,147.5 205.5,148C 209.493,152.707 208.827,156.707 203.5,160C 181.5,160.667 159.5,160.667 137.5,160C 131.782,156.63 131.115,152.463 135.5,147.5 Z"/></g>
<g><path style="opacity:0.933" fill="#282e58" d="M 173.5,175.5 C 178.42,174.784 181.42,176.784 182.5,181.5C 180.033,189.568 177.366,197.568 174.5,205.5C 174.833,205.833 175.167,206.167 175.5,206.5C 180.992,203.921 186.325,201.088 191.5,198C 195.781,196.542 198.947,197.708 201,201.5C 201.333,205.167 201.667,208.833 202,212.5C 202.5,213 203,213.5 203.5,214C 211.494,213.006 219.494,211.673 227.5,210C 231.833,209.333 236.167,209.333 240.5,210C 245.167,216 243.833,220 236.5,222C 225.877,223.114 215.377,224.947 205,227.5C 196.383,227.043 190.883,222.71 188.5,214.5C 182.833,217.333 177.167,220.167 171.5,223C 167.321,225.11 163.321,224.944 159.5,222.5C 158.937,221.061 158.603,219.561 158.5,218C 159.264,214.472 159.764,210.972 160,207.5C 151.94,215.724 144.44,224.39 137.5,233.5C 134.5,234.833 131.5,234.833 128.5,233.5C 127.16,232.312 126.493,230.812 126.5,229C 127.13,225.704 128.63,222.87 131,220.5C 144.019,204.317 158.186,189.317 173.5,175.5 Z"/></g>
</svg>
