<svg width="48" height="48" viewBox="0 0 48 48" fill="none" xmlns="http://www.w3.org/2000/svg">
<circle cx="24" cy="24" r="24" fill="#9C0067"/>
<path fill-rule="evenodd" clip-rule="evenodd" d="M19 15C19.5523 15 20 15.4477 20 16L20 32C20 32.5523 19.5523 33 19 33C18.4477 33 18 32.5523 18 32L18 16C18 15.4477 18.4477 15 19 15Z" fill="#CD80B3"/>
<path fill-rule="evenodd" clip-rule="evenodd" d="M24 15C24.5523 15 25 15.4477 25 16L25 32C25 32.5523 24.5523 33 24 33C23.4477 33 23 32.5523 23 32L23 16C23 15.4477 23.4477 15 24 15Z" fill="#CD80B3"/>
<path fill-rule="evenodd" clip-rule="evenodd" d="M29 15C29.5523 15 30 15.4477 30 16L30 32C30 32.5523 29.5523 33 29 33C28.4477 33 28 32.5523 28 32L28 16C28 15.4477 28.4477 15 29 15Z" fill="#CD80B3"/>
</svg>
