<?xml version="1.0" encoding="UTF-8"?>
<!DOCTYPE svg PUBLIC "-//W3C//DTD SVG 1.1//EN" "http://www.w3.org/Graphics/SVG/1.1/DTD/svg11.dtd">
<svg xmlns="http://www.w3.org/2000/svg" version="1.1" width="369px" height="327px" style="shape-rendering:geometricPrecision; text-rendering:geometricPrecision; image-rendering:optimizeQuality; fill-rule:evenodd; clip-rule:evenodd" xmlns:xlink="http://www.w3.org/1999/xlink">
<g><path style="opacity:0.926" fill="#272d5b" d="M 171.5,36.5 C 223.731,33.8614 263.564,54.5281 291,98.5C 309.349,134.253 311.349,170.92 297,208.5C 270.482,261.854 227.315,286.354 167.5,282C 115.829,273.329 81.6625,244.162 65,194.5C 52.8823,144.873 65.049,102.373 101.5,67C 121.868,49.9817 145.201,39.8151 171.5,36.5 Z M 170.5,49.5 C 224.637,46.8015 263.137,69.8015 286,118.5C 302.014,164.948 292.847,205.781 258.5,241C 217.97,274.22 174.303,278.887 127.5,255C 82.7365,225.082 65.9032,183.582 77,130.5C 91.9747,84.685 123.141,57.685 170.5,49.5 Z"/></g>
<g><path style="opacity:0.911" fill="#272d5b" d="M 143.5,119.5 C 155.111,118.939 159.611,124.273 157,135.5C 150.667,142.167 144.333,142.167 138,135.5C 135.365,128.57 137.198,123.237 143.5,119.5 Z"/></g>
<g><path style="opacity:0.91" fill="#272d5b" d="M 215.5,119.5 C 226.433,118.695 230.933,123.695 229,134.5C 225.723,140.109 220.89,141.942 214.5,140C 208.069,135.353 206.902,129.52 211,122.5C 212.652,121.601 214.152,120.601 215.5,119.5 Z"/></g>
<g><path style="opacity:0.921" fill="#272d5b" d="M 137.5,187.5 C 163.289,209.898 190.956,212.398 220.5,195C 223.63,192.872 226.463,190.372 229,187.5C 232.217,190.38 235.05,193.547 237.5,197C 220.419,213.809 199.753,221.142 175.5,219C 157.324,217.078 141.99,209.578 129.5,196.5C 132.189,193.48 134.856,190.48 137.5,187.5 Z"/></g>
</svg>
