<?xml version="1.0" standalone="no"?>
<!DOCTYPE svg PUBLIC "-//W3C//DTD SVG 20010904//EN"
 "http://www.w3.org/TR/2001/REC-SVG-20010904/DTD/svg10.dtd">
<svg version="1.0" xmlns="http://www.w3.org/2000/svg"
 width="369.000000pt" height="327.000000pt" viewBox="0 0 369.000000 327.000000"
 preserveAspectRatio="xMidYMid meet">

<g transform="translate(0.000000,327.000000) scale(0.100000,-0.100000)"
fill="#000000" stroke="none">
<path d="M1765 2894 c-191 -18 -335 -58 -485 -135 -328 -168 -559 -469 -641
-834 -30 -137 -31 -367 -2 -505 52 -242 162 -443 340 -623 166 -167 379 -281
626 -334 113 -24 361 -24 474 0 249 53 460 167 633 340 171 171 289 395 337
634 23 119 22 358 -1 468 -54 249 -165 456 -340 631 -222 222 -493 340 -821
357 -44 3 -98 3 -120 1z m205 -124 c505 -66 900 -454 969 -954 38 -272 -30
-549 -191 -783 -58 -84 -208 -232 -291 -287 -90 -59 -237 -124 -344 -153 -88
-24 -115 -27 -273 -27 -158 0 -185 3 -273 27 -107 29 -254 94 -344 153 -83 55
-233 203 -291 287 -264 383 -268 865 -10 1257 62 95 209 238 312 305 222 144
486 207 736 175z"/>
<path d="M2160 2056 c-49 -16 -76 -71 -60 -122 31 -93 152 -95 190 -4 13 32 0
89 -25 110 -25 21 -70 28 -105 16z"/>
<path d="M1406 2029 c-47 -56 -28 -137 39 -159 44 -15 80 -4 110 32 33 39 33
87 -1 127 -22 27 -32 31 -74 31 -42 0 -52 -4 -74 -31z"/>
<path d="M1345 1339 l-40 -41 46 -41 c64 -58 160 -113 254 -144 73 -25 94 -27
235 -28 173 0 231 13 360 81 65 34 180 119 180 133 0 4 -17 24 -39 45 l-38 37
-65 -49 c-124 -94 -245 -135 -393 -136 -49 0 -115 6 -145 13 -79 19 -208 83
-262 130 -25 23 -48 41 -50 41 -2 0 -22 -18 -43 -41z"/>
</g>
</svg>
