<?xml version="1.0" encoding="UTF-8"?>
<svg id="Layer_1" data-name="Layer 1" xmlns="http://www.w3.org/2000/svg" version="1.1" viewBox="0 0 40 40">
  <defs>
    <style>
      .cls-1 {
        fill: #243060;
      }

      .cls-1, .cls-2 {
        stroke-width: 0px;
      }

      .cls-2 {
        fill: #fff;
      }
    </style>
  </defs>
  <path class="cls-1" d="M20,0h0C31,0,40,9,40,20h0c0,11-9,20-20,20h0C9,40,0,31,0,20h0C0,9,9,0,20,0Z"/>
  <path class="cls-2" d="M21.3,18.9l5.1-5.9h-1.2l-4.4,5.1-3.5-5.1h-4.1l5.3,7.7-5.3,6.2h1.2l4.7-5.4,3.7,5.4h4.1l-5.5-8h0ZM19.6,20.8l-.5-.8-4.3-6.1h1.8l3.5,5,.5.8,4.5,6.4h-1.8l-3.7-5.3h0Z"/>
</svg>
