<svg width="18" height="14" viewBox="0 0 18 14" fill="none" xmlns="http://www.w3.org/2000/svg">
<path fill-rule="evenodd" clip-rule="evenodd" d="M5.95021 13.6662C11.271 13.7138 15.6235 9.498 15.6719 4.24997C15.6727 4.19244 15.6727 4.13492 15.6719 4.07821V3.62129C16.3185 3.13561 16.8819 2.54966 17.3385 1.88647C16.7177 2.15273 16.0635 2.33682 15.3935 2.43461C16.0827 2.00727 16.6044 1.3638 16.8752 0.607745C16.206 0.975091 15.4902 1.25122 14.746 1.42955C14.1119 0.725263 13.2002 0.326689 12.246 0.334086C10.3652 0.362849 8.84854 1.85853 8.81938 3.71333C8.79854 3.95987 8.83021 4.20888 8.91271 4.44309C6.15604 4.31243 3.59021 3.01398 1.87521 0.881405C1.57021 1.41065 1.41104 2.00892 1.41271 2.61705C1.43687 3.73552 1.98354 4.78003 2.89354 5.44816C2.33771 5.43665 1.79354 5.27969 1.31937 4.99206C1.31771 6.60608 2.48771 7.98999 4.09771 8.27926C3.79688 8.35898 3.48354 8.39021 3.17188 8.37048C2.95187 8.38528 2.73104 8.35405 2.52437 8.27926C2.98771 9.66564 4.28437 10.6156 5.76437 10.6535C4.54688 11.5911 3.05021 12.1048 1.50521 12.1138C1.22437 12.1286 0.942708 12.0982 0.671875 12.0226C2.20437 13.1197 4.05687 13.6966 5.95021 13.6662Z" fill="#243060"/>
</svg>
