<svg width="40" height="40" viewBox="0 0 40 40" fill="none" xmlns="http://www.w3.org/2000/svg">
<rect width="40" height="40" rx="20" fill="#243060"/>
<path d="M16.1032 26.1374H13.1685V16.6916H16.1065V26.1374H16.1018H16.1032ZM14.6352 15.4017C14.1957 15.3844 13.7799 15.1977 13.4751 14.8806C13.1703 14.5635 13 14.1407 13 13.7009C13 13.261 13.1703 12.8383 13.4751 12.5212C13.7799 12.2041 14.1957 12.0173 14.6352 12C15.086 12.001 15.518 12.1806 15.8367 12.4993C16.1555 12.8181 16.335 13.2501 16.3361 13.7009C16.3363 13.9243 16.2925 14.1456 16.2071 14.3521C16.1217 14.5586 15.9965 14.7462 15.8385 14.9041C15.6805 15.0621 15.4929 15.1874 15.2864 15.2728C15.0799 15.3582 14.8586 15.402 14.6352 15.4017ZM27.0981 26.1374H24.1648V21.5428C24.1648 20.4476 24.143 19.0377 22.6408 19.0377C21.1121 19.0377 20.8779 20.2306 20.8779 21.463V26.1374H17.9452V16.6916H20.7591V17.9821H20.7987C21.1926 17.2398 22.1512 16.458 23.5783 16.458C26.5472 16.458 27.0994 18.4149 27.0994 20.9596V26.1374H27.0981Z" fill="white"/>
</svg>
