<svg width="20" height="14" viewBox="0 0 20 14" fill="none" xmlns="http://www.w3.org/2000/svg">
<path fill-rule="evenodd" clip-rule="evenodd" d="M18.2092 1.52638C18.4936 1.81266 18.6979 2.16863 18.8016 2.55866C19.1849 3.99824 19.1849 7.00033 19.1849 7.00033C19.1849 7.00033 19.1849 10.0024 18.8016 11.442C18.6979 11.832 18.4936 12.188 18.2092 12.4743C17.9247 12.7605 17.5701 12.9671 17.1807 13.0732C15.7474 13.4587 10.0182 13.4587 10.0182 13.4587C10.0182 13.4587 4.28906 13.4587 2.85573 13.0732C2.46637 12.9671 2.11172 12.7605 1.82727 12.4743C1.54282 12.188 1.33855 11.832 1.2349 11.442C0.851562 10.0024 0.851562 7.00033 0.851562 7.00033C0.851562 7.00033 0.851562 3.99824 1.2349 2.55866C1.33855 2.16863 1.54282 1.81266 1.82727 1.52638C2.11172 1.2401 2.46637 1.03356 2.85573 0.927409C4.28906 0.541992 10.0182 0.541992 10.0182 0.541992C10.0182 0.541992 15.7474 0.541992 17.1807 0.927409C17.5701 1.03356 17.9247 1.2401 18.2092 1.52638ZM12.9362 7.00143L8.14453 4.27539V9.72748L12.9362 7.00143Z" fill="#243060"/>
</svg>
