<svg width="40" height="40" viewBox="0 0 40 40" fill="none" xmlns="http://www.w3.org/2000/svg">
<rect width="40" height="40" rx="20" fill="#243060"/>
<g clip-path="url(#clip0_2_1612)">
<path fill-rule="evenodd" clip-rule="evenodd" d="M28.2092 14.5264C28.4936 14.8127 28.6979 15.1686 28.8016 15.5587C29.1849 16.9982 29.1849 20.0003 29.1849 20.0003C29.1849 20.0003 29.1849 23.0024 28.8016 24.442C28.6979 24.832 28.4936 25.188 28.2092 25.4743C27.9247 25.7605 27.5701 25.9671 27.1807 26.0732C25.7474 26.4587 20.0182 26.4587 20.0182 26.4587C20.0182 26.4587 14.2891 26.4587 12.8557 26.0732C12.4664 25.9671 12.1117 25.7605 11.8273 25.4743C11.5428 25.188 11.3385 24.832 11.2349 24.442C10.8516 23.0024 10.8516 20.0003 10.8516 20.0003C10.8516 20.0003 10.8516 16.9982 11.2349 15.5587C11.3385 15.1686 11.5428 14.8127 11.8273 14.5264C12.1117 14.2401 12.4664 14.0336 12.8557 13.9274C14.2891 13.542 20.0182 13.542 20.0182 13.542C20.0182 13.542 25.7474 13.542 27.1807 13.9274C27.5701 14.0336 27.9247 14.2401 28.2092 14.5264ZM22.9362 20.0014L18.1445 17.2754V22.7275L22.9362 20.0014Z" fill="white"/>
</g>
<defs>
<clipPath id="clip0_2_1612">
<rect width="18.3333" height="18.3333" fill="white" transform="translate(10.8359 10.834)"/>
</clipPath>
</defs>
</svg>
