<svg width="15" height="15" viewBox="0 0 15 15" fill="none" xmlns="http://www.w3.org/2000/svg">
<path d="M3.10315 14.1374H0.168525V4.69158H3.10645V14.1374H3.10183H3.10315ZM1.63518 3.40174C1.19567 3.38443 0.779932 3.19765 0.475097 2.88057C0.170262 2.56349 0 2.14072 0 1.70087C0 1.26102 0.170262 0.838252 0.475097 0.52117C0.779932 0.204089 1.19567 0.0173156 1.63518 0C2.08596 0.00104549 2.51797 0.18058 2.83672 0.499328C3.15547 0.818077 3.33501 1.25009 3.33605 1.70087C3.33631 1.92431 3.2925 2.1456 3.20711 2.35207C3.12173 2.55855 2.99645 2.74616 2.83846 2.90415C2.68047 3.06214 2.49286 3.18742 2.28638 3.2728C2.07991 3.35819 1.85861 3.402 1.63518 3.40174ZM14.0981 14.1374H11.1648V9.54282C11.1648 8.44761 11.143 7.0377 9.64075 7.0377C8.11208 7.0377 7.87786 8.23055 7.87786 9.46299V14.1374H4.94522V4.69158H7.75911V5.98208H7.79869C8.19257 5.23984 9.15121 4.45802 10.5783 4.45802C13.5472 4.45802 14.0994 6.41488 14.0994 8.95959V14.1374H14.0981Z" fill="#243060"/>
</svg>
