<?xml version="1.0" encoding="UTF-8"?>
<!DOCTYPE svg PUBLIC "-//W3C//DTD SVG 1.1//EN" "http://www.w3.org/Graphics/SVG/1.1/DTD/svg11.dtd">
<svg xmlns="http://www.w3.org/2000/svg" version="1.1" width="369px" height="327px" style="shape-rendering:geometricPrecision; text-rendering:geometricPrecision; image-rendering:optimizeQuality; fill-rule:evenodd; clip-rule:evenodd" xmlns:xlink="http://www.w3.org/1999/xlink">
<g><path style="opacity:0.936" fill="#272d5b" d="M 171.5,50.5 C 178.57,49.2515 184.737,50.9181 190,55.5C 199.185,73.3772 208.185,91.3772 217,109.5C 217.833,110.333 218.667,111.167 219.5,112C 240.167,115.333 260.833,118.667 281.5,122C 290.879,128.538 293.046,137.038 288,147.5C 273.362,161.137 259.029,175.137 245,189.5C 244.333,192.167 244.333,194.833 245,197.5C 248.223,215.278 251.056,233.112 253.5,251C 252.398,264.573 245.064,269.906 231.5,267C 213.507,257.42 195.341,248.254 177,239.5C 159.148,248.51 141.315,257.677 123.5,267C 110.344,269.767 102.677,264.6 100.5,251.5C 104.261,231.206 107.428,210.873 110,190.5C 95.3874,175.887 80.7208,161.221 66,146.5C 61.9765,138.187 63.1432,130.687 69.5,124C 71.7173,122.725 74.0506,121.725 76.5,121C 96.2222,118.324 115.889,115.324 135.5,112C 144.988,94.8576 153.821,77.3576 162,59.5C 164.406,55.5915 167.572,52.5915 171.5,50.5 Z M 176.5,64.5 C 177.643,64.9081 178.643,65.5748 179.5,66.5C 188.272,83.7105 196.772,101.044 205,118.5C 208.313,123.239 212.813,126.072 218.5,127C 237.868,129.695 257.201,132.529 276.5,135.5C 276.649,136.552 276.483,137.552 276,138.5C 261.667,152.5 247.333,166.5 233,180.5C 230.983,184.067 229.816,187.901 229.5,192C 232.564,211.548 235.897,231.048 239.5,250.5C 239.253,253.082 237.92,253.915 235.5,253C 218.658,243.745 201.658,234.745 184.5,226C 179.833,224 175.167,224 170.5,226C 152.633,235.6 134.633,244.6 116.5,253C 115.903,251.938 115.57,250.772 115.5,249.5C 118.398,232.845 121.231,216.178 124,199.5C 125.63,191.845 124.296,184.845 120,178.5C 105.488,165.321 91.6544,151.488 78.5,137C 78.9054,136.055 79.572,135.388 80.5,135C 98.8473,132.427 117.181,129.76 135.5,127C 140.953,126.214 145.453,123.714 149,119.5C 158.196,101.109 167.362,82.7757 176.5,64.5 Z"/></g>
</svg>
