<svg xmlns="http://www.w3.org/2000/svg" data-name="Layer 1" viewBox="0 0 88.51 78.39">
  <path d="M42.67 15.47c.24 0 .47.13.58.36l6.01 12.16a4.49 4.49 0 0 0 3.39 2.46l13.42 1.95a.658.658 0 0 1 .37 1.11l-9.72 9.47a4.519 4.519 0 0 0-1.29 3.99l2.29 13.37c.05.25-.05.5-.26.64-.11.09-.24.13-.38.13a.68.68 0 0 1-.31-.08l-12.01-6.31a4.502 4.502 0 0 0-4.2 0l-12 6.31a.65.65 0 0 1-.31.08h-.11a.654.654 0 0 1-.53-.75l2.29-13.37c.25-1.46-.24-2.95-1.29-3.99l-9.71-9.47c-.1-.1-.17-.23-.19-.38-.05-.36.2-.68.55-.73l13.42-1.96A4.473 4.473 0 0 0 36.07 28l6-12.16a.67.67 0 0 1 .59-.37m0-3.2c-.59 0-1.18.14-1.71.4a3.9 3.9 0 0 0-1.75 1.75l-6 12.16c-.19.39-.56.65-.98.71l-13.43 1.96c-1 .14-1.9.67-2.52 1.49-.62.82-.88 1.83-.73 2.85.12.84.52 1.64 1.14 2.23l9.7 9.46c.31.3.45.73.37 1.16l-2.29 13.37a3.85 3.85 0 0 0 3.14 4.44c.22.04.44.06.66.06.63 0 1.25-.16 1.81-.45l11.99-6.3c.19-.1.4-.15.61-.15s.42.05.6.15l11.99 6.3a3.82 3.82 0 0 0 4.08-.28c1.2-.86 1.79-2.33 1.53-3.79l-2.29-13.35c-.07-.42.07-.86.38-1.16l9.71-9.47c.74-.72 1.15-1.69 1.16-2.72.01-1.03-.38-2-1.1-2.73-.59-.6-1.37-1-2.2-1.12l-13.42-1.95c-.43-.06-.79-.33-.98-.71l-6.01-12.17a3.827 3.827 0 0 0-3.45-2.14Z" style="fill:#282d5b"/>
</svg>
