<svg width="70" height="64" viewBox="0 0 70 64" fill="none" xmlns="http://www.w3.org/2000/svg">
<path fill-rule="evenodd" clip-rule="evenodd" d="M30.4375 0.0625C26.8476 0.0625 23.9375 2.97265 23.9375 6.5625V14.5625H10.4375C5.19079 14.5625 0.9375 18.8158 0.9375 24.0625V54.4375C0.9375 59.6842 5.1908 63.9375 10.4375 63.9375H59.5625C64.8092 63.9375 69.0625 59.6842 69.0625 54.4375V24.0625C69.0625 18.8158 64.8092 14.5625 59.5625 14.5625H46.0625V6.5625C46.0625 2.97265 43.1524 0.0625 39.5625 0.0625H30.4375ZM43.0625 14.5625V6.5625C43.0625 4.6295 41.4955 3.0625 39.5625 3.0625H30.4375C28.5045 3.0625 26.9375 4.6295 26.9375 6.5625V14.5625H43.0625ZM16.1974 17.5625H12.5526L12.5526 60.9375H16.1974L16.1974 17.5625ZM19.1974 17.5625L19.1974 60.9375H50.8026L50.8026 17.5625H46.0625H44.5625H25.4375H23.9375H19.1974ZM57.4474 60.9375H53.8026L53.8026 17.5625H57.4474L57.4474 60.9375ZM60.4474 60.8778C63.6186 60.4461 66.0625 57.7272 66.0625 54.4375V24.0625C66.0625 20.7728 63.6186 18.0539 60.4474 17.6222L60.4474 60.8778ZM3.9375 24.0625C3.9375 20.7728 6.38136 18.0539 9.55261 17.6222L9.55261 60.8778C6.38136 60.4461 3.9375 57.7272 3.9375 54.4375V24.0625ZM45.3403 46.3732L30.6591 43.1339L29.0702 50.3349L43.7515 53.5742L45.3403 46.3732ZM31.09 41.1809L29.137 40.75L28.706 42.703L27.1172 49.904L26.6863 51.8571L28.6393 52.288L43.3206 55.5273L45.2736 55.9582L45.7045 54.0052L47.2934 46.8042L47.7243 44.8511L45.7713 44.4202L31.09 41.1809ZM38.2559 29.7054L44.6864 28.0122L46.5642 35.1433L40.1337 36.8366L38.2559 29.7054ZM35.8126 28.2806L37.7466 27.7714L44.1771 26.0781L46.1112 25.5688L46.6205 27.5029L48.4982 34.634L49.0075 36.5681L47.0734 37.0774L40.6429 38.7706L38.7089 39.2799L38.1996 37.3458L36.3218 30.2147L35.8126 28.2806Z" fill="#243060"/>
</svg>
