<?xml version="1.0" encoding="UTF-8"?>
<!DOCTYPE svg PUBLIC "-//W3C//DTD SVG 1.1//EN" "http://www.w3.org/Graphics/SVG/1.1/DTD/svg11.dtd">
<svg xmlns="http://www.w3.org/2000/svg" version="1.1" width="369px" height="327px" style="shape-rendering:geometricPrecision; text-rendering:geometricPrecision; image-rendering:optimizeQuality; fill-rule:evenodd; clip-rule:evenodd" xmlns:xlink="http://www.w3.org/1999/xlink">
<g><path style="opacity:0.917" fill="#272d5b" d="M 185.5,44.5 C 187.857,44.3367 190.19,44.5034 192.5,45C 194.333,45.5 195.5,46.6667 196,48.5C 196.667,60.1667 196.667,71.8333 196,83.5C 190.919,88.9865 186.252,88.6531 182,82.5C 181.333,71.5 181.333,60.5 182,49.5C 182.697,47.4156 183.864,45.7489 185.5,44.5 Z"/></g>
<g><path style="opacity:0.936" fill="#272d5b" d="M 92.5,63.5 C 95.3198,63.2475 97.9865,63.7475 100.5,65C 112.333,76.8333 124.167,88.6667 136,100.5C 138.274,106.82 136.107,110.82 129.5,112.5C 128.062,112.281 126.729,111.781 125.5,111C 113.333,98.8333 101.167,86.6667 89,74.5C 87.6631,69.8721 88.8298,66.2054 92.5,63.5 Z"/></g>
<g><path style="opacity:0.904" fill="#272d5b" d="M 279.5,63.5 C 289.309,63.1547 292.143,67.4881 288,76.5C 276.833,87.6667 265.667,98.8333 254.5,110C 247.801,114.144 243.468,112.478 241.5,105C 241.542,103.033 242.042,101.199 243,99.5C 255.062,87.2708 267.228,75.2708 279.5,63.5 Z"/></g>
<g><path style="opacity:0.913" fill="#272d5b" d="M 147.5,66.5 C 151.603,65.7691 155.103,66.7691 158,69.5C 161.251,75.9083 163.251,82.5749 164,89.5C 162.607,92.3661 160.274,93.6994 157,93.5C 154.739,93.5609 152.739,92.8943 151,91.5C 149,86.8333 147,82.1667 145,77.5C 143.812,73.2586 144.645,69.5919 147.5,66.5 Z"/></g>
<g><path style="opacity:0.913" fill="#272d5b" d="M 222.5,66.5 C 228.979,64.7835 232.979,67.1169 234.5,73.5C 232.353,80.4621 229.353,86.9621 225.5,93C 219.039,95.2105 215.039,93.0438 213.5,86.5C 215.739,79.4342 218.739,72.7675 222.5,66.5 Z"/></g>
<g><path style="opacity:0.936" fill="#272d5b" d="M 182.5,100.5 C 219.995,100.154 243.161,118.154 252,154.5C 254.844,186.325 242.011,209.158 213.5,223C 180.296,233.71 153.796,224.877 134,196.5C 121.454,171.479 123.121,147.479 139,124.5C 150.625,111.108 165.125,103.108 182.5,100.5 Z M 182.5,115.5 C 211.013,114.858 229.18,128.192 237,155.5C 239.22,184.61 226.386,203.444 198.5,212C 176.372,214.85 159.205,207.017 147,188.5C 134.914,162.113 140.414,140.28 163.5,123C 169.604,119.583 175.937,117.083 182.5,115.5 Z"/></g>
<g><path style="opacity:0.91" fill="#272d5b" d="M 94.5,119.5 C 102.208,120.175 109.542,122.342 116.5,126C 118.934,129.716 119.101,133.549 117,137.5C 114.421,139.347 111.588,139.847 108.5,139C 102.468,137.107 96.9678,134.274 92,130.5C 90.8118,126.259 91.6451,122.592 94.5,119.5 Z"/></g>
<g><path style="opacity:0.909" fill="#272d5b" d="M 276.5,119.5 C 285.485,118.979 288.652,122.979 286,131.5C 280.686,134.384 275.186,136.884 269.5,139C 261.789,139.622 258.622,136.122 260,128.5C 265.066,124.553 270.566,121.553 276.5,119.5 Z"/></g>
<g><path style="opacity:0.919" fill="#272d5b" d="M 74.5,156.5 C 85.1719,156.333 95.8385,156.5 106.5,157C 113.616,160.598 114.282,165.264 108.5,171C 96.8333,171.667 85.1667,171.667 73.5,171C 70.3171,169.982 68.9838,167.815 69.5,164.5C 69.1883,160.499 70.855,157.832 74.5,156.5 Z"/></g>
<g><path style="opacity:0.913" fill="#272d5b" d="M 271.5,156.5 C 282.172,156.333 292.839,156.5 303.5,157C 307.496,157.836 309.496,160.336 309.5,164.5C 309.06,167.214 307.726,169.38 305.5,171C 293.5,171.667 281.5,171.667 269.5,171C 263.944,165.201 264.61,160.368 271.5,156.5 Z"/></g>
<g><path style="opacity:0.915" fill="#272d5b" d="M 107.5,189.5 C 118.818,188.99 121.485,193.49 115.5,203C 110.42,204.804 105.42,206.804 100.5,209C 92.5147,209.24 89.6814,205.407 92,197.5C 96.9079,194.155 102.075,191.488 107.5,189.5 Z"/></g>
<g><path style="opacity:0.904" fill="#272d5b" d="M 262.5,189.5 C 265.518,189.335 268.518,189.502 271.5,190C 275.419,191.862 279.419,193.529 283.5,195C 287.577,198.139 288.41,201.972 286,206.5C 284.177,208.167 282.01,209.167 279.5,209.5C 273.384,207.294 267.384,204.794 261.5,202C 258.709,197.578 259.043,193.412 262.5,189.5 Z"/></g>
<g><path style="opacity:0.906" fill="#272d5b" d="M 126.5,216.5 C 136.369,216.292 139.203,220.625 135,229.5C 123.833,240.667 112.667,251.833 101.5,263C 90.9078,266.739 87.0745,263.239 90,252.5C 102.062,240.271 114.228,228.271 126.5,216.5 Z"/></g>
<g><path style="opacity:0.942" fill="#272d5b" d="M 245.5,216.5 C 247.857,216.337 250.19,216.503 252.5,217C 264.667,229.167 276.833,241.333 289,253.5C 290.833,262.333 287.333,265.833 278.5,264C 266.333,251.833 254.167,239.667 242,227.5C 240.663,222.872 241.83,219.205 245.5,216.5 Z"/></g>
<g><path style="opacity:0.911" fill="#272d5b" d="M 154.5,234.5 C 160.247,233.866 163.58,236.366 164.5,242C 162.422,248.325 159.922,254.491 157,260.5C 153.536,263.113 150.036,263.113 146.5,260.5C 145.063,258.979 144.396,257.145 144.5,255C 145.664,246.954 148.997,240.121 154.5,234.5 Z"/></g>
<g><path style="opacity:0.901" fill="#272d5b" d="M 218.5,234.5 C 223.772,233.549 227.272,235.549 229,240.5C 230.833,245.333 232.667,250.167 234.5,255C 232.891,261.804 228.891,263.804 222.5,261C 218.449,255.228 215.449,248.895 213.5,242C 213.844,238.511 215.51,236.011 218.5,234.5 Z"/></g>
<g><path style="opacity:0.913" fill="#272d5b" d="M 188.5,240.5 C 192.063,240.625 194.563,242.292 196,245.5C 196.667,256.833 196.667,268.167 196,279.5C 191.333,286.167 186.667,286.167 182,279.5C 181.333,268.5 181.333,257.5 182,246.5C 182.309,245.234 182.809,244.067 183.5,243C 185.315,242.243 186.981,241.41 188.5,240.5 Z"/></g>
</svg>
