<svg xmlns="http://www.w3.org/2000/svg" id="Layer_1" data-name="Layer 1" viewBox="16.79 10.81 57.44 57.44">   <defs>     <style>       .cls-1{fill:none;stroke:#243060;stroke-linecap:round;stroke-linejoin:round;stroke-width:3.37px}     </style>   </defs>   <g id="g3255">     <g id="g3257">       <g id="g3259">         <g id="g3265">           <path id="path3267" d="M58.98 39.53c0 7.44-6.03 13.46-13.46 13.46s-13.46-6.03-13.46-13.46 6.03-13.46 13.46-13.46 13.46 6.03 13.46 13.46Z" class="cls-1"></path>         </g>         <g id="g3269">           <path id="path3271" d="m67.92 61.94-8.13-8.13" class="cls-1"></path>         </g>         <g id="g3273">           <path id="path3275" d="m31.23 25.25-8.13-8.13" class="cls-1"></path>         </g>         <g id="g3277">           <path id="path3279" d="m23.11 61.94 8.13-8.13" class="cls-1"></path>         </g>         <g id="g3281">           <path id="path3283" d="m59.79 25.25 8.13-8.13" class="cls-1"></path>         </g>         <g id="g3285">           <path id="path3287" d="m54.53 61.3-1.29-3.11" class="cls-1"></path>         </g>         <g id="g3289">           <path id="path3291" d="m37.79 20.87-1.29-3.11" class="cls-1"></path>         </g>         <g id="g3293">           <path id="path3295" d="m23.75 48.55 3.11-1.29" class="cls-1"></path>         </g>         <g id="g3297">           <path id="path3299" d="m64.17 31.8 3.11-1.29" class="cls-1"></path>         </g>         <g id="g3301">           <path id="path3303" d="m36.5 61.3 1.29-3.11" class="cls-1"></path>         </g>         <g id="g3305">           <path id="path3307" d="m53.24 20.87 1.29-3.11" class="cls-1"></path>         </g>         <g id="g3309">           <path id="path3311" d="m23.75 30.52 3.11 1.29" class="cls-1"></path>         </g>         <g id="g3313">           <path id="path3315" d="m64.17 47.26 3.11 1.29" class="cls-1"></path>         </g>         <g id="g3317">           <path id="path3319" d="M45.51 66.57v-6.84" class="cls-1"></path>         </g>         <g id="g3321">           <path id="path3323" d="M45.51 19.34V12.5" class="cls-1"></path>         </g>         <g id="g3325">           <path id="path3327" d="M18.48 39.53h6.84" class="cls-1"></path>         </g>         <g id="g3329">           <path id="path3331" d="M65.71 39.53h6.84" class="cls-1"></path>         </g>       </g>     </g>   </g> </svg>