<?xml version="1.0" encoding="UTF-8"?>
<!DOCTYPE svg PUBLIC "-//W3C//DTD SVG 1.1//EN" "http://www.w3.org/Graphics/SVG/1.1/DTD/svg11.dtd">
<svg xmlns="http://www.w3.org/2000/svg" version="1.1" width="369px" height="327px" style="shape-rendering:geometricPrecision; text-rendering:geometricPrecision; image-rendering:optimizeQuality; fill-rule:evenodd; clip-rule:evenodd" xmlns:xlink="http://www.w3.org/1999/xlink">
<g><path style="opacity:0.934" fill="#272d5b" d="M 164.5,62.5 C 188.814,60.3614 211.481,65.3614 232.5,77.5C 235.985,74.516 239.318,71.3493 242.5,68C 248.242,63.9748 252.408,65.1415 255,71.5C 255.611,78.1637 256.111,84.8303 256.5,91.5C 263.533,91.5027 270.533,92.0027 277.5,93C 281.828,95.8897 282.661,99.7231 280,104.5C 276.451,107.713 273.284,111.213 270.5,115C 293.194,159.079 289.694,200.913 260,240.5C 228.579,274.235 190.412,285.402 145.5,274C 106.856,261.024 82.3561,234.858 72,195.5C 62.5255,140.959 81.6922,100.126 129.5,73C 140.835,67.9397 152.502,64.4397 164.5,62.5 Z M 174.5,75.5 C 191.61,75.6103 207.61,79.7769 222.5,88C 219.628,90.5366 217.128,93.3699 215,96.5C 214.674,100.53 214.674,104.53 215,108.5C 197.991,98.6117 179.825,95.7784 160.5,100C 125.339,110.334 106.672,133.834 104.5,170.5C 107.516,209.68 128.182,233.513 166.5,242C 204.891,245.065 231.391,228.898 246,193.5C 252.264,172.522 250.097,152.522 239.5,133.5C 243.796,132.672 248.129,132.172 252.5,132C 254.683,129.65 257.016,127.483 259.5,125.5C 272.04,147.935 274.873,171.602 268,196.5C 250.243,244.473 215.743,266.973 164.5,264C 116.628,254.128 89.4614,224.961 83,176.5C 82.47,132.716 101.97,101.549 141.5,83C 152.256,78.7713 163.256,76.2713 174.5,75.5 Z M 241.5,88.5 C 242.977,92.2335 243.811,96.2335 244,100.5C 244.833,101.333 245.667,102.167 246.5,103C 250.716,104.204 255.049,104.87 259.5,105C 254.667,109.833 249.833,114.667 245,119.5C 239.9,118.626 234.734,117.959 229.5,117.5C 229.262,112.142 229.096,106.809 229,101.5C 233.37,97.2978 237.537,92.9645 241.5,88.5 Z M 171.5,111.5 C 187.008,110.453 200.675,114.786 212.5,124.5C 207.182,130.319 201.682,135.985 196,141.5C 178.941,132.311 163.608,134.644 150,148.5C 138.92,165.865 140.42,182.031 154.5,197C 165.111,204.556 176.778,206.556 189.5,203C 206.77,194.965 213.936,181.465 211,162.5C 209.989,158.632 208.489,154.966 206.5,151.5C 211.818,145.681 217.318,140.015 223,134.5C 236.091,151.812 239.091,170.812 232,191.5C 221.301,215.03 202.968,227.697 177,229.5C 150.906,227.402 132.573,214.402 122,190.5C 113.103,156.489 124.27,131.656 155.5,116C 160.874,114.16 166.207,112.66 171.5,111.5 Z M 172.5,149.5 C 177.157,148.994 181.49,149.827 185.5,152C 181,156.5 176.5,161 172,165.5C 168.693,175.092 171.86,178.592 181.5,176C 186.333,171.167 191.167,166.333 196,161.5C 200.755,176.489 195.588,186.323 180.5,191C 163.679,190.844 155.846,182.344 157,165.5C 159.685,157.65 164.852,152.316 172.5,149.5 Z"/></g>
</svg>
