<svg xmlns="http://www.w3.org/2000/svg" data-name="Layer 1" viewBox="16.83 15.21 51.62 51.62">   <path d="m64.67 27.55 2.5-2.5c.42-.42.55-1.04.35-1.59-.2-.55-.71-.94-1.29-.99l-4.65-.39-.39-4.64c-.05-.59-.43-1.09-.99-1.29-.55-.2-1.17-.06-1.59.35l-2.5 2.5a25.707 25.707 0 0 0-13.47-3.79c-6.9 0-13.38 2.69-18.25 7.56-4.88 4.88-7.56 11.36-7.56 18.25s2.69 13.38 7.56 18.25c4.88 4.88 11.36 7.56 18.25 7.56s13.38-2.69 18.25-7.56c4.88-4.88 7.56-11.36 7.56-18.25 0-4.79-1.31-9.42-3.79-13.47m-5.99-3.95a1.5 1.5 0 0 0 1.38 1.38l2.67.23-3.62 3.62-3.95-.33-.33-3.94 3.62-3.62.22 2.67ZM47.78 41.01c0 2.84-2.31 5.14-5.14 5.14s-5.14-2.31-5.14-5.14 2.31-5.14 5.14-5.14c.87 0 1.69.22 2.4.6l-3.47 3.47c-.59.59-.59 1.55 0 2.14.3.3.68.44 1.07.44s.77-.15 1.07-.44l3.47-3.47c.38.72.6 1.54.6 2.4m-.54-6.74c-1.31-.9-2.9-1.42-4.6-1.42-4.5 0-8.17 3.66-8.17 8.17s3.66 8.17 8.17 8.17 8.17-3.66 8.17-8.17c0-1.71-.53-3.29-1.42-4.6l4.32-4.32c1.97 2.44 3.16 5.55 3.16 8.92 0 7.84-6.38 14.22-14.22 14.22s-14.22-6.38-14.22-14.22S34.81 26.8 42.65 26.8c3.38 0 6.48 1.18 8.92 3.16l-4.32 4.32Zm11.51 22.86c-4.3 4.3-10.03 6.68-16.11 6.68s-11.81-2.37-16.12-6.68c-4.3-4.3-6.67-10.03-6.67-16.11s2.37-11.81 6.67-16.12c4.3-4.3 10.03-6.67 16.12-6.67 3.98 0 7.84 1.02 11.26 2.97l-1.71 1.71c-.28.28-.43.64-.44 1.03v.17l.2 2.41a17.181 17.181 0 0 0-9.32-2.74c-9.51 0-17.24 7.74-17.24 17.24s7.74 17.24 17.24 17.24 17.24-7.73 17.24-17.24c0-3.43-1.01-6.63-2.74-9.32l2.41.2h.37c.03 0 .06-.01.1-.02.02 0 .04 0 .06-.01.03 0 .06-.02.09-.03.02 0 .04-.01.06-.02.03-.01.06-.02.09-.04.02 0 .04-.02.05-.03.03-.02.06-.03.09-.05.02-.01.03-.02.05-.03l.09-.06c.01-.01.03-.02.04-.03.04-.03.08-.07.12-.11l1.71-1.71c1.95 3.42 2.97 7.28 2.97 11.26 0 6.09-2.37 11.81-6.67 16.11" style="fill:#243060"></path> </svg>