<?xml version="1.0" encoding="UTF-8"?>
<svg id="Layer_1" data-name="Layer 1" xmlns="http://www.w3.org/2000/svg" viewBox="0 0 61.21 57.69">
  <defs>
    <style>
      .cls-1 {
        fill: #7C83A0;
        stroke: #7C83A0;
        stroke-miterlimit: 10;
        stroke-width: .71px;
      }
    </style>
  </defs>
  <path class="cls-1" d="M29.35,30.23l-17.37,22.24c-1.55,1.98-4.4,2.55-6.48,1.14-2.28-1.55-2.75-4.69-1.08-6.83l.79-1.02c.37-.47.28-1.14-.19-1.51l-.12-.1c-.49-.39-1.21-.3-1.59.2l-.63.81c-2.35,3.01-2.07,7.4.82,9.9,3.09,2.67,7.76,2.18,10.24-1l17.48-22.37-1.86-1.46Z"/>
  <path class="cls-1" d="M49.5,8.44l-2.01-1.57C35.19-2.74,17.02-.1,6.98,12.75c-.3.38-.33.91-.09,1.33.08.13.18.24.29.33.26.2.59.29.92.24.24-.04.47-.07.71-.09,2.25-.18,4.44.53,6.16,1.99,1.72,1.46,2.77,3.51,2.95,5.76.03.33.19.63.45.84s.6.29.92.23c.18-.03.36-.05.54-.07,2.24-.22,4.43.46,6.19,1.87,1.75,1.43,2.83,3.45,3.06,5.72l.02.2c.04.31.2.59.45.79l.02.02c.26.19.58.27.9.22.23-.04.47-.07.71-.09,2.25-.18,4.43.52,6.16,1.99,1.72,1.46,2.77,3.51,2.95,5.76.05.66.72,1.18,1.37,1.07.24-.04.48-.07.73-.09,4.64-.37,8.72,3.11,9.09,7.75.04.49.38.9.84,1.04.47.14.97-.02,1.27-.4,10.04-12.85,8.2-31.12-4.1-40.72ZM50.08,40.97c-2.13-1.81-4.81-2.72-7.59-2.57-.46-2.4-1.72-4.56-3.61-6.17-2.13-1.81-4.81-2.71-7.58-2.57-.48-2.48-1.79-4.69-3.77-6.31-.06-.05-.13-.1-.2-.16-2.07-1.62-4.61-2.41-7.22-2.27-.91-4.7-4.85-8.24-9.56-8.7C20.02,2.13,35.42.44,46.03,8.73l2.01,1.57c10.6,8.28,12.69,23.63,5.21,35.26-.63-1.77-1.71-3.35-3.17-4.59Z"/>
</svg>