<?xml version="1.0" standalone="no"?>
<!DOCTYPE svg PUBLIC "-//W3C//DTD SVG 20010904//EN"
 "http://www.w3.org/TR/2001/REC-SVG-20010904/DTD/svg10.dtd">
<svg version="1.0" xmlns="http://www.w3.org/2000/svg"
 width="369.000000pt" height="327.000000pt" viewBox="0 0 369.000000 327.000000"
 preserveAspectRatio="xMidYMid meet">

<g transform="translate(0.000000,327.000000) scale(0.100000,-0.100000)"
fill="#000000" stroke="none">
<path d="M2159 2856 c-20 -7 -266 -146 -546 -309 l-509 -297 -110 0 c-84 0
-118 -5 -149 -19 -51 -23 -101 -79 -114 -128 -15 -52 -15 -1304 0 -1356 13
-47 60 -102 110 -128 37 -18 67 -19 965 -19 1014 0 958 -3 1020 58 56 56 64
90 64 284 l0 177 29 17 c16 9 39 34 50 54 19 35 21 53 21 236 0 220 -4 237
-69 285 l-31 23 0 175 c0 150 -3 182 -19 216 -25 53 -67 92 -127 114 l-49 19
-148 258 c-82 143 -163 274 -180 292 -19 19 -52 39 -81 47 -60 18 -80 18 -127
1z m120 -132 c8 -7 13 -15 10 -18 -2 -2 -179 -106 -392 -230 l-388 -227 -77 3
-77 3 415 241 c228 133 422 244 430 247 21 7 62 -3 79 -19z m99 -158 l21 -35
-242 -140 -242 -141 -80 0 c-53 1 -75 4 -65 10 70 43 576 338 582 339 3 1 15
-14 26 -33z m131 -230 c24 -42 41 -79 39 -82 -3 -2 -90 -3 -194 -2 l-189 3
140 82 c77 45 145 81 150 79 6 -1 30 -37 54 -80z m232 -235 l29 -29 0 -165 0
-165 -192 -4 c-180 -3 -196 -5 -242 -27 -65 -32 -122 -90 -152 -154 -19 -41
-24 -69 -24 -133 0 -70 4 -89 31 -142 35 -72 94 -124 169 -153 43 -16 77 -19
230 -19 l180 0 0 -166 0 -166 -29 -29 -29 -29 -906 0 -905 0 -28 24 -28 24 0
657 0 657 28 24 28 24 905 0 906 0 29 -29z m117 -493 c17 -17 17 -349 0 -366
-16 -16 -414 -17 -455 -1 -38 14 -92 67 -109 106 -17 39 -18 111 -3 150 15 40
57 82 104 104 35 16 67 19 246 19 146 0 208 -3 217 -12z"/>
<path d="M2450 1533 c-84 -27 -114 -99 -71 -169 56 -92 201 -49 201 60 0 50
-21 83 -66 102 -35 15 -40 15 -64 7z"/>
</g>
</svg>
