<svg xmlns="http://www.w3.org/2000/svg" id="Layer_1" data-name="Layer 1" viewBox="17.27 9.63 54.58 54.59">   <defs>     <style>       .cls-1{fill:#282d5b;stroke:#282d5b;stroke-miterlimit:10;stroke-width:.5px}     </style>   </defs>   <path d="M69.14 37.15v-7.6c0-2.58-2-4.67-4.52-4.88l-7.06-12.33a4.814 4.814 0 0 0-2.97-2.29 4.797 4.797 0 0 0-3.7.5l-24.2 14.09h-4.25c-2.71 0-4.92 2.2-4.92 4.92v29.49c0 2.71 2.2 4.92 4.92 4.92h41.78c2.71 0 4.92-2.2 4.92-4.92v-7.6c1.43-.51 2.46-1.86 2.46-3.46v-7.37c0-1.6-1.03-2.95-2.46-3.46Zm-7.38-12.52H51.05l8.03-4.68 2.68 4.68Zm-3.9-6.81-11.7 6.81h-4.85l15.34-8.93 1.21 2.12Zm-5.74-5.15c.56-.33 1.2-.41 1.83-.25.63.17 1.15.57 1.48 1.14s-19 11.07-19 11.07h-4.85l20.55-11.96Zm14.56 46.37c0 1.35-1.1 2.46-2.46 2.46H22.44c-1.35 0-2.46-1.1-2.46-2.46V29.55c0-1.35 1.1-2.46 2.46-2.46h41.78c1.35 0 2.46 1.1 2.46 2.46v7.37h-7.37c-4.07 0-7.37 3.31-7.37 7.37s3.31 7.37 7.37 7.37h7.37v7.37Zm2.46-11.06c0 .68-.55 1.23-1.23 1.23h-8.6c-2.71 0-4.92-2.2-4.92-4.92s2.2-4.92 4.92-4.92h8.6c.68 0 1.23.55 1.23 1.23v7.37Z" class="cls-1"></path>   <path d="M59.31 41.84c-1.35 0-2.46 1.1-2.46 2.46s1.1 2.46 2.46 2.46 2.46-1.1 2.46-2.46c0-1.35-1.1-2.46-2.46-2.46Z" class="cls-1"></path> </svg>