<?xml version="1.0" encoding="UTF-8"?>
<!DOCTYPE svg PUBLIC "-//W3C//DTD SVG 1.1//EN" "http://www.w3.org/Graphics/SVG/1.1/DTD/svg11.dtd">
<svg xmlns="http://www.w3.org/2000/svg" version="1.1" width="369px" height="327px" style="shape-rendering:geometricPrecision; text-rendering:geometricPrecision; image-rendering:optimizeQuality; fill-rule:evenodd; clip-rule:evenodd" xmlns:xlink="http://www.w3.org/1999/xlink">
<g><path style="opacity:0.938" fill="#272d5b" d="M 215.5,39.5 C 224.86,37.8974 232.694,40.564 239,47.5C 249,64.8333 259,82.1667 269,99.5C 278.066,101.565 284.4,106.898 288,115.5C 288.167,128.18 288.667,140.846 289.5,153.5C 294.696,155.866 297.863,159.866 299,165.5C 299.667,177.833 299.667,190.167 299,202.5C 297.892,208.11 294.725,212.11 289.5,214.5C 288.667,227.154 288.167,239.82 288,252.5C 284.969,260.201 279.469,265.034 271.5,267C 210.5,267.667 149.5,267.667 88.5,267C 80.5309,265.034 75.0309,260.201 72,252.5C 71.3333,207.167 71.3333,161.833 72,116.5C 74.0993,109.402 78.5993,104.568 85.5,102C 94.1061,100.79 102.773,100.123 111.5,100C 146.098,79.5406 180.765,59.3739 215.5,39.5 Z M 218.5,52.5 C 222.122,51.924 225.122,52.924 227.5,55.5C 202.331,70.5856 176.998,85.4189 151.5,100C 146.833,100.667 142.167,100.667 137.5,100C 164.892,84.6446 191.892,68.8113 218.5,52.5 Z M 233.5,67.5 C 234.496,67.4142 235.329,67.7476 236,68.5C 236.707,70.0806 237.54,71.5806 238.5,73C 223.167,82 207.833,91 192.5,100C 187.833,100.667 183.167,100.667 178.5,100C 196.897,89.1404 215.23,78.307 233.5,67.5 Z M 244.5,84.5 C 247.726,89.2708 250.726,94.2708 253.5,99.5C 241.848,100.666 230.181,100.833 218.5,100C 227.395,95.059 236.062,89.8923 244.5,84.5 Z M 91.5,113.5 C 150.501,113.333 209.501,113.5 268.5,114C 271.196,114.69 273.363,116.19 275,118.5C 275.5,129.495 275.667,140.495 275.5,151.5C 265.161,151.334 254.828,151.5 244.5,152C 220.925,156.635 211.425,170.802 216,194.5C 220.852,206.517 229.685,213.684 242.5,216C 253.495,216.5 264.495,216.667 275.5,216.5C 275.667,227.505 275.5,238.505 275,249.5C 273.457,251.378 271.624,252.878 269.5,254C 209.084,254.992 148.751,254.659 88.5,253C 86.9512,251.786 85.7845,250.286 85,248.5C 84.3333,205.5 84.3333,162.5 85,119.5C 86.4361,116.558 88.6028,114.558 91.5,113.5 Z M 245.5,164.5 C 258.599,164.038 271.599,164.538 284.5,166C 285,166.5 285.5,167 286,167.5C 286.667,178.5 286.667,189.5 286,200.5C 285.167,201.333 284.333,202.167 283.5,203C 270.5,203.667 257.5,203.667 244.5,203C 231.015,199.522 225.849,191.022 229,177.5C 232.355,170.298 237.855,165.964 245.5,164.5 Z"/></g>
<g><path style="opacity:0.923" fill="#272d5b" d="M 242.5,172.5 C 255.167,171.659 260.001,177.326 257,189.5C 251.963,195.99 245.796,197.156 238.5,193C 232.957,184.88 234.29,178.047 242.5,172.5 Z"/></g>
</svg>
